<svg width="155" height="43" viewBox="0 0 155 43" fill="none" xmlns="http://www.w3.org/2000/svg"><path d="M74.708 13.38c0-.245-.163-.327-.326-.327h-5.136c-.245 0-.408.163-.49.326l-7.908 19.812c-.163.245.081.57.326.57h4.647c.245 0 .408-.162.49-.407l3.831-11.577.245 11.577c0 .245.163.408.326.408h4.403c.244 0 .57-.245.57-.571l-.978-19.812zM55.63 25.771h-4.647c-.245 0-.326-.245-.245-.49l.653-3.994c0-.245.244-.49.407-.49h4.729v-.896c0-.245-.082-.408-.163-.653-.082-.244-.163-.326-.245-.57-.081-.163-.244-.326-.244-.49-.163-.163-.245-.244-.408-.326-.163-.081-.326-.244-.57-.244-.245-.082-.408-.082-.653-.082h-.652c-.245 0-.408.082-.652.082-.245.081-.327.081-.571.163-.245.081-.326.163-.49.244h-.08c-.245.082-.408-.081-.408-.326l-.164-3.505c-.081-.245.082-.49.245-.571.163-.082.326-.163.57-.245.245-.081.408-.163.653-.244.245-.082.49-.163.652-.245.163-.082.49-.163.734-.163.245-.082.57-.082.815-.163.245 0 .571-.082.897-.082.49 0 .979.082 1.386.164.408.081.815.244 1.142.326.326.163.652.326.978.57.245.245.57.49.815.734.245.245.408.57.652.897.245.326.327.652.49 1.06.163.326.244.652.244 1.141.082.326.163.734.245 1.142.081.407.081.815.081 1.141v1.142c0 .407-.081.815-.163 1.222-.081.408-.163.734-.244 1.142v.081a24.912 24.912 0 01-.571 2.365c-.245.733-.49 1.467-.815 2.038a12.98 12.98 0 01-1.06 1.794c-.408.57-.734 1.06-1.223 1.467a9.383 9.383 0 01-1.386 1.142c-.49.326-.979.652-1.55.815-.57.244-1.06.407-1.548.489-.49.408-.979.408-1.55.408-.244 0-.57 0-.815-.082-.244 0-.57-.081-.734-.081-.244-.082-.489-.082-.652-.163a3.985 3.985 0 01-.57-.245l-.49-.245c-.163-.081-.244-.163-.407-.244-.163-.082-.245-.326-.163-.57l1.467-3.751v-.082c.163-.244.326-.326.571-.244.163.081.244.163.408.244.163.082.244.082.489.163.163.082.326.082.57.082h.571c.245 0 .652 0 .816-.082.244-.081.489-.163.652-.244a2.44 2.44 0 01.652-.326 1.41 1.41 0 00.49-.49c.162-.244.244-.326.407-.57a2.44 2.44 0 00.326-.653c.163-.244.244-.489.244-.652l.082.245zm30.003-5.137h3.913c.245 0 .327.245.245.49l-.652 3.75c0 .244-.245.49-.408.49h-3.913l-.653 3.586h4.403c.245 0 .326.245.245.49l-.653 3.913c0 .245-.244.49-.407.49h-9.376c-.245 0-.326-.245-.245-.49l3.506-19.812c0-.244.245-.489.408-.489h9.131c.245 0 .326.245.245.49l-.653 3.913c0 .244-.244.489-.407.489h-4.158l-.571 2.69zm22.013 13.127h-3.995c-.245 0-.326-.245-.326-.49l.734-6.196c.081-.326.163-.815.163-1.304l.081-.49.082-.57-.082.244-.326.897-.081.245c-.163.326-.245.652-.326.897l-2.446 6.033c-.082.245-.245.326-.408.326h-3.343c-.244 0-.326-.163-.326-.326l-.244-6.033v-2.528l-.245.897-.245.979-.244.815-1.468 6.196c-.081.245-.244.408-.407.408H90.28c-.244-.082-.326-.245-.244-.571l5.055-19.812c.081-.244.244-.407.407-.407h4.729c.244 0 .326.163.326.326l.163 6.359c0 1.142.082 2.038.082 2.854v1.875c.163-.326.244-.734.407-1.142.245-.57.408-1.141.652-1.793.245-.652.408-1.223.653-1.794l2.446-6.36c.081-.244.244-.325.407-.325h4.729c.245 0 .326.244.326.489l-2.283 19.812c-.081.244-.244.489-.489.489zm10.599-13.127h3.913c.245 0 .326.245.245.49l-.652 3.75c0 .244-.245.49-.408.49h-3.913l-.653 3.586h4.403c.245 0 .326.245.245.49l-.653 3.913c0 .245-.244.49-.407.49h-9.376c-.245 0-.326-.245-.245-.49l3.506-19.812c0-.244.245-.489.408-.489h9.131c.245 0 .326.245.245.49l-.653 3.913c0 .244-.244.489-.407.489h-4.158l-.571 2.69zm5.218 12.556l3.506-19.812c0-.244.244-.489.407-.489h4.566c.245 0 .326.245.245.49l-1.142 7.337h2.528l1.304-7.256c0-.245.245-.49.408-.49h4.565c.245 0 .326.245.245.49l-3.506 19.812c0 .244-.244.489-.408.489h-4.565c-.245 0-.326-.245-.245-.49l1.305-7.337h-2.528l-1.304 7.419c0 .245-.245.49-.408.49h-4.566c-.244-.164-.407-.327-.407-.653zm23.48.57h-4.565c-.245 0-.326-.244-.245-.489l2.691-15.082h-3.017c-.245 0-.326-.245-.245-.49l.734-4.24c0-.244.245-.488.408-.488h11.414c.245 0 .326.244.245.489l-.734 4.24c0 .244-.245.488-.408.488h-3.098l-2.69 15.084c-.082.244-.327.489-.49.489z" fill="#fff"/><path fill-rule="evenodd" clip-rule="evenodd" d="M19.43 42.812C7.773 42.812-.706 33.436.435 21.695 1.657 9.955 11.93.58 23.67.58H46.5l-3.75 21.116c-2.12 11.578-11.66 21.117-23.318 21.117zm5.137-29.27l-.652 2.446c1.712 0 3.669.897 4.81 1.957 1.386 1.549 1.794 3.669 1.386 6.278-1.141 6.604-6.522 9.62-12.555 9.457h-4.648l1.06-5.788h5.055c2.12 0 3.506-1.142 3.832-3.099.49-3.342-2.69-3.75-5.136-3.424-.163 0-.326 0-.408-.163-.081-.081-.163-.244-.081-.408l2.445-13.126c.082-.244.408-.49.653-.49h13.615l-1.141 6.36h-8.235z" fill="#fff"/></svg>