<svg width="164" height="31" viewBox="0 0 164 31" fill="none" xmlns="http://www.w3.org/2000/svg"><path d="M4.702 14.948L.418 30.021h7.027l4.284-15.073H4.702zm30.408 9.808h-3.305V14.94h3.304v9.816zM37.084 9.68h-5.28V2.22h-6.758v27.793H37.09c2.858 0 4.778-1.893 4.778-4.712v-10.91c0-2.82-1.92-4.711-4.778-4.711h-.004zm17.019 15.598h-2.94v-3.765h2.936v3.765h.004zM56.079 9.68H45.66v4.739h8.44v2.932h-4.917c-2.88 0-4.821 1.877-4.821 4.668v3.306c0 2.815 1.936 4.711 4.821 4.711h11.679V14.391c0-2.819-1.921-4.711-4.778-4.711h-.004zm29.501 0H63.885v20.337h6.758V14.94h3.142v15.076h6.718V14.94h3.142v15.076h6.758V14.39c0-2.819-1.936-4.711-4.821-4.711zm17.196 8.508H99.84v-3.766h2.936v3.765zm1.976-8.504h-6.9c-2.858 0-4.778 1.892-4.778 4.71v10.923c0 2.815 1.92 4.712 4.778 4.712h11.354v-4.751h-9.374v-3.683h9.738v-7.204c0-2.819-1.937-4.711-4.822-4.711l.004.004zm14.318-4.637h-6.758v20.266c0 2.815 1.921 4.712 4.778 4.712h5.138v-4.908h-3.162V14.944h3.162V9.68h-3.162V5.047h.004zm14.927 8.013v16.96h6.758V14.946h3.976V9.68h-7.347c-2.063 0-3.399 1.327-3.399 3.376l.012.004zm19.535-3.38h-6.718v15.63c0 1.758.62 4.71 4.778 4.71h12.046V9.685h-6.758V24.76h-3.344V9.684l-.004-.004zm-27.87 20.34h4.897v-4.864h-4.897v4.865zM14.768.897H7.741l8.276 29.124h7.027L14.768.897z" fill="#fff"/><path d="M16.902 27.104H6.066V21.96h10.836v5.144z" fill="#fff"/></svg>