<svg width="89" height="91" viewBox="0 0 89 91" fill="none" xmlns="http://www.w3.org/2000/svg"><path fill-rule="evenodd" clip-rule="evenodd" d="M44.5.854c-3.316 0-6.54.374-9.647 1.067v43.641c0 5.348 4.343 9.71 9.672 9.71 5.325 0 9.667-4.362 9.667-9.707 0-5.138-3.998-9.354-9.024-9.69v-7.771c9.288.338 16.761 8.052 16.761 17.46 0 9.623-7.818 17.477-17.404 17.477-9.59 0-17.407-7.854-17.407-17.479V4.39a42.09 42.09 0 00-3.225 1.546v39.626c.002 11.406 9.27 20.707 20.632 20.707 11.362 0 20.627-9.301 20.627-20.704 0-11.191-8.916-20.356-19.984-20.701v-7.77c15.327.348 27.717 13.004 27.717 28.47 0 15.686-12.74 28.474-28.36 28.474-15.624 0-28.369-12.788-28.369-28.476V11.089C6.291 19.28 0 31.665 0 45.53c0 24.673 19.923 44.68 44.5 44.68 24.582 0 44.5-20.007 44.5-44.68C89 20.854 69.082.853 44.5.853z" fill="#E4002B"/></svg>