<svg width="151" height="41" viewBox="0 0 151 41" fill="none" xmlns="http://www.w3.org/2000/svg"><path d="M14.382 24.023l-1.514-12.111c-.084-.59-.42-1.094-1.009-1.262-.589-.168-1.177-.084-1.598.336l-8.747 8.495a1.83 1.83 0 00-.42.673 1.669 1.669 0 00.925 2.019c.168.084.336.084.504.084h3.028c.252.084.42.42.337.673l-.505 1.346L0 39.666h1.093L6.897 23.35a1.669 1.669 0 00-.925-2.018c-.169-.084-.337-.084-.505-.084H2.523c-.252-.084-.42-.42-.336-.673 0-.084.084-.168.168-.252l1.01-1.01 6.644-6.392 1.093-1.093c.168-.085.337-.169.505-.085.168.085.336.253.336.421l.168 1.598 1.01 9 .168 1.43v.252c-.084.252-.42.42-.673.336-.084 0-.084-.084-.168-.084l-.589-.505-.504-.42-1.094-.841c-.168-.084-.252-.168-.504-.253a1.669 1.669 0 00-2.02.926v.084l-5.634 15.98h1.093L8.243 25.37l.504-1.346c.084-.252.42-.42.673-.336.084 0 .084.084.168.084l1.094.925 1.093.925c.168.084.252.169.42.253a1.669 1.669 0 002.02-.926c.167-.42.167-.672.167-.925zm32.214 15.56h11.859L72.333.641H60.389L46.596 39.583zm47.521 0h11.775l6.14-17.158c2.439-4.121 7.401-3.196 6.476.42l-5.888 16.738h12.28l5.804-16.4c1.513-4.122 7.99-4.375 6.56.504l-5.467 15.896h11.859l6.645-18.84c2.186-6.392-5.636-14.971-19.093-5.551-1.598-4.29-8.242-6.981-17.074-.757l.589-2.523h-11.018l-9.588 27.671zM82.09 11.912H70.986l-6.56 18.42c-3.28 10.344 7.149 13.793 17.157 6.644l-.672 2.607h10.597l9.757-27.671H89.911l-5.803 15.812c-1.346 3.869-8.916 6.056-7.738.084l5.72-15.896zm-49.372 1.514L37.176.64H25.232l-13.71 38.942H22.71l1.262-3.112c.673 4.71 16.148 8.58 24.391-7.99 6.476-11.943-.925-23.802-15.644-15.055zm4.121 14.803c-2.187 2.691-5.72 4.121-7.822 2.775-2.187-1.514-2.102-4.878.084-8.074.505-.757 1.094-1.514 1.682-2.019 2.103-1.934 4.458-2.607 6.393-1.345 2.355 1.43 1.934 5.719-.337 8.663z" fill="#fff"/></svg>