<svg width="67" height="96" viewBox="0 0 67 96" fill="none" xmlns="http://www.w3.org/2000/svg"><path d="M49.25 76H63a2 2 0 002-2V4a2 2 0 00-2-2H4a2 2 0 00-2 2v70a2 2 0 002 2h13.75" stroke="#E4002B" stroke-width="4" stroke-linecap="round"/><mask id="a" fill="#fff"><path d="M12 16a2 2 0 012-2h39a2 2 0 110 4H14a2 2 0 01-2-2z"/></mask><path d="M14 18h39v-8H14v8zm39-4H14v8h39v-8zm-39 0a2 2 0 012 2H8a6 6 0 006 6v-8zm37 2a2 2 0 012-2v8a6 6 0 006-6h-8zm2 2a2 2 0 01-2-2h8a6 6 0 00-6-6v8zm-39-8a6 6 0 00-6 6h8a2 2 0 01-2 2v-8z" fill="#E4002B" mask="url(#a)"/><mask id="b" fill="#fff"><path d="M12 28a2 2 0 012-2h39a2 2 0 110 4H14a2 2 0 01-2-2z"/></mask><path d="M14 30h39v-8H14v8zm39-4H14v8h39v-8zm-39 0a2 2 0 012 2H8a6 6 0 006 6v-8zm37 2a2 2 0 012-2v8a6 6 0 006-6h-8zm2 2a2 2 0 01-2-2h8a6 6 0 00-6-6v8zm-39-8a6 6 0 00-6 6h8a2 2 0 01-2 2v-8z" fill="#E4002B" mask="url(#b)"/><mask id="c" fill="#fff"><path d="M12 40a2 2 0 012-2h39a2 2 0 110 4H14a2 2 0 01-2-2z"/></mask><path d="M14 42h39v-8H14v8zm39-4H14v8h39v-8zm-39 0a2 2 0 012 2H8a6 6 0 006 6v-8zm37 2a2 2 0 012-2v8a6 6 0 006-6h-8zm2 2a2 2 0 01-2-2h8a6 6 0 00-6-6v8zm-39-8a6 6 0 00-6 6h8a2 2 0 01-2 2v-8z" fill="#E4002B" mask="url(#c)"/><path d="M33 62v30.5m0 0l9-9m-9 9l-9-9" stroke="#E4002B" stroke-width="4" stroke-linecap="round"/></svg>