<svg width="85" height="85" viewBox="0 0 85 85" fill="none" xmlns="http://www.w3.org/2000/svg"><path d="M8.837 68.978L.491 52.285 84.934 0v30.684L8.837 68.978zm7.855 15.955L9.574 70.205l69.96-35.103v24.793L16.691 84.933z" fill="#fff"/><path d="M11.036 65.54l-3.668-7.532 2.426-1.18c.666-.325 1.338-.465 2.017-.42a3.495 3.495 0 011.863.673c.567.402 1.019.944 1.355 1.625l.168.346c.336.69.491 1.38.465 2.072a3.553 3.553 0 01-.606 1.882 3.883 3.883 0 01-1.542 1.327l-2.478 1.207zm-1.17-7.014l2.306 4.733.63-.308c.521-.253.831-.633.931-1.138.098-.508-.031-1.128-.387-1.859l-.159-.326c-.354-.727-.76-1.207-1.22-1.44-.459-.233-.956-.22-1.49.04l-.61.298zm9.522-.343l-.983.478L19.7 61.32l-1.816.884-3.668-7.53 2.964-1.444c.893-.435 1.688-.577 2.385-.426.696.152 1.221.59 1.574 1.313.255.525.36 1.011.314 1.46-.043.447-.238.888-.585 1.322l3.051 2.27.038.078-1.945.947-2.624-2.011zm-1.666-.923l1.149-.56c.345-.168.56-.383.645-.647.086-.268.05-.564-.107-.888-.158-.325-.37-.535-.634-.632-.267-.1-.57-.068-.912.098l-1.148.56 1.007 2.069zm10.189-3.888l-2.855 1.39.874 1.796 3.372-1.643.68 1.397-5.187 2.527-3.668-7.532 5.198-2.531.683 1.401-3.383 1.648.773 1.588 2.856-1.39.657 1.35zm6.404-.911l-2.488 1.212.25 1.618-1.94.945-.905-8.876 1.707-.831 6.45 6.175-1.95.95-1.124-1.193zm-2.736-.401l1.618-.789-2.084-2.216.465 3.005zm5.081-8.318l4.232 4.421-.876-6.055 2.39-1.164 3.668 7.53-1.82.887-.857-1.758-1.578-3.686.79 6.245-1.2.585-4.439-4.475 1.932 3.52.856 1.758-1.815.885-3.668-7.531 2.385-1.162zM15.772 69.206l4.233 4.42-.876-6.055 2.39-1.164 3.667 7.53-1.82.888-.857-1.759-1.577-3.686.789 6.246-1.2.584-4.438-4.474 1.931 3.52.857 1.758-1.816.884-3.668-7.53 2.385-1.162zm14.258.632l-2.488 1.212.251 1.618-1.94.945-.905-8.876 1.707-.832 6.45 6.176-1.95.95-1.125-1.193zm-2.736-.402l1.62-.788-2.085-2.217.465 3.005zm7.56-3.675l-.347 1.18.967 1.986-1.815.884-3.668-7.53 1.815-.885 1.618 3.321.165-1.264.472-3.155 2.245-1.093-.922 4.57 4.59 2.96-2.151 1.049-2.97-2.023zm8.696-4.716l-2.854 1.39.874 1.796 3.372-1.643.68 1.397-5.188 2.526-3.667-7.53 5.198-2.532.682 1.401-3.382 1.648.773 1.588 2.855-1.39.658 1.35zm4.315-1.442l-.982.479 1.295 2.658-1.816.884-3.668-7.53 2.964-1.444c.893-.435 1.688-.577 2.384-.425.697.15 1.222.589 1.574 1.313.256.524.36 1.01.315 1.46-.043.447-.238.887-.585 1.32l3.05 2.271.038.078-1.944.947-2.625-2.011zM46.2 58.68l1.148-.56c.345-.167.56-.383.645-.646.087-.269.051-.565-.106-.89-.158-.323-.37-.534-.635-.63-.266-.102-.57-.069-.911.098l-1.149.559L46.2 58.68zm9.982-2.315c-.13-.265-.325-.426-.587-.482-.258-.058-.662-.05-1.212.02-.55.072-1.01.107-1.383.105-1.21-.004-2.018-.425-2.426-1.263a1.968 1.968 0 01-.174-1.278c.088-.44.312-.856.671-1.249a4.44 4.44 0 011.37-1c.54-.263 1.072-.402 1.594-.418.525-.016.994.097 1.406.34.411.239.728.587.952 1.046l-1.81.882c-.15-.307-.36-.499-.633-.575-.268-.079-.563-.04-.884.116-.324.158-.545.356-.664.593a.727.727 0 00-.015.68c.094.192.283.318.567.376.282.054.725.039 1.328-.046.602-.088 1.117-.117 1.545-.087 1.042.073 1.764.522 2.165 1.346.321.658.325 1.296.011 1.914-.313.618-.903 1.137-1.768 1.559a4.56 4.56 0 01-1.82.483c-.6.02-1.118-.1-1.555-.356a2.636 2.636 0 01-1.015-1.138l1.821-.886c.197.403.445.65.746.743.303.087.689.017 1.158-.212.3-.146.505-.325.615-.536a.717.717 0 00-.003-.677z" fill="#011C26"/></svg>