<svg width="130" height="63" viewBox="0 0 130 63" fill="none" xmlns="http://www.w3.org/2000/svg"><path d="M34.957 11.928C33.645 6.239 30.366 1.614 29.924.857 29.21 1.92 26.6 6.004 25.26 10.536c-1.44 5.05-1.654 9.533-1.155 13.947.5 4.415 2.367 8.946 2.367 8.946.998 2.383 2.495 4.932 3.465 6.185 1.426-1.842 4.705-7.34 5.732-14.517.57-3.988.584-7.481-.713-13.17zm-5.033 26.269c-.642-1.204-1.64-3.495-1.74-7.035-.029-3.42 1.355-6.349 1.754-6.962.356.613 1.554 3.163 1.697 6.656.085 3.422-1.056 6.113-1.711 7.34zm4.648-16.616c-.043 2.17-.3 4.46-.642 5.829.129-2.36-.157-5.687-.713-8.285-.541-2.596-2.081-6.938-3.322-8.945-1.14 1.912-2.538 5.666-3.28 8.921-.727 3.26-.755 7.199-.755 8.38-.2-.995-.685-4.547-.542-8.12.114-2.945.798-5.971 1.183-7.363 1.455-4.65 3.095-7.622 3.394-8.094.314.472 2.381 4.13 3.45 7.977 1.07 3.846 1.284 7.527 1.227 9.7z" fill="#fff"/><path d="M32.134 40.939h-9.939v6.628c.015-.009.029-.019.029-.027 2.338-2.327 6.145-2.327 8.484 0a5.94 5.94 0 010 8.429c-.014.01-.014.018-.029.027v.003l-.042.03a11.968 11.968 0 01-8.442 3.458 11.978 11.978 0 01-8.47-3.486 11.858 11.858 0 010-16.835 11.974 11.974 0 018.47-3.487v-15.94c-11.777 0-21.33 9.492-21.33 21.2 0 11.707 9.553 21.199 21.33 21.199a21.334 21.334 0 0015.57-6.71v-14.49h-5.631zM50.37 58.357c0 1.483-.185 3.785-3.18 3.785h-3.535c-2.98 0-3.166-2.302-3.166-3.785V44.73c0-1.485.186-3.787 3.166-3.787h3.536c2.994 0 3.18 2.302 3.18 3.787v2.997h-4.278V44.27c0-.363-.271-.696-.67-.696-.243 0-.67.15-.67.695v14.456c0 .545.427.696.67.696.399 0 .67-.333.67-.695v-4.64h-.642v-2.333h4.92v6.603zm6.417-4.179l.727-10.595h.243l.741 10.595h-1.711zm-4.72 7.964h4.178l.385-5.632h2.01l.4 5.632h4.178l-2.225-21.199h-6.701l-2.225 21.199zM64.8 59.478l4.093-15.895h-3.665v-2.64h8.042v2.635l-4.078 15.846h4.335v2.718H64.8v-2.664zm15-7.189v-8.717h.542c.47 0 .799.392.799 1.06v6.597c0 .666-.328 1.06-.799 1.06h-.541zm-4.277 9.853H79.8v-7.208h2.438c2.98 0 3.165-2.301 3.165-3.785v-6.42c0-1.484-.185-3.786-3.165-3.786h-6.716v21.199zm16.34-10.487v-8.082h.556c.457 0 .785.393.785 1.059v5.963c0 .666-.328 1.06-.784 1.06h-.557zm6.16 10.487l-2.096-8.268c1.512-.605 1.54-2 1.54-2.573V44.73c0-1.485-.171-3.787-3.165-3.787H87.6v21.199h4.263v-7.844h.314l1.454 7.844h4.392zm7.9-3.415c0 .364-.271.697-.671.697-.242 0-.67-.152-.67-.697V44.27c0-.546.428-.696.67-.696.4 0 .671.333.671.695v14.456zm-5.604-.37c0 1.483.185 3.785 3.18 3.785h3.521c2.995 0 3.18-2.302 3.18-3.785V44.73c0-1.485-.185-3.787-3.18-3.787h-3.521c-2.995 0-3.18 2.302-3.18 3.787v13.627zm23.27-17.414h5.547v21.199h-4.264V48.846h-.157l-2.195 13.296h-3.408l-2.196-13.296h-.157v13.296h-4.263V40.943h5.546l2.767 14.9 2.78-14.9z" fill="#fff"/></svg>