<svg width="97" height="97" viewBox="0 0 97 97" fill="none" xmlns="http://www.w3.org/2000/svg"><g clip-path="url(#clip0)"><path d="M.008 48.511a4.7 4.7 0 003.364 4.254l35.533 10.743L40.21 88c.059.97.712 1.82 1.642 2.137.257.099.534.138.791.138.693 0 1.346-.277 1.82-.81l12.564-13.91 17.806 12.326a4.67 4.67 0 002.69.851c2.236 0 4.175-1.583 4.65-3.799l14.779-75.32a2.425 2.425 0 00-.831-2.334 2.403 2.403 0 00-2.454-.376L2.858 43.862c-1.84.83-2.968 2.65-2.85 4.65zm44.714 33.416l-.812-15.452 9.101 6.292-8.29 9.16zm32.723 1.88L45.038 61.37l45.445-43.96-13.038 66.397zm8.052-68.336l-44.93 43.466L5.073 48.215l80.424-32.743z" fill="#E4002B"/></g><defs><clipPath id="clip0"><path fill="#fff" d="M0 0h97v97H0z"/></clipPath></defs></svg>