<svg width="98" height="57" viewBox="0 0 98 57" fill="none" xmlns="http://www.w3.org/2000/svg"><path d="M97.491.032H.638v56.869H97.49V.032z" fill="#fff"/><path d="M6.6 49.649v2.178h72.69V7.514l10.605 4.099v40.214h1.95V10.093L79.29 5.135 59.77 9.893v39.641L6.6 49.65zm.372-25.367v-8.685h1.749v3.44h3.44v-3.44h1.748v8.685H12.16v-3.784H8.72v3.784H6.973zM15.4 20.01c0-.888.143-1.633.4-2.235.201-.43.46-.831.803-1.204a3.572 3.572 0 011.118-.774c.544-.229 1.175-.344 1.863-.344 1.29 0 2.293.402 3.067 1.204.774.803 1.147 1.892 1.147 3.325 0 1.405-.373 2.494-1.147 3.297-.774.802-1.777 1.175-3.067 1.175-1.29 0-2.322-.402-3.067-1.175-.745-.774-1.118-1.892-1.118-3.268zm1.805-.057c0 .975.23 1.72.688 2.236a2.206 2.206 0 001.72.774 2.28 2.28 0 001.72-.745c.458-.516.659-1.261.659-2.265 0-1.003-.23-1.748-.66-2.235-.43-.488-1.003-.745-1.748-.745-.717 0-1.319.258-1.748.745-.43.487-.631 1.232-.631 2.235zm7.94 4.329v-8.685h2.637l1.576 5.933 1.548-5.933h2.637v8.685H31.91v-6.85l-1.72 6.85H28.5l-1.72-6.85v6.85h-1.634z" fill="#011C26"/><path d="M35.292 24.282v-8.685h6.449v1.461h-4.672v1.921h4.357v1.462h-4.357v2.35h4.844v1.462h-6.621v.029zM12.533 32.68l1.691.545c-.258.945-.688 1.662-1.29 2.12-.602.46-1.376.689-2.293.689-1.146 0-2.092-.402-2.838-1.175-.745-.774-1.117-1.864-1.117-3.24 0-1.433.372-2.58 1.117-3.353.746-.774 1.72-1.204 2.953-1.204 1.06 0 1.92.315 2.58.946.4.373.687.917.888 1.605l-1.748.401c-.115-.458-.316-.802-.631-1.06a1.823 1.823 0 00-1.175-.402c-.63 0-1.175.23-1.577.688-.401.46-.602 1.204-.602 2.236 0 1.09.201 1.892.602 2.35.402.46.918.688 1.548.688.459 0 .86-.143 1.204-.458.315-.287.545-.745.688-1.376zm3.21 3.182v-8.685h3.698c.917 0 1.605.086 2.035.23.43.142.745.429 1.003.83.258.402.373.86.373 1.376 0 .66-.2 1.204-.574 1.605-.372.43-.945.688-1.72.803a5.1 5.1 0 01.947.716c.258.258.573.746 1.003 1.405l1.06 1.691h-2.092l-1.261-1.892c-.459-.688-.746-1.089-.918-1.29-.172-.2-.344-.286-.515-.372-.172-.058-.488-.086-.89-.086h-.4v3.611h-1.749v.058zm1.749-5.016h1.29c.83 0 1.375-.029 1.576-.115.2-.057.373-.2.487-.373.115-.172.172-.4.172-.659a1.18 1.18 0 00-.23-.716c-.142-.172-.372-.287-.658-.344-.144-.03-.574-.03-1.29-.03h-1.347v2.237zm7.022 5.016v-8.685h6.45v1.462H26.29v1.92h4.357v1.462H26.29v2.35h4.845v1.462h-6.622v.029zm8.083-8.685h3.21c.717 0 1.262.057 1.663.172.516.143.946.43 1.319.802.372.373.63.86.83 1.405.202.544.288 1.232.288 2.064 0 .716-.086 1.318-.258 1.834-.23.63-.516 1.147-.918 1.548-.315.286-.716.516-1.232.688-.402.114-.918.172-1.548.172h-3.296v-8.685h-.058zm1.749 1.49v5.762h1.318c.488 0 .831-.03 1.06-.086.288-.058.517-.201.717-.373.201-.172.344-.459.459-.831.115-.402.172-.918.172-1.577 0-.659-.057-1.175-.172-1.548a1.938 1.938 0 00-.487-.83 1.52 1.52 0 00-.803-.402c-.258-.057-.716-.086-1.433-.086h-.831v-.029zm6.965 7.195v-8.685h1.748v8.685h-1.748zm5.36 0v-7.223h-2.58v-1.462H51v1.462h-2.58v7.223h-1.748zM6.972 38.27h3.468c.688 0 1.204.028 1.548.085.344.058.63.172.918.373.258.172.487.43.659.716.172.316.258.631.258 1.004 0 .401-.115.774-.316 1.118a2.11 2.11 0 01-.888.773c.516.144.946.43 1.232.774.287.373.43.803.43 1.319 0 .401-.086.774-.286 1.146-.172.373-.43.66-.745.889-.316.23-.717.373-1.176.401-.286.029-1.003.058-2.12.058H7v-8.657h-.029zm1.777 1.432v2.007h1.147c.688 0 1.118 0 1.261-.029a1.18 1.18 0 00.717-.315c.172-.172.258-.401.258-.688 0-.258-.086-.487-.23-.66-.143-.171-.372-.257-.659-.315-.172-.028-.66-.028-1.49-.028H8.749v.029zm0 3.469v2.322h1.634c.63 0 1.032-.03 1.204-.058a1.24 1.24 0 00.63-.344c.173-.172.259-.43.259-.745 0-.258-.058-.487-.201-.66a1.135 1.135 0 00-.545-.4c-.229-.087-.745-.115-1.548-.115H8.75zm14.819 3.783h-1.92l-.745-1.977h-3.469l-.716 1.977h-1.863l3.382-8.685H20.1l3.468 8.685zm-3.21-3.44l-1.204-3.21-1.175 3.21h2.379zm4.156 3.44V38.27h1.72l3.554 5.79v-5.79h1.634v8.685h-1.748l-3.497-5.675v5.675h-1.663zm8.771 0V38.27h1.749v3.87l3.554-3.87h2.35l-3.267 3.383 3.44 5.302h-2.265l-2.38-4.07-1.432 1.462v2.637h-1.749v-.029z" fill="#011C26"/></svg>