<svg width="110" height="61" viewBox="0 0 110 61" fill="none" xmlns="http://www.w3.org/2000/svg"><path d="M11.014 44.565v5.994H4.22v-5.994H.475v15.729H4.22v-6.325h6.794v6.325h3.744v-15.73h-3.744zm17.463 0l-3.916 6.229-3.912-6.23H16.23l6.464 10.282v5.448h3.74v-5.448L32.9 44.565h-4.423zm16.461 0v11.528c0 .438-.33.79-.795.79h-5.999V44.564H34.4v15.73h11.063c.985 0 1.775-.294 2.353-.868.574-.578.863-1.369.863-2.349V44.565h-3.74zm18.272 0H52.148v15.729h3.74V47.97h6.008c.483 0 .79.38.79.786v11.538h3.74V47.78c0-.985-.293-1.776-.862-2.35-.583-.577-1.369-.866-2.354-.866zm17.749 0H69.895v15.729h11.063c.984 0 1.77-.294 2.344-.868.578-.578.867-1.369.867-2.349v-9.296c0-.985-.289-1.776-.867-2.35-.574-.577-1.364-.866-2.344-.866zm-.529 4.218v7.287c0 .425-.307.813-.795.813H73.63V47.97h5.977c.492 0 .822.344.822.813zm10.263-4.218c-.98 0-1.775.289-2.349.867-.578.578-.863 1.368-.863 2.349v12.513h3.732v-4.866h6.798v4.866h3.74v-15.73H90.693zm7.318 3.405v4.052h-6.798V48.77c0-.389.302-.8.8-.8h5.998zm7.381 12.324h3.745v-15.73h-3.745v15.73zm-52.796-26.63c17.963 0 32.527-7.378 32.527-16.475C85.123 8.085 70.56.707 52.596.707c-17.957 0-32.52 7.378-32.52 16.482 0 9.097 14.563 16.475 32.52 16.475zm6.125-8.085c-.543 1.244-1.476 3.9-3.619 4.96-.652.32-1.456.47-2.17.496h-.33c-6.001 0-11.59-.829-16.267-2.235-.035-.015-.144-.054-.178-.068-.433-.143-.653-.34-.653-.584 0-.211.117-.374.268-.524.069-.06.165-.142.296-.258 1.085-.89 4.332-3.22 10.458-5.544 2.149-.808 4.84-1.82 7.656-2.412 1.648-.34 7.773-1.27 4.539 6.17zM75.153 8.968c.116-.197.268-.367.55-.38.15-.016.356.019.672.217 3.818 2.323 6.084 5.231 6.084 8.377 0 5.68-7.382 10.564-17.943 12.698-.673.136-1.126.129-1.277-.04-.11-.102-.137-.285 0-.51a2.19 2.19 0 01.282-.387c5.747-6.706 10.128-16.598 11.37-19.451.097-.197.186-.394.262-.523v-.001zm-28.58-.21c.543-1.243 1.477-3.9 3.62-4.953.652-.32 1.455-.475 2.17-.496.164-.004.28 0 .322 0 6.009 0 11.591.823 16.274 2.236l.179.068c.432.142.652.34.652.584 0 .21-.117.367-.268.516a4.99 4.99 0 01-.295.259c-1.078.896-4.333 3.22-10.458 5.543-2.156.816-4.841 1.821-7.65 2.412-1.654.347-7.78 1.27-4.545-6.169zm-5.898-4.273c.68-.13 1.126-.13 1.291.04.096.108.124.285-.005.509a2.383 2.383 0 01-.281.38c-5.748 6.713-10.129 16.598-11.378 19.459-.09.197-.186.394-.261.523-.11.197-.268.367-.543.38-.151.015-.364-.03-.68-.217-3.818-2.324-6.084-5.231-6.084-8.377 0-5.68 7.382-10.565 17.943-12.698" fill="#fff"/></svg>