<svg width="31" height="28" viewBox="0 0 31 28" fill="none" xmlns="http://www.w3.org/2000/svg"><path d="M30.517 27.88h-6.634v-9.617c0-2.518-1.038-4.236-3.32-4.236-1.745 0-2.717 1.16-3.166 2.277-.17.401-.145.96-.145 1.519v10.06H10.68s.084-17.04 0-18.588h6.572v2.917c.387-1.276 2.49-3.096 5.84-3.096 4.157 0 7.425 2.673 7.425 8.43v10.336-.002zM4.034 6.971h-.042C1.873 6.97.499 5.55.499 3.746.499 1.912 1.914.52 4.073.52 6.23.521 7.559 1.908 7.6 3.742c0 1.802-1.37 3.228-3.57 3.228l.003.001zM1.257 9.295h5.85V27.88H1.258V9.295h-.002z" fill="#fff"/></svg>