<svg width="39" height="42" viewBox="0 0 39 42" fill="none" xmlns="http://www.w3.org/2000/svg"><path fill-rule="evenodd" clip-rule="evenodd" d="M4.541 8.896C4.895 6.938 6.646.004 14.017 0c7.37-.004 6.62 6.931 6.269 8.888L16.073 32.27c-.524 2.908-2.088 9.727-9.623 9.73-7.534.003-6.639-6.819-6.115-9.726l.463-2.572h6.027c-.997 5.536-1.157 7.044.571 7.041 1.508 0 2.086-1.343 2.65-4.472l1.39-7.717a6.66 6.66 0 01-3.195 1.007c-6.194 0-5.549-6.371-5.135-8.662l1.435-8.003zm10.034-1.794a1.608 1.608 0 00-.021-.688 1.572 1.572 0 00-.307-.61 1.502 1.502 0 00-.53-.413 1.45 1.45 0 00-.651-.134c-.5.045-.974.246-1.362.575a2.6 2.6 0 00-.813 1.271L8.745 19.014a1.677 1.677 0 00.356 1.273 1.549 1.549 0 001.153.572 2.282 2.282 0 001.33-.488c.383-.3.668-.717.815-1.193l2.177-12.076zm17.206-.676H22.74L23.818.442H39l-1.089 6.04L25.568 41.55h-6.251L31.781 6.426z" fill="#E4002B"/></svg>