<svg width="175" height="55" viewBox="0 0 175 55" fill="none" xmlns="http://www.w3.org/2000/svg"><path d="M126.65 4.27h-4.071v26.678h4.071V4.271zm6.89 21.86c-1.524 0-2.751 1.181-2.751 2.649s1.227 2.65 2.751 2.65c1.523 0 2.75-1.182 2.75-2.65s-1.227-2.65-2.75-2.65zm10.704-4.468c0-3.182 1.982-5.91 5.824-5.91h2.427v-3.714h-2.427c-3.006 0-4.381.922-5.783 2.454l-.027.04v-2.494h-4.031v18.897h4.017v-9.273zm-26.087-9.624h-4.072v18.897h4.072V12.038zm-2.036-3.131c1.524 0 2.75-1.182 2.75-2.65 0-1.467-1.24-2.649-2.75-2.649-1.523 0-2.75 1.182-2.75 2.65 0 1.467 1.24 2.65 2.75 2.65zm-10.448 5.04c-1.564-1.533-3.964-2.39-6.35-2.39-5.69 0-10.314 4.455-10.314 9.936 0 5.48 4.624 9.936 10.314 9.936 2.386 0 4.907-.987 6.35-2.546v2.065h4.004v-18.91h-4.004v1.909zM99.458 27.48c-3.506 0-6.175-2.597-6.175-5.987s2.67-5.962 6.175-5.962 6.269 2.416 6.269 5.962-2.764 5.987-6.27 5.987zm64.308 3.949c1.82 0 4.139-.948 5.595-2.559.013.715 0 1.364 0 2.065h4.004V12.038h-4.018v10.377c0 2.689-2.13 5.195-5.325 5.195-2.791 0-4.773-1.948-4.773-4.74V12.05h-4.017v11.144c.013 4.988 2.804 8.235 8.534 8.235zM77.253 11.557c-2.67 0-5.285 1.169-6.876 3.013-1.456-1.857-3.572-3.013-6.417-3.013-2.319 0-3.977 1-4.867 1.805v-1.325H55.09v18.898h4.004V19.882c0-2.468 2.09-4.468 4.638-4.468s4.638 2.013 4.638 4.468v11.053h4.004V19.882c0-2.468 2.09-4.468 4.637-4.468 2.548 0 4.638 2.013 4.638 4.468v11.053h4.004V19.882c.027-5.065-3.384-8.325-8.399-8.325zm52.876 28.119l-.027.026v-1.468h-2.562v11.092h2.562v-5.195c0-1.87 1.159-3.468 3.411-3.468h1.415v-2.429h-1.415c-1.753 0-2.562.546-3.384 1.442zm27.543 4.637c0 1.78-1.483 2.844-2.926 2.844-1.523 0-2.602-1.065-2.602-2.584v-6.326h-2.575v6.507c0 3.079 1.834 4.858 5.016 4.858 1.038 0 2.265-.507 3.073-1.273v1h2.562V38.247h-2.575l.027 6.066zm-16.07-6.351c-3.33 0-6.04 2.61-6.04 5.818 0 3.208 2.71 5.819 6.04 5.819s6.04-2.61 6.04-5.819c0-3.208-2.697-5.818-6.04-5.818zm0 9.17c-1.915 0-3.479-1.507-3.479-3.352 0-1.844 1.564-3.35 3.479-3.35 1.914 0 3.478 1.506 3.478 3.35 0 1.845-1.55 3.351-3.478 3.351zm27.26-9.17c-1.321 0-2.602.441-3.505 1.195v-.923h-2.562v14.91h2.562V48.34c.862.78 2.197 1.273 3.505 1.273 3.33 0 6.04-2.61 6.04-5.819 0-3.22-2.71-5.831-6.04-5.831zm-.081 9.117c-2.009 0-3.465-1.39-3.465-3.299s1.456-3.286 3.465-3.286c1.941 0 3.411 1.416 3.411 3.286 0 1.884-1.47 3.3-3.411 3.3zm-46.35-7.922c-.904-.754-2.184-1.195-3.506-1.195-3.33 0-6.04 2.61-6.04 5.818 0 3.208 2.71 5.819 6.04 5.819 1.308 0 2.643-.493 3.506-1.273v.221c-.041 2.273-1.187 3.429-3.425 3.429h-.027c-1.267 0-2.386-.468-3.424-1.442l-.094-.09-1.861 1.714.081.09c.957 1.079 2.899 2.313 5.231 2.313h.121c2.184-.04 5.851-.858 5.959-5.923V38.22h-2.561v.936zm-3.425 7.922c-1.941 0-3.411-1.415-3.411-3.299 0-1.87 1.47-3.286 3.411-3.286 2.009 0 3.465 1.377 3.465 3.286-.013 1.91-1.456 3.3-3.465 3.3zM28.125 21.155c0 3.442-2.898 6.235-6.47 6.235-3.574 0-6.472-2.793-6.472-6.235s2.898-6.234 6.471-6.234 6.471 2.805 6.471 6.234zM21.655.44C9.79.44.136 9.74.136 21.17c0 11.429 9.653 20.715 21.517 20.715 4.341 0 8.534-1.247 12.12-3.61l.068-.04-2.899-3.246-.054.026a17.579 17.579 0 01-9.235 2.61c-9.424 0-17.095-7.39-17.095-16.469 0-9.078 7.671-16.469 17.095-16.469s17.095 7.39 17.095 16.47c0 1.181-.135 2.363-.404 3.545-.54 2.143-2.09 2.792-3.263 2.701-1.173-.09-2.548-.896-2.562-2.87v-3.377c0-5.78-4.88-10.481-10.88-10.481-5.999 0-10.88 4.702-10.88 10.481 0 5.78 4.881 10.482 10.88 10.482 2.913 0 5.65-1.104 7.712-3.091 1.2 1.792 3.155 2.922 5.38 3.09.188.014.39.027.58.027a7.497 7.497 0 004.367-1.416c1.294-.948 2.252-2.312 2.777-3.948.081-.26.243-.87.243-.87v-.027c.31-1.311.459-2.623.459-4.247C43.17 9.74 33.518.44 21.654.44z" fill="#fff"/></svg>