<svg width="275" height="30" viewBox="0 0 275 30" fill="none" xmlns="http://www.w3.org/2000/svg"><g clip-path="url(#clip0)" fill="#fff"><path fill-rule="evenodd" clip-rule="evenodd" d="M0 .967h30.926V6.05c-3.917.22-12.254 1.37-13.192 8.474-.585 4.43 3.196 6.925 4.525 7.801.14.092.253.167.33.223 2.199 1.14 5.123 1.831 8.337 1.967v5.441H10.042c1.035-1.233 2.137-2.84 3.206-4.76.748-1.35 2.198-5.242 2.176-8.475-.011-1.36-.1-2.73-.826-3.515-.982-1.067-2.935-.994-4.13-.806-3.794.597-7.633 3.223-10.468 6.591V.967zm0 20.295v8.694h9.838l.055-.103c1.156-2.157 2.743-5.117 3.511-8.026.737-2.762 1.094-5.482-.368-6.8-1.06-.952-2.97-.34-4.242.069l-.044.014c-2.221.701-6.808 3.442-8.75 6.152zm30.926 1.872V9.126c-3.727-.084-8.08.732-10.212 2.751-1.428 1.36-1.74 3.693-.87 5.524 1.975 4.133 7.388 5.325 11.082 5.733zM14.431 1.656a.383.383 0 00-.112-.115.69.69 0 00-.2-.042c-.18.063-.18.22-.18.251.01.322.024.651.038.983.14 3.41.295 7.145-3.397 7.136-2.41-.01-5.067-1.622-7.4-4.54a29.313 29.313 0 01-.147-.182c-.375-.463-.887-1.094-1.348-1.315-.402-.198-1.172.314-.837 1.13.927 2.26 3.806 4.352 4.654 4.844 1.82 1.078 5.715 1.925 7.69.419 2.406-1.839 1.842-5.499 1.54-7.457l-.044-.296c-.068-.408-.146-.67-.257-.816z"/><path d="M271.909 13.102c0-1.046-1.798-2.176-4.51-2.176h-20.557v4.352h20.557c2.712 0 4.51-1.14 4.51-2.176zm3.091 0c0 2.804-3.404 5.074-7.601 5.074h-20.557v5.284h-3.091V8.027h23.648c4.197 0 7.601 2.26 7.601 5.074zm-37.801 2.637c0-2.595-4.99-5.22-14.521-5.22s-14.52 2.625-14.52 5.22c0 2.06 5.793 5.168 14.52 5.168 8.729 0 14.521-3.107 14.521-5.168zM222.678 7.62c11.641 0 17.613 3.651 17.613 8.119 0 4.467-7.891 8.066-17.613 8.066-9.731 0-17.611-3.6-17.611-8.066 0-4.468 5.982-8.119 17.611-8.119zm-17.611.408h-31.339v2.898h14.129V23.46h3.091V10.926h14.13V8.028h-.011zm-35.335 9.07l-7.042-6.046-7.042 6.047h14.084zm3.382 2.899h-20.837l-4.04 3.462h-4.576L162.69 7.12l19.029 16.34h-4.575l-4.03-3.462zm-30.19-5.399h-18.482v2.898h15.391v1.454c-2.522 1.12-6.619 1.957-11.708 1.957-8.727 0-14.52-3.107-14.52-5.168 0-2.595 4.989-5.22 14.52-5.22 6.083 0 10.313 1.066 12.579 2.52l1.718-2.406c-2.902-1.83-7.679-3.013-14.297-3.013-11.64 0-17.611 3.651-17.611 8.119 0 4.467 7.89 8.066 17.611 8.066 6.206 0 11.663-1.214 14.799-3.254v-5.953zm-70.212-6.57l-13.426 12-13.438-12h-3.816V23.46h3.091V11.575l13.304 11.884h1.707l13.304-11.884v11.884h3.091V8.03h-3.817zm11.485 2.898v3.034h22.444v2.898H84.197v3.703h23.426v2.898H81.105V8.03h26.518v2.897H84.197z"/></g><defs><clipPath id="clip0"><path fill="#fff" transform="translate(0 .967)" d="M0 0h275v29H0z"/></clipPath></defs></svg>