<svg width="36" height="29" viewBox="0 0 36 29" fill="none" xmlns="http://www.w3.org/2000/svg"><path d="M35.444.794C35.004.282 34.346 0 33.59 0a3.8 3.8 0 00-1.294.245L1.822 11.321C.204 11.91-.013 12.791 0 13.264c.014.473.284 1.342 1.933 1.842l.03.008 6.32 1.722 3.42 9.308c.465 1.268 1.511 2.057 2.73 2.057.768 0 1.524-.307 2.185-.886l3.91-3.428 5.67 4.348h.003l.053.042.015.011c.63.466 1.319.712 1.99.712h.001c1.313 0 2.359-.925 2.664-2.358l4.993-23.474c.2-.942.032-1.785-.474-2.374zM10.4 16.509l12.196-5.932L15 18.26a.99.99 0 00-.256.447l-1.464 5.647-2.882-7.845zm4.791 9.328c-.05.044-.101.084-.152.12l1.358-5.239 2.471 1.895-3.677 3.224zM33.85 2.769l-4.993 23.475c-.048.225-.201.747-.596.747-.195 0-.44-.1-.69-.285l-6.427-4.926-.003-.002-3.823-2.932 10.98-11.11a.968.968 0 00.076-1.29 1.089 1.089 0 00-1.323-.292L8.991 14.94l-6.408-1.745L33.047 2.122c.258-.094.437-.114.542-.114.065 0 .18.008.222.058.056.065.128.287.04.703z" fill="#fff"/></svg>