<svg width="35" height="35" viewBox="0 0 35 35" fill="none" xmlns="http://www.w3.org/2000/svg"><path d="M6.571 35c-.514 0-1.026-.14-1.482-.42a2.775 2.775 0 01-1.338-2.381v-4.102C.801 24.39-.474 19.758.158 15.007 1.172 7.381 7.488 1.132 15.176.147c5.415-.694 10.73 1.067 14.59 4.829 3.858 3.761 5.725 8.999 5.123 14.37-.873 7.78-7.205 14.18-15.056 15.22a17.606 17.606 0 01-9.199-1.253l-2.8 1.388A2.845 2.845 0 016.571 35zm8.925-32.39c-6.583.842-11.992 6.192-12.86 12.72-.56 4.211.621 8.308 3.326 11.534.187.223.289.504.289.793V32.2c0 .146.083.227.152.271.07.042.183.079.314.013l3.33-1.65c.34-.17.743-.176 1.09-.014a15.106 15.106 0 008.365 1.29c6.729-.891 12.154-6.373 12.903-13.035.517-4.61-1.084-9.104-4.392-12.328-3.308-3.225-7.87-4.734-12.517-4.137z" fill="#E4002B"/><path d="M8.813 21.283l5.738-8.102a.804.804 0 011.175-.241l3.844 2.86c.26.194.613.212.892.045l4.681-3.282c.687-.409 1.486.326 1.128 1.036l-4.634 7.954a.804.804 0 01-1.128.326l-5.131-3.054a.806.806 0 00-.77-.03l-4.742 3.592c-.708.352-1.446-.422-1.053-1.104z" fill="#E4002B"/></svg>