<svg width="35" height="35" viewBox="0 0 35 35" fill="none" xmlns="http://www.w3.org/2000/svg"><path fill-rule="evenodd" clip-rule="evenodd" d="M25.477 20.85c-.416-.21-2.458-1.22-2.839-1.36-.38-.14-.658-.209-.934.21-.277.418-1.073 1.36-1.316 1.638-.242.279-.484.314-.9.104-.415-.209-1.753-.65-3.34-2.074-1.235-1.108-2.069-2.476-2.311-2.894-.242-.419-.002-.623.182-.853.45-.562.9-1.15 1.038-1.43.14-.278.07-.523-.034-.732-.104-.209-.935-2.265-1.28-3.102-.338-.815-.68-.705-.936-.718a16.734 16.734 0 00-.796-.014c-.276 0-.727.104-1.107.523-.381.418-1.454 1.429-1.454 3.486 0 2.056 1.488 4.043 1.696 4.322.208.28 2.93 4.5 7.096 6.31.991.43 1.765.688 2.368.88.996.319 1.9.274 2.617.166.798-.12 2.457-1.011 2.804-1.987.346-.976.346-1.813.242-1.987-.104-.175-.38-.279-.796-.488z" fill="#fff"/><path d="M6.571 35c-.514 0-1.026-.14-1.482-.42a2.775 2.775 0 01-1.338-2.381v-4.102C.801 24.39-.474 19.758.158 15.007 1.172 7.381 7.488 1.132 15.176.147c5.415-.694 10.73 1.067 14.59 4.829 3.858 3.761 5.725 8.999 5.123 14.37-.873 7.78-7.205 14.18-15.056 15.22a17.606 17.606 0 01-9.199-1.253l-2.8 1.388A2.845 2.845 0 016.571 35zm8.925-32.39c-6.583.842-11.992 6.192-12.86 12.72-.56 4.211.621 8.308 3.326 11.534.187.223.289.504.289.793V32.2c0 .146.083.227.152.271.07.042.183.079.314.013l3.33-1.65c.34-.17.743-.176 1.09-.014a15.106 15.106 0 008.365 1.29c6.729-.891 12.154-6.373 12.903-13.035.517-4.61-1.084-9.104-4.392-12.328-3.308-3.225-7.87-4.734-12.517-4.137z" fill="#fff"/></svg>