<svg width="128" height="34" viewBox="0 0 128 34" fill="none" xmlns="http://www.w3.org/2000/svg"><path d="M11.374.195C9.01.195 6.171 2.555 3.87 6.52 1.42 10.661 0 15.738 0 20.17c0 6.502 3.505 13.026 11.374 13.026 7.87 0 11.375-6.524 11.375-13.026 0-4.431-1.42-9.53-3.87-13.628-2.301-3.985-5.14-6.346-7.505-6.346zm61.431 9.709h7.956v21.488h8.536V9.904h7.956v-7.95H72.804v7.95zm42.681 0H128v-7.95h-12.514c-11.503 0-17.632 5.924-17.632 14.741 0 8.818 6.15 14.741 17.632 14.741H128v-7.971h-12.514c-5.332 0-8.794-1.982-8.794-6.77 0-4.787 3.462-6.791 8.794-6.791zM55.453 1.977l-4.558 17.59-4.559-17.59H31.264v29.482H39.8V7.454l6.214 23.96h9.783l6.214-23.982v23.982h8.536V1.977H55.453z" fill="#fff"/></svg>