<svg width="74" height="63" viewBox="0 0 74 63" fill="none" xmlns="http://www.w3.org/2000/svg"><path fill-rule="evenodd" clip-rule="evenodd" d="M13.703 23.203c7.566-.28 17.24-.58 23.034-.58 5.878 0 15.751.31 23.363.592l-.034-.012s-.037-.036-.037-.072C56.502 14.182 47.465 7.806 36.884 7.806c-10.617 0-19.654 6.412-23.181 15.397zm54.42.349c1.45.168 2.183.275 2.817.448 2.094.471 2.535 1.196 2.535 2.681v10.036c0 1.45-1.58 2.464-2.682 2.645-1.034.204-1.713.28-2.734.379-3.766 13.124-16.316 22.772-31.211 22.772-14.902 0-27.42-9.62-31.216-22.752H5.62c-1.139-.11-1.837-.182-2.94-.4C1.58 39.182 0 38.167 0 36.718V26.681c0-1.485.44-2.21 2.535-2.68.661-.182 1.433-.29 3.012-.472C9.221 10.27 21.86.487 36.847.487c14.953 0 27.553 9.71 31.264 22.97 0 .034 0 .052.004.07a.143.143 0 00.009.025zM62.94 40.044h.007c-.132.37-.273.736-.421 1.098a25.8 25.8 0 00.414-1.098zm-26.202.84c7.752 0 16.466-.344 23.144-.68a.502.502 0 01-.036.082c-.018.036-.037.072-.037.09-3.673 8.695-12.564 14.855-22.96 14.855-10.47 0-19.398-6.232-23.035-15a4.985 4.985 0 01-.07-.018c6.655.332 15.306.67 22.994.67zM51.03 27.698c.203.129.3.424.624 1.12.147.338.693 1.506 1.286 2.776.742 1.588 1.559 3.335 1.763 3.818.097.222.052.222-.16.218h-2.117c-.111 0-.221-.037-.258-.146 0-.033-.215-.52-.532-1.24l-.093-.209h-4.739c-.367.833-.66 1.45-.66 1.45-.038.072-.111.144-.258.144h-1.947c-.294 0-.404 0-.22-.362l.036-.073c.919-1.992 3.086-6.775 3.086-6.775.21-.43.27-.639.409-.74.154-.113.404-.093 1.06-.093.331-.036.405-.036.809-.036s.698 0 .808.036c.636.018.916-.007 1.103.112zm-2.279 1.808c0 .037-.587 1.413-1.212 2.826h3.27c-.266-.666-.555-1.332-.784-1.86a24.44 24.44 0 01-.392-.93c-.037-.108-.11-.144-.183-.144-.037-.037-.148-.037-.22-.037-.111 0-.221 0-.258.037-.11 0-.184.036-.22.108zm-26.965-1.811c0-.145-.037-.218-.22-.218H19.58c-.147 0-.184.073-.184.218v7.608c0 .217.037.254.258.254h1.873c.22 0 .257-.073.257-.254v-7.608zm-3.967.108c0-.18-.037-.253-.258-.253h-1.616c-.22 0-.257.072-.257.254v6.05s-3.27-4.964-3.674-5.616c-.49-.69-.68-.69-1.904-.688H8.045c-.22 0-.257.072-.257.254v7.572c0 .217.037.253.257.253h1.617c.22 0 .257-.036.257-.254v-5.941s2.719 4.094 3.6 5.47c.441.725.551.725 1.837.725h2.204c.22 0 .258-.036.258-.254v-7.571zm48.126 0c0-.18-.037-.253-.258-.253H64.07c-.22 0-.257.072-.257.254v6.05s-3.233-4.964-3.674-5.616c-.49-.69-.68-.69-1.904-.688h-2.064c-.22 0-.257.072-.257.254v7.572c0 .217.037.253.257.253h1.617c.22 0 .257-.036.257-.254v-5.941s2.682 4.094 3.6 5.47c.441.725.551.725 1.837.725h2.204c.22 0 .258-.036.258-.254v-7.571zM32.623 32.37c-.294-1.34-1.36-1.594-2.792-1.739a99.99 99.99 0 00-.946-.076c-.955-.075-2.181-.172-2.655-.25-.257-.036-.367-.18-.367-.362v-.327c.037-.254.147-.362.404-.362h5.768c.22.036.294-.037.294-.218v-1.304c0-.181-.074-.217-.294-.217h-5.878c-1.543 0-2.388.543-2.645 1.666-.037.254-.037.58-.037.797 0 .254 0 .544.037.761.073.652.514 1.377 2.278 1.558 1.359.145 3.38.326 4.078.362.314.035.362.233.398.376l.006.023v.543c-.037.181-.11.254-.368.254H23.77c-.22 0-.257.036-.257.254v1.267c0 .218.037.254.257.254h6.062c1.543 0 2.498-.254 2.755-1.522.074-.29.074-.615.074-.87 0-.26-.016-.507-.027-.676a3.903 3.903 0 01-.01-.193zm10.396 0c-.294-1.34-1.359-1.594-2.792-1.739-.236-.022-.602-.05-1.013-.084-.928-.074-2.092-.166-2.55-.242-.294-.036-.367-.18-.367-.362v-.327c.036-.254.146-.362.404-.362h5.767c.22.036.294-.037.294-.218v-1.304c0-.181-.073-.217-.294-.217H36.59c-1.543 0-2.388.543-2.645 1.666-.036.254-.036.58-.036.797 0 .254 0 .544.036.761.11.652.515 1.377 2.278 1.558 1.36.145 3.38.326 4.078.362.294.037.367.254.404.399v.543c-.037.181-.11.254-.367.254h-6.136c-.22 0-.257.036-.257.254v1.267c0 .218.037.254.258.254h6.024c1.543 0 2.498-.254 2.756-1.522.073-.29.073-.615.073-.87 0-.26-.016-.507-.027-.676-.005-.088-.01-.155-.01-.193z" fill="#fff"/></svg>