<svg width="85" height="63" viewBox="0 0 85 63" fill="none" xmlns="http://www.w3.org/2000/svg"><path fill-rule="evenodd" clip-rule="evenodd" d="M72.057.187c2.792.851 5.537 1.384 8.048 2.609 1.575.768 2.903 1.805 3.75 3.345.817 1.487.748 2.94-.227 4.34-.77 1.108-1.832 1.89-3.008 2.544-2.492 1.388-4.995 2.76-7.34 4.38-.938.647-1.87 1.31-2.564 2.222-.156.204-.277.178-.474.095-2.066-.879-4.184-1.622-6.336-2.294.048-.268.296-.22.449-.278 4.11-1.536 8.208-3.097 12.045-5.23.76-.421 1.481-.895 2.148-1.447 1.951-1.614.764-3.86-.835-4.55-.37-.16-.713-.165-1.076.092-8.284 5.861-17.606 9.198-27.673 10.64-12.005 1.718-23.855.956-35.507-2.383-3.868-1.108-7.602-2.54-10.995-4.711C1.563 8.985.722 8.339 0 7.547c1.42.825 2.865 1.596 4.37 2.259 4.374 1.926 8.97 3.113 13.698 3.81 13.268 1.958 26.356 1.036 39.255-2.492 4.495-1.23 8.821-2.9 12.883-5.171.573-.32 1.134-.658 1.618-1.1 1.325-1.214 1.524-2.564.606-4.087-.097-.16-.202-.314-.373-.58z" fill="#fff"/><path fill-rule="evenodd" clip-rule="evenodd" d="M0 36.357c22.677-20.715 60.449-21.16 83.664-.9-.124.093-.196-.027-.267-.078-9.113-6.535-19.281-10.347-30.45-11.525-11.833-1.247-23.193.512-34.035 5.416a59.728 59.728 0 00-11.338 6.722c-.339.255-.671.378-1.102.374-2.121-.02-4.242-.009-6.472-.009zm50.5 26.39c-2.167-.453-4.017-1.466-5.748-2.678-3.465-2.428-6.045-5.545-7.977-9.148-.232-.433-.474-.608-1.01-.591-1.618.05-1.629.025-1.592 1.57.036 1.494.082 2.987.155 4.479.02.394-.087.525-.52.507a29.042 29.042 0 00-2.39 0c-.449.02-.529-.136-.51-.518.173-3.388.23-6.778.138-10.17-.03-1.11-.086-2.218-.13-3.328-.009-.216-.091-.456.306-.447 2.733.065 5.476-.18 8.197.15 1.649.2 3.042.865 3.49 2.536.626 2.332-.645 4.399-2.635 4.858-.343.079-.255.223-.148.425 1.567 2.96 3.457 5.717 5.788 8.203 1.408 1.502 2.952 2.87 4.586 4.152zM34.243 44.68c.008.605-.092 2.986-.091 3.57 0 .183-.027.378.275.369 1.202-.036 2.418.118 3.595-.226 1.225-.359 1.723-1.144 1.568-2.437-.122-1.017-.859-1.653-2.072-1.703-.945-.04-1.895.01-2.842-.008-.36-.006-.437.148-.433.434zm-6.355 4.847c-.027 1.39-.134 2.689-.519 3.95-.71 2.326-2.245 3.56-4.502 3.868-1.379.187-2.751.178-4.117-.116-1.96-.424-3.262-1.659-3.852-3.658-.75-2.541-.754-5.124-.1-7.69.595-2.334 2.057-3.695 4.328-4.068 1.436-.235 2.873-.24 4.297.058 2.163.452 3.46 1.889 4.046 4.096.316 1.189.4 2.409.42 3.56zm-3.147.092c-.006-1.248-.035-2.494-.404-3.697-.355-1.157-1.06-1.948-2.225-2.13-2.755-.43-3.912.61-4.318 2.533-.458 2.17-.468 4.365.023 6.53.42 1.852 1.454 2.586 3.406 2.563 1.808-.023 2.824-.855 3.235-2.654.236-1.033.283-2.087.283-3.145zM9.888 52.947a77.627 77.627 0 00-.003-9.799c-.037-.59.12-.723.696-.707 1.494.043 1.496.014 1.427 1.48-.191 4.044-.158 8.087.049 12.128.025.507-.104.649-.606.617-.775-.048-1.66.199-2.303-.099-.646-.299-.887-1.217-1.301-1.867-1.76-2.762-3.534-5.515-5.405-8.205a.806.806 0 00-.407-.334c0 1.297-.02 2.594.005 3.89.039 2.023.09 4.044.177 6.064.02.466-.11.6-.55.546-.527-.065-1.239.232-1.538-.127-.252-.303-.061-.982-.04-1.494.173-3.984.18-7.968-.047-11.95-.031-.536.11-.71.639-.641.314.04.649.06.955-.002 1.117-.226 1.693.319 2.238 1.231a155.494 155.494 0 005.517 8.556c.165.239.331.476.497.713zm74.178-8.241c-1.448-.678-2.887-.999-4.386-.957a7.04 7.04 0 00-1.236.134c-1.263.263-2.168 1.023-2.548 2.37-.562 1.993-.66 4.019-.105 6.03.508 1.841 1.755 2.84 3.537 2.926.571.028 1.144.038 1.717.035.393-.002.583-.177.57-.666-.04-1.446-.064-2.892-.277-4.323-.057-.384-.031-.537.377-.52.789.03 1.58.011 2.37.007.229-.002.364.028.327.351-.251 2.16-.21 4.33-.164 6.497.009.441-.093.59-.517.57-1.09-.05-2.162.198-3.245.264-1.066.065-2.132.09-3.189-.12-2.297-.456-3.795-1.899-4.463-4.294a12.892 12.892 0 01-.087-6.614c.716-2.91 2.52-4.408 5.586-4.688 1.777-.162 3.55.006 5.322.173.28.026.427.1.418.45-.022.763-.007 1.527-.007 2.375zm-23.591 4.823c.031-2.199-.053-4.395-.168-6.59-.022-.41.067-.546.533-.543 3.24.019 6.478.018 9.717 0 .452-.003.569.118.565.534-.01 1.28.008 1.282-1.352 1.272-1.854-.013-3.708-.014-5.561-.058-.485-.012-.62.12-.616.563a33.59 33.59 0 01-.084 2.635c-.028.42.149.488.544.486 1.875-.009 3.751.007 5.623-.118.505-.034.703.057.687.588-.039 1.21-.007 1.22-1.298 1.18a121.113 121.113 0 00-4.985-.065c-.416.004-.602.075-.583.523.064 1.517.098 3.035.11 4.553.002.428.164.522.595.513 2.258-.049 4.517-.052 6.775-.11.52-.013.636.133.627.594-.024 1.219-.002 1.22-1.293 1.22-3.133 0-6.265-.012-9.397.01-.51.004-.637-.125-.612-.598.115-2.194.197-4.39.173-6.59zm-9.41 4.461c.727-2.167 1.465-4.332 2.178-6.504a192.55 192.55 0 001.417-4.504c.107-.353.246-.536.675-.502.519.04 1.045.027 1.566.005.39-.017.456.075.314.432-.713 1.8-1.406 3.607-2.093 5.416-.99 2.613-1.947 5.237-2.761 7.904-.116.38-.3.491-.699.474-.73-.03-1.465-.04-2.194.003-.488.028-.68-.154-.829-.576-1.471-4.194-2.983-8.375-4.644-12.507-.46-1.14-.457-1.155.835-1.137.767.011 1.727-.296 2.247.122.485.39.517 1.292.74 1.972 1.03 3.14 2.058 6.282 3.086 9.423l.162-.02z" fill="#fff"/></svg>