<svg width="339" height="265" viewBox="0 0 339 265" fill="none" xmlns="http://www.w3.org/2000/svg"><path d="M242.133 265a6.013 6.013 0 01-5.153-2.907l-45.405-75.659-84.829 23.054c-2.703.73-5.566-.493-6.87-2.971L.702 20.135a5.979 5.979 0 01-.032-5.56 6.012 6.012 0 014.533-3.21L89.475.053a6.014 6.014 0 015.948 2.86l101.782 169.572 118.211-32.11-39.473-55.592a5.952 5.952 0 01-.715-5.592 6.007 6.007 0 014.23-3.718l55.312-13.044a5.999 5.999 0 016.06 2.081l47.853 59.691a5.988 5.988 0 011.018 5.609 5.964 5.964 0 01-4.135 3.924l-50.414 13.695 43.957 61.9a5.97 5.97 0 01.827 5.29 6.032 6.032 0 01-3.737 3.845l-132.078 46.202a6.127 6.127 0 01-1.988.334zm-38.519-81.839l41.159 68.557 119.928-41.96-41.89-58.992-119.197 32.395zM15.349 22.121l92.86 174.529 76.941-20.908-97.997-163.28-71.804 9.66zm275.528 62.964l36.88 51.922 45.834-12.456-39.759-49.602-42.955 10.136z" fill="#05242F"/></svg>