<svg width="40" height="40" viewBox="0 0 40 40" fill="none" xmlns="http://www.w3.org/2000/svg"><path d="M14.177 20.604c-.49.91.066 1.345 1.337 2.088 1.08.63 2.572.86 3.53.952l-3.777 3.429c-1.099.994.67 2.59 1.77 1.617l2.973-2.707a558.941 558.941 0 012.974 2.71c1.1.977 2.869-.605 1.781-1.616l-3.789-3.43c.97-.091 2.44-.335 3.508-.951v-.001c1.27-.747 1.826-1.181 1.343-2.09-.292-.517-1.08-.95-2.127-.203 0 0-1.416 1.024-3.698 1.024-2.284 0-3.698-1.023-3.698-1.023-1.048-.751-1.838-.315-2.127.201z" fill="#fff"/><path d="M20 20c2.753 0 5-2.238 5-4.994A5.007 5.007 0 0020 10c-2.753 0-5 2.239-5 5.006A5.004 5.004 0 0020 20zm0-7.464a2.464 2.464 0 010 4.928 2.462 2.462 0 01-2.455-2.458A2.463 2.463 0 0120 12.536z" fill="#fff"/></svg>