<svg width="203" height="49" viewBox="0 0 203 49" fill="none" xmlns="http://www.w3.org/2000/svg"><path fill-rule="evenodd" clip-rule="evenodd" d="M36.19.974L24.367 12.815l-6.16 6.17 5.741 5.75 11.825-11.842 11.825 11.842-5.665 5.671 6.084 6.093L59.84 24.657 36.19.974z" fill="#fff"/><path fill-rule="evenodd" clip-rule="evenodd" d="M36.19 24.657L24.367 36.499 12.542 24.657l5.663-5.673-6.082-6.09L.298 24.733l23.65 23.683 11.824-11.842 6.16-6.17-5.741-5.749v.001zm34.124 2.54c.66 0 1.203-.093 1.614-.295.8-.365 1.164-1.143 1.164-2.192 0-.869-.341-1.639-1.094-2.097-.434-.248-.978-.342-1.73-.342h-.66v4.927h.706zm-3.826-7.459h3.92c1.365 0 2.506.187 3.39.637 1.637.778 2.53 2.262 2.53 4.336 0 1.757-.753 3.63-2.988 4.492-.846.318-1.885.52-3.212.52H69.6v5.043h-3.12V19.739h.01-.002zm19.88 8.85l-.886-2.533a41.142 41.142 0 01-.683-2.238h-.046c-.116.53-.34 1.166-.752 2.262l-.907 2.51h3.274zm-2.91-8.92h2.53l6.129 15.098h-3.353l-1.459-3.676H82.21l-1.39 3.676h-3.211l5.85-15.098zm14.796 6.892c.683 0 1.117-.116 1.505-.318.59-.365 1.001-.979 1.001-1.827 0-.8-.365-1.483-1.024-1.825-.342-.21-.768-.319-1.46-.319H97.09v4.29h1.164zm-4.283-6.822h4.484c1.343 0 2.343.203 3.143.567 1.731.754 2.39 2.192 2.39 3.784 0 1.958-1.226 3.334-2.917 3.855v.047c.457.248 1.116 1.071 1.916 2.463l2.436 4.312h-3.577l-1.978-3.605c-.753-1.415-1.28-1.982-1.637-2.075H97.09v5.68h-3.12V19.739z" fill="#fff"/><path d="M110.893 19.738h-3.119v15.028h3.119V19.739z" fill="#fff"/><path fill-rule="evenodd" clip-rule="evenodd" d="M117.294 22.388h-4.375v-2.65h12.251l-.823 2.65h-3.933v12.378h-3.12V22.388zm9.629-2.65h8.675l-.823 2.65h-4.733v3.466h4.756v2.618h-4.756v3.652h5.532v2.642h-8.651V19.739zm14.595 2.65h-4.368v-2.65h12.242l-.815 2.65h-3.941v12.378h-3.118V22.388zm13.756 10.963c2.025 0 3.367-.8 3.367-2.804 0-1.686-1.249-2.759-3.165-2.759h-2.437v5.564h2.235zm-.597-6.977c2.001 0 3.071-.979 3.071-2.65 0-1.499-.868-2.58-3.009-2.58h-1.707v5.223h1.645v.007zm-3.322-6.636h3.485c3.188 0 4.6 1.757 4.6 3.808 0 1.53-.752 2.735-1.978 3.264v.046c1.684.366 2.918 1.756 2.918 3.652 0 2.533-1.778 4.265-5.106 4.265h-3.919V19.738zm19.103 9.581l-1.552-4.336c-.481-1.32-.706-2.028-.892-2.595h-.047a96.404 96.404 0 01-.907 2.595l-1.575 4.336h4.973zm-3.049-9.627h1.163l5.742 15.074h-1.824l-1.481-4.033h-6.037l-1.481 4.033h-1.778l5.696-15.074zm19.987 15.074l-7.193-9.534a83.038 83.038 0 01-2.118-2.898h-.046c.046.753.069 1.39.069 2.571v9.853h-1.684v-15.02h1.615l6.92 9.169c.746.998 1.476 2.008 2.188 3.03h.047c-.047-.8-.047-1.46-.047-2.641v-9.558h1.66v15.028h-1.411zm5.105-15.027h1.684v6.884h.046l5.695-6.885h2.002l-6.238 7.436 6.641 7.592h-2.11l-5.99-6.861h-.046v6.86h-1.684V19.739z" fill="#fff"/></svg>