<svg width="272" height="248" viewBox="0 0 272 248" fill="none" xmlns="http://www.w3.org/2000/svg"><g opacity=".6" fill="#F2F2F2"><path d="M313.738 0H48.245C21.643 0 0 21.643 0 48.245v217.831c0 26.602 21.643 48.245 48.245 48.245h265.493c26.602 0 48.245-21.643 48.245-48.245V48.245C361.983 21.643 340.34 0 313.738 0zm27.035 266.077c0 14.907-12.128 27.034-27.035 27.034H48.245c-14.906 0-27.035-12.127-27.035-27.034V48.245c0-14.907 12.128-27.035 27.035-27.035h265.493c14.907 0 27.035 12.128 27.035 27.035v217.832z"/><path d="M191.596 162.104V53.024c0-5.856-4.748-10.604-10.605-10.604s-10.605 4.748-10.605 10.605v109.079c-12.574 4.395-21.622 16.371-21.622 30.426 0 14.056 9.048 26.031 21.622 30.427v38.34c0 5.856 4.748 10.605 10.605 10.605s10.605-4.749 10.605-10.605v-38.34c12.575-4.396 21.622-16.371 21.622-30.427 0-14.055-9.047-26.03-21.622-30.426zm-10.595 41.444l-.01-.001-.01.001c-6.07-.006-11.007-4.946-11.007-11.018 0-6.075 4.943-11.017 11.017-11.017 6.075 0 11.017 4.943 11.017 11.017 0 6.072-4.936 11.012-11.007 11.018zM99.333 91.358V53.025c0-5.857-4.748-10.605-10.605-10.605s-10.605 4.748-10.605 10.605v38.333c-12.575 4.396-21.622 16.371-21.622 30.426s9.048 26.03 21.622 30.426v109.087c0 5.856 4.748 10.605 10.605 10.605s10.605-4.749 10.605-10.605V152.21c12.575-4.395 21.622-16.37 21.622-30.426 0-14.056-9.047-26.03-21.622-30.426zm-10.605 41.443c-6.075 0-11.017-4.943-11.017-11.017 0-6.072 4.939-11.013 11.01-11.017h.015c6.072.003 11.01 4.944 11.01 11.017 0 6.075-4.943 11.017-11.018 11.017zM283.86 91.358V53.025c0-5.857-4.748-10.605-10.605-10.605s-10.605 4.748-10.605 10.605v38.333c-12.575 4.396-21.622 16.371-21.622 30.426s9.047 26.03 21.622 30.426v109.087c0 5.856 4.748 10.605 10.605 10.605s10.605-4.749 10.605-10.605V152.21c12.575-4.395 21.622-16.37 21.622-30.426 0-14.056-9.047-26.03-21.622-30.426zm-10.605 41.443c-6.075 0-11.017-4.943-11.017-11.017 0-6.072 4.938-11.013 11.01-11.017h.014c6.072.003 11.01 4.944 11.01 11.017 0 6.075-4.942 11.017-11.017 11.017z"/></g></svg>