<svg width="303" height="236" viewBox="0 0 303 236" fill="none" xmlns="http://www.w3.org/2000/svg"><g opacity=".6" fill="#F2F2F2"><path d="M116.367 66.511l-61.39 61.391c-4.142 4.142-4.142 10.856 0 14.998l55.428 55.428c4.141 4.142 10.856 4.143 14.998 0 4.141-4.141 4.141-10.855 0-14.997l-47.93-47.93 53.892-53.893c4.141-4.141 4.141-10.856 0-14.997-4.142-4.142-10.857-4.142-14.998 0zm135.211 0c-4.141-4.141-10.856-4.141-14.997 0-4.142 4.142-4.142 10.857 0 14.998l47.929 47.93-53.892 53.893c-4.141 4.141-4.141 10.856 0 14.997 4.141 4.142 10.856 4.142 14.998 0l61.391-61.391c4.141-4.141 4.141-10.856 0-14.997l-55.429-55.43zm-39.203-23.485c-5.525-1.952-11.581.946-13.532 6.468l-56.077 158.79c-1.95 5.523.945 11.58 6.468 13.531 5.521 1.95 11.581-.945 13.531-6.468l56.078-158.79c1.95-5.523-.946-11.581-6.468-13.531z"/><path d="M310.751 0H51.231C22.983 0 0 22.982 0 51.232v162.376c0 28.25 22.982 51.232 51.232 51.232H310.75c28.25 0 51.232-22.982 51.232-51.232V51.232C361.983 22.982 339.001 0 310.751 0zm30.022 213.608c0 16.554-13.468 30.022-30.022 30.022H51.231c-16.553 0-30.021-13.468-30.021-30.022V51.232c0-16.554 13.468-30.022 30.022-30.022H310.75c16.554 0 30.022 13.468 30.022 30.022v162.376z"/></g></svg>