<svg width="289" height="292" viewBox="0 0 289 292" fill="none" xmlns="http://www.w3.org/2000/svg"><g opacity=".6"><path d="M62.931 310.56c29.896 8.014 60.734-9.789 68.742-39.688 8.027-29.967-9.727-60.724-39.697-68.757-29.896-8.015-60.734 9.789-68.741 39.688-8.027 29.967 9.726 60.724 39.696 68.757zm-19.21-63.265c4.983-18.6 24.167-29.677 42.768-24.691 18.642 4.997 29.69 24.13 24.696 42.775-4.982 18.602-24.167 29.678-42.767 24.692-18.643-4.997-29.69-24.13-24.697-42.776z" fill="#F2F2F2"/><path d="M100.138 45.908l20.864 9.6a17.503 17.503 0 0011.164 1.173l22.404-5.052-2.682 22.81 9.435 1.11-9.435-1.11a17.507 17.507 0 002.334 10.98l11.727 19.746-22.522 4.498a17.499 17.499 0 00-9.72 5.613l-15.157 17.255-11.237-20.029a17.502 17.502 0 00-8.342-7.511l-21.095-9.083 15.577-16.877-6.82-6.295 6.82 6.295a17.5 17.5 0 004.566-10.254l2.119-22.869zm67.889 58.842l-.002.001.002-.001z" stroke="#F2F2F2" stroke-width="19"/><path d="M308.224 77.264c-29.896-8.014-60.735 9.79-68.741 39.688-8.027 29.967 9.726 60.724 39.696 68.757 29.896 8.014 60.734-9.789 68.742-39.688 8.027-29.966-9.727-60.724-39.697-68.757zm19.21 63.264c0 .001 0 .001 0 0-4.982 18.603-24.168 29.678-42.767 24.692-18.643-4.997-29.691-24.13-24.697-42.776 4.983-18.601 24.167-29.677 42.767-24.691 18.643 4.997 29.691 24.13 24.697 42.775zM193.798 287.526c-8.009 29.898 9.799 60.742 39.696 68.757 29.896 8.013 60.734-9.79 68.742-39.688 8.008-29.898-9.8-60.742-39.697-68.756-29.896-8.016-60.734 9.788-68.741 39.687zm87.95 23.577c-4.982 18.601-24.167 29.677-42.766 24.691-18.6-4.987-29.679-24.176-24.697-42.776 4.982-18.6 24.166-29.678 42.766-24.692 18.601 4.986 29.68 24.176 24.697 42.777zm-211.14-182.68c-5.31-2.475-11.619-.178-14.093 5.13a142.947 142.947 0 00-12.875 48.072c-.511 5.835 3.805 10.98 9.639 11.492 5.835.512 10.978-3.804 11.489-9.639a121.798 121.798 0 0110.97-40.96c2.476-5.309.178-11.619-5.13-14.095zm229.94 130.978c5.313 2.477 11.62.174 14.092-5.13a142.952 142.952 0 0012.876-48.072c.511-5.835-3.805-10.98-9.639-11.492-5.835-.512-10.979 3.803-11.489 9.639a121.812 121.812 0 01-10.971 40.96c-2.476 5.309-.178 11.619 5.131 14.095zm-125.381 55.331a121.794 121.794 0 01-40.957-10.979c-5.309-2.475-11.616-.178-14.092 5.131-2.475 5.308-.177 11.619 5.132 14.093a142.942 142.942 0 0048.07 12.886c5.838.511 10.979-3.807 11.488-9.64.51-5.835-3.806-10.98-9.641-11.491zM236.946 84.07c5.307 2.476 11.616.181 14.092-5.13 2.474-5.308.176-11.619-5.133-14.093a142.94 142.94 0 00-48.069-12.886c-5.835-.511-10.979 3.804-11.489 9.64-.51 5.835 3.806 10.98 9.641 11.491a121.8 121.8 0 0140.958 10.979z" fill="#F2F2F2"/></g></svg>