<svg width="267" height="263" viewBox="0 0 267 263" fill="none" xmlns="http://www.w3.org/2000/svg"><g opacity=".56" fill="#F2F2F2"><path d="M351.395 90.261H238.574V10.605C238.574 4.748 233.825 0 227.968 0H10.606C4.748 0 0 4.748 0 10.605v180.522c0 5.857 4.748 10.605 10.605 10.605h112.821v79.663c0 5.857 4.749 10.605 10.606 10.605h217.363c5.857 0 10.605-4.748 10.605-10.605V100.866c0-5.857-4.748-10.605-10.605-10.605zM21.211 21.21h196.152v159.312H21.211V21.21zm319.578 249.58H144.637v-69.058h83.331c5.857 0 10.606-4.748 10.606-10.605v-79.656h102.215V270.79z"/><path d="M75.268 90.26H56.626c-5.857 0-10.605 4.749-10.605 10.606 0 5.856 4.748 10.604 10.605 10.604h44.246c5.879 0 10.605-4.798 10.605-10.604V56.623c0-5.857-4.748-10.605-10.605-10.605s-10.606 4.748-10.606 10.605v18.64l-29.74-29.738c-4.141-4.141-10.856-4.141-14.998 0-4.142 4.141-4.142 10.856 0 14.998l29.74 29.738z"/></g></svg>