<svg width="291" height="262" viewBox="0 0 291 262" fill="none" xmlns="http://www.w3.org/2000/svg"><g opacity=".6" fill="#F2F2F2"><path d="M45.385 261.589h271.212c25.026 0 45.386-20.359 45.386-45.385V45.386C361.983 20.359 341.623 0 316.598 0H45.385C20.36 0 0 20.36 0 45.385v170.819c0 25.026 20.36 45.385 45.385 45.385zm271.213-21.21H45.385c-13.33 0-24.175-10.844-24.175-24.175V148.47h319.563v67.734c0 13.331-10.845 24.175-24.175 24.175zM21.21 106.05h319.563v21.21H21.21v-21.21zm24.175-84.84h271.212c13.331 0 24.176 10.845 24.176 24.175V84.84H21.21V45.385c0-13.33 10.845-24.175 24.175-24.175z"/><path d="M53.025 63.631h62.784c5.857 0 10.605-4.748 10.605-10.605s-4.748-10.605-10.605-10.605H53.025c-5.857 0-10.605 4.748-10.605 10.605s4.748 10.605 10.605 10.605zm255.933 120.188H53.025c-5.857 0-10.605 4.749-10.605 10.605 0 5.857 4.748 10.605 10.605 10.605h255.933c5.857 0 10.605-4.748 10.605-10.605 0-5.856-4.748-10.605-10.605-10.605z"/></g></svg>