<svg width="14" height="14" viewBox="0 0 14 14" fill="none" xmlns="http://www.w3.org/2000/svg"><path d="M290.663.314a.564.564 0 011.011 0l1.846 3.538a.58.58 0 00.399.304l3.789.741c.449.088.626.66.313 1.006l-2.648 2.928a.62.62 0 00-.153.492l.496 3.996c.059.473-.406.826-.818.622l-3.483-1.729a.554.554 0 00-.494 0l-3.482 1.729c-.412.204-.877-.149-.818-.622l.496-3.996a.62.62 0 00-.153-.492l-2.648-2.928c-.314-.346-.136-.918.312-1.006l3.789-.741a.58.58 0 00.4-.304l1.846-3.538zm15.744 0a.565.565 0 011.012 0l1.845 3.538a.58.58 0 00.4.304l3.789.741c.448.088.626.66.313 1.006l-2.649 2.928a.616.616 0 00-.152.492l.496 3.996c.058.473-.407.826-.819.622l-3.482-1.729a.554.554 0 00-.494 0l-3.483 1.729c-.411.204-.877-.149-.818-.622l.496-3.996a.624.624 0 00-.152-.492l-2.649-2.928c-.313-.346-.135-.918.313-1.006l3.789-.741a.576.576 0 00.399-.304l1.846-3.538zm15.745 0a.564.564 0 011.011 0l1.846 3.538a.58.58 0 00.399.304l3.789.741c.449.088.626.66.313 1.006l-2.648 2.928a.62.62 0 00-.153.492l.496 3.996c.059.473-.406.826-.818.622l-3.483-1.729a.554.554 0 00-.494 0l-3.482 1.729c-.412.204-.877-.149-.818-.622l.496-3.996a.62.62 0 00-.153-.492l-2.648-2.928c-.313-.346-.136-.918.312-1.006l3.789-.741a.58.58 0 00.4-.304l1.846-3.538zM6.505.314a.564.564 0 011.011 0l1.846 3.538c.083.159.23.27.4.304l3.789.741c.448.088.626.66.312 1.006l-2.648 2.928a.62.62 0 00-.153.492l.497 3.996c.058.473-.407.826-.819.622l-3.482-1.729a.554.554 0 00-.494 0l-3.484 1.73c-.412.204-.877-.149-.818-.622l.496-3.996a.62.62 0 00-.153-.492L.158 5.903c-.313-.346-.136-.918.313-1.006l3.789-.741a.578.578 0 00.4-.304L6.504.314zm347.136 0a.564.564 0 011.011 0l1.846 3.538a.58.58 0 00.399.304l3.789.741c.449.088.626.66.313 1.006l-2.648 2.928a.62.62 0 00-.153.492l.496 3.996c.059.473-.406.826-.818.622l-3.483-1.729a.554.554 0 00-.494 0l-3.482 1.729c-.412.204-.877-.149-.818-.622l.496-3.996a.62.62 0 00-.153-.492l-2.648-2.928c-.313-.346-.136-.918.312-1.006l3.789-.741a.58.58 0 00.4-.304l1.846-3.538z" fill="#fff"/></svg>