<svg width="64" height="63" viewBox="0 0 64 63" fill="none" xmlns="http://www.w3.org/2000/svg"><g clip-path="url(#clip0)"><path d="M63.902 0h-63v63h63V0z" fill="#fff"/><path d="M46.81 55.067c-.165 0-.392 0-.577-.186-.188-.187-.188-.413-.188-.579v-5.58c0-.257.005-.368.093-.534.105-.19.312-.303.556-.303.243 0 .45.113.554.301.089.168.093.278.093.536v5.165h2.283c.235 0 .355.011.486.083a.57.57 0 01.279.508.572.572 0 01-.277.505c-.133.073-.253.084-.488.084H46.81zm-36.325.039c-.243 0-.45-.113-.554-.303-.089-.166-.092-.277-.092-.534v-5.166H8.666c-.227 0-.35-.008-.487-.083a.57.57 0 01-.277-.507.57.57 0 01.275-.505c.134-.073.254-.085.489-.085h3.64c.235 0 .355.012.486.084.175.1.278.29.278.507a.57.57 0 01-.275.505c-.134.073-.253.084-.488.084h-1.173v5.166c0 .257-.004.369-.093.534-.105.19-.312.303-.556.303zm4.266 0c-.244 0-.452-.113-.556-.303-.089-.166-.092-.277-.092-.534v-5.547c0-.257.003-.367.091-.534a.619.619 0 01.557-.303c.243 0 .45.113.554.301.09.168.093.279.093.536v5.547c0 .257-.003.369-.092.534-.104.19-.312.303-.555.303zm6.922 0c-.353 0-.505-.271-.627-.49l-1.634-2.878-1.032 1.24v1.29c0 .257-.003.368-.092.534-.104.19-.312.303-.556.303a.618.618 0 01-.555-.302c-.088-.167-.092-.278-.092-.535v-5.547c0-.257.003-.368.091-.534a.617.617 0 01.556-.303c.244 0 .45.113.556.302.089.167.092.278.092.535v2.42l2.388-2.896c.17-.205.32-.36.576-.36.149 0 .289.051.405.15.15.126.233.294.233.473 0 .185-.08.313-.261.53l-1.412 1.704 1.844 3.242c.122.213.176.323.181.488.007.225-.106.417-.317.543a.656.656 0 01-.344.09zm6.409 0c-.354 0-.506-.271-.628-.49l-1.634-2.878-1.031 1.24v1.29c0 .257-.003.368-.092.534-.105.19-.313.303-.556.303-.243 0-.452-.113-.555-.302-.09-.167-.093-.278-.093-.535v-5.547c0-.257.004-.368.093-.534.104-.19.312-.303.555-.303.243 0 .45.113.555.302.09.167.093.278.093.535v2.42l2.387-2.896c.171-.205.321-.36.577-.36.147 0 .287.051.405.15.15.127.232.295.232.473 0 .185-.08.313-.26.53l-1.413 1.704 1.846 3.242c.12.213.174.323.18.488.007.224-.105.417-.317.543a.652.652 0 01-.345.09zm11.2-4.084c.646 0 1.047-.364 1.047-.95 0-.597-.4-.969-1.046-.969h-1.425v1.919h1.425zm1.714 4.084c-.352 0-.505-.271-.627-.49l-1.4-2.453h-1.11v2.105c0 .257-.004.368-.092.534-.105.19-.312.303-.556.303-.244 0-.451-.113-.555-.302-.089-.168-.093-.278-.093-.535v-5.58c0-.165 0-.392.187-.578.187-.188.413-.188.578-.188h2.033c1.354 0 2.264.86 2.264 2.14 0 .908-.484 1.608-1.305 1.902l1.157 2.02c.122.213.176.323.182.488.006.224-.107.417-.318.544a.66.66 0 01-.345.09zm2.715 0c-.243 0-.451-.113-.555-.303-.089-.165-.092-.277-.092-.534v-5.547c0-.257.003-.368.092-.534.105-.19.312-.303.556-.303.243 0 .45.113.554.301.09.169.093.279.093.536v5.547c0 .257-.003.368-.092.534-.104.19-.312.303-.556.303zm11.192-2.564l-.923-2.526-.926 2.526h1.85zm1.36 2.564a.57.57 0 01-.365-.13c-.124-.1-.177-.214-.265-.45l-.313-.844h-2.683l-.314.844c-.087.236-.14.35-.266.451a.569.569 0 01-.364.129.659.659 0 01-.473-.194c-.265-.273-.152-.578-.06-.822l2.11-5.62c.076-.206.136-.307.24-.406a.638.638 0 01.47-.18c.189 0 .338.058.468.18.103.099.163.2.238.407l2.112 5.619c.09.243.205.548-.063.824a.66.66 0 01-.472.192zm-23.873.02c-1.504 0-2.595-1.055-2.595-2.508v-3.896c0-.257.004-.368.093-.534.105-.19.312-.303.556-.303.242 0 .45.113.554.301.09.168.094.279.094.536v3.848c0 .847.497 1.376 1.298 1.376.8 0 1.297-.529 1.297-1.376v-3.848c0-.257.004-.367.093-.534a.616.616 0 01.555-.303c.243 0 .452.113.555.301.09.168.093.279.093.536v3.896c0 1.453-1.09 2.508-2.593 2.508zm12.755-18.037l-.613 3.168c-.121.632-.748 1.148-1.39 1.148h-21.48c-.642 0-1.27-.516-1.39-1.148l-.708-3.66 25.581.492zm-25.582-.491L16.166 19.25c1.639-.714 3.532.42 3.755 2.257.07.572-.01 1.125-.203 1.629a3.352 3.352 0 01.676 6.666c-.594.072-.936-.012-1.448-.226.004.177.02.354.041.532.43 3.485 2.723 4.974 6.236 4.974 3.076 0 6.332-1.938 6.332-5.448a5.88 5.88 0 00-.033-.71 3.384 3.384 0 01-1.932.606 3.353 3.353 0 01-.14-6.704 3.353 3.353 0 116.304-1.589 3.34 3.34 0 01-.404 1.59 3.355 3.355 0 01-.14 6.704 3.338 3.338 0 01-1.923-.61 6.678 6.678 0 00-.037.713c0 3.51 3.111 5.448 6.353 5.448 3.512 0 5.785-1.522 6.214-5.003.02-.173.042-.347.05-.516-.513.203-.855.286-1.433.211a3.352 3.352 0 01.673-6.667 3.344 3.344 0 01-.202-1.626c.226-1.84 1.918-2.847 3.733-2.257l-3.493 17.864" fill="#011C26"/></g><defs><clipPath id="clip0"><path fill="#fff" transform="translate(.902)" d="M0 0h63v63H0z"/></clipPath></defs></svg>