<svg width="71" height="125" viewBox="0 0 71 125" fill="none" xmlns="http://www.w3.org/2000/svg"><path opacity=".5" d="M2.712 105.264L3.744 97.2h7.296v1.248H4.824l-.72 5.472a5.93 5.93 0 011.656-.216c1.568 0 2.84.464 3.816 1.392.992.944 1.488 2.176 1.488 3.696 0 1.648-.504 2.96-1.512 3.936-1.024.992-2.256 1.488-3.696 1.488-.992 0-1.92-.232-2.784-.696a5.014 5.014 0 01-1.992-1.968l.744-.888c.416.72.992 1.288 1.728 1.704.752.4 1.528.6 2.328.6 1.104 0 2.024-.384 2.76-1.152.736-.784 1.104-1.776 1.104-2.976 0-1.168-.416-2.12-1.248-2.856-.816-.768-1.896-1.152-3.24-1.152-.944 0-1.792.144-2.544.432zm25.15-2.064h1.416L24.91 114c-.784 1.904-1.464 3.168-2.04 3.792-.576.672-1.248 1.008-2.016 1.008-.592 0-1.208-.184-1.848-.552l.408-.96c.496.24.92.36 1.272.36.544 0 1.032-.24 1.464-.72.432-.464.88-1.248 1.344-2.352l.24-.576-5.328-10.8h1.488l3.696 7.632.768 1.68c.016-.064.216-.64.6-1.728l2.904-7.584zm11.781 8.52l.408.96c-.976 1.024-2.304 1.536-3.984 1.536-1.728 0-3.112-.512-4.152-1.536-1.056-1.024-1.584-2.384-1.584-4.08 0-1.632.48-2.976 1.44-4.032.976-1.056 2.32-1.584 4.032-1.584 1.392 0 2.56.448 3.504 1.344.928.88 1.392 2.056 1.392 3.528 0 .384-.024.72-.072 1.008h-8.904c.048 1.296.472 2.32 1.272 3.072.8.736 1.848 1.104 3.144 1.104 1.504 0 2.672-.44 3.504-1.32zm-3.96-7.56c-1.152 0-2.088.336-2.808 1.008-.704.672-1.112 1.56-1.224 2.664h7.776c-.016-1.136-.36-2.032-1.032-2.688-.672-.656-1.576-.984-2.712-.984zm8.338.84l-.336-1.032c1.072-.656 2.216-.984 3.432-.984 1.408 0 2.424.352 3.048 1.056.64.704.96 1.792.96 3.264V114h-1.248v-1.656c-.88 1.2-2.112 1.8-3.696 1.8-1.008 0-1.816-.288-2.424-.864-.608-.592-.912-1.376-.912-2.352 0-1.056.384-1.88 1.152-2.472.752-.592 1.736-.888 2.952-.888s2.192.272 2.928.816c0-1.12-.08-1.976-.24-2.568-.128-.576-.392-.984-.792-1.224-.384-.24-.984-.384-1.8-.432-.976 0-1.984.28-3.024.84zm2.544 7.968c1.344 0 2.448-.568 3.312-1.704v-1.8c-.784-.576-1.72-.864-2.808-.864-.816 0-1.504.2-2.064.6-.56.4-.84.952-.84 1.656 0 .64.224 1.152.672 1.536.448.384 1.024.576 1.728.576zM55.95 114H54.7v-10.8h1.248v1.44c.72-1.088 1.688-1.632 2.904-1.632.752 0 1.312.136 1.68.408l-.432 1.176a2.937 2.937 0 00-1.512-.408c-1.072 0-1.952.584-2.64 1.752V114zm12.242-2.832c0-.496-.208-.896-.624-1.2-.4-.304-.896-.544-1.488-.72a44.633 44.633 0 01-1.752-.576 3.811 3.811 0 01-1.512-1.032c-.4-.48-.6-1.08-.6-1.8 0-.864.32-1.552.96-2.064.64-.528 1.48-.792 2.52-.792 1.488 0 2.616.4 3.384 1.2l-.528.936c-.736-.688-1.68-1.032-2.832-1.032-.64 0-1.168.168-1.584.504-.4.32-.6.728-.6 1.224 0 .512.2.936.6 1.272.416.32.912.576 1.488.768a38.18 38.18 0 011.776.576 3.523 3.523 0 011.488.984c.416.448.624 1.016.624 1.704 0 .976-.368 1.736-1.104 2.28-.72.544-1.648.816-2.784.816-.704 0-1.44-.16-2.208-.48-.72-.304-1.216-.664-1.488-1.08l.696-.816c.304.368.76.672 1.368.912.624.24 1.216.36 1.776.36.704 0 1.28-.168 1.728-.504.464-.352.696-.832.696-1.44z" fill="#fff"/><path d="M37.5 63.052c-16.152 0-29.432-13.4-29.432-29.552 0-3.35.598-6.58 1.675-9.691l17.228 33.5c.24.479.479.837 1.077.837s.838-.358 1.077-.837l8.016-17.827c.12-.24.24-.359.359-.359.24 0 .24.24.359.36l8.136 17.826c.239.479.478.837 1.076.837.599 0 .838-.358 1.077-.837l17.229-33.5a28.419 28.419 0 011.675 9.691c-.12 16.152-13.4 29.552-29.552 29.552zm0-37.21c-.24 0-.24-.238-.359-.358L27.93 5.624a28.242 28.242 0 019.57-1.677c3.35 0 6.58.598 9.571 1.675l-9.212 19.86c-.12.12-.12.36-.359.36zM27.809 47.38c-.24 0-.24-.24-.359-.36L12.375 18.067c2.632-4.307 6.46-7.896 10.887-10.409L33.911 30.63c.239.478.478.598.837.598h5.504c.359 0 .598-.12.837-.598L51.618 7.657c4.427 2.513 8.255 6.102 10.887 10.41L47.55 47.02c-.12.239-.24.359-.359.359-.24 0-.24-.24-.359-.36l-5.742-12.68c-.239-.48-.478-.599-.837-.599h-5.504c-.359 0-.598.12-.837.599L28.168 47.02c-.12.12-.12.359-.36.359zM37.5 67C56.045 67 71 52.045 71 33.5S56.045 0 37.5 0 4 14.955 4 33.5 18.955 67 37.5 67z" fill="#fff"/></svg>