<svg width="155" height="43" viewBox="0 0 155 43" fill="none" xmlns="http://www.w3.org/2000/svg">
<path d="M74.708 13.3792C74.708 13.1347 74.5449 13.0531 74.3819 13.0531H69.2455C69.0009 13.0531 68.8379 13.2162 68.7563 13.3792L60.8479 33.191C60.6849 33.4356 60.9295 33.7617 61.1741 33.7617H65.8213C66.0658 33.7617 66.2289 33.5986 66.3104 33.354L70.1423 21.7768L70.3869 33.354C70.3869 33.5986 70.55 33.7617 70.713 33.7617H75.1157C75.3602 33.7617 75.6864 33.5171 75.6864 33.191L74.708 13.3792ZM55.63 25.7718H50.9828C50.7383 25.7718 50.6567 25.5272 50.7382 25.2826L51.3905 21.2876C51.3905 21.043 51.6351 20.7985 51.7981 20.7985H56.5269C56.5269 20.7169 56.5269 20.6354 56.5269 20.5539C56.5269 20.3093 56.5269 20.1462 56.5269 19.9016C56.5269 19.657 56.4453 19.494 56.3638 19.2494C56.2823 19.0048 56.2007 18.9233 56.1192 18.6787C56.0377 18.5156 55.8746 18.3526 55.8746 18.1895C55.7116 18.0264 55.63 17.9449 55.467 17.8634C55.3039 17.7819 55.1409 17.6188 54.8963 17.6188C54.6517 17.5373 54.4886 17.5373 54.244 17.5373C53.9994 17.5373 53.8364 17.5373 53.5918 17.5373C53.3472 17.5373 53.1841 17.6188 52.9396 17.6188C52.695 17.7003 52.6134 17.7003 52.3688 17.7819C52.1243 17.8634 52.0427 17.9449 51.8797 18.0264H51.7981C51.5535 18.108 51.3905 17.9449 51.3905 17.7003L51.2274 14.1945C51.1459 13.95 51.309 13.7054 51.472 13.6238C51.6351 13.5423 51.7981 13.4608 52.0427 13.3792C52.2873 13.2977 52.4504 13.2162 52.695 13.1347C52.9396 13.0531 53.1841 12.9716 53.3472 12.8901C53.5103 12.8085 53.8364 12.727 54.081 12.727C54.3256 12.6455 54.6517 12.6455 54.8963 12.564C55.1409 12.564 55.467 12.4824 55.7931 12.4824C56.2823 12.4824 56.7715 12.564 57.1791 12.6455C57.5868 12.727 57.9944 12.8901 58.3205 12.9716C58.6466 13.1347 58.9728 13.2977 59.2989 13.5423C59.5435 13.7869 59.8696 14.0315 60.1142 14.2761C60.3588 14.5207 60.5218 14.8468 60.7664 15.1729C61.011 15.499 61.0925 15.8251 61.2556 16.2328C61.4187 16.5589 61.5002 16.885 61.5002 17.3742C61.5817 17.7003 61.6632 18.108 61.7448 18.5156C61.8263 18.9233 61.8263 19.3309 61.8263 19.657C61.8263 20.0647 61.8263 20.3908 61.8263 20.7985C61.8263 21.2061 61.7448 21.6138 61.6632 22.0214C61.5817 22.4291 61.5002 22.7552 61.4187 23.1628V23.2444C61.2556 24.0596 61.0925 24.7934 60.8479 25.6087C60.6034 26.3425 60.3588 27.0763 60.0326 27.647C59.7065 28.2992 59.3804 28.8699 58.9728 29.4406C58.5651 30.0113 58.239 30.5005 57.7498 30.9082C57.3422 31.3158 56.853 31.7235 56.3638 32.0496C55.8746 32.3757 55.3854 32.7018 54.8147 32.8649C54.244 33.1095 53.7549 33.2725 53.2657 33.354C52.7765 33.7617 52.2873 33.7617 51.7166 33.7617C51.472 33.7617 51.1459 33.7617 50.9013 33.6802C50.6567 33.6802 50.3306 33.5986 50.1675 33.5986C49.923 33.5171 49.6784 33.5171 49.5153 33.4356C49.2707 33.354 49.1077 33.2725 48.9446 33.191C48.7815 33.1095 48.6185 33.0279 48.4554 32.9464C48.2924 32.8649 48.2108 32.7833 48.0478 32.7018C47.8847 32.6203 47.8032 32.3757 47.8847 32.1311L49.3522 28.3807V28.2992C49.5153 28.0546 49.6784 27.9731 49.923 28.0546C50.086 28.1361 50.1675 28.2177 50.3306 28.2992C50.4937 28.3807 50.5752 28.3807 50.8198 28.4623C50.9828 28.5438 51.1459 28.5438 51.3905 28.5438C51.6351 28.5438 51.7166 28.5438 51.9612 28.5438C52.2058 28.5438 52.6134 28.5438 52.7765 28.4623C53.0211 28.3807 53.2657 28.2992 53.4287 28.2177C53.6733 28.0546 53.8364 27.9731 54.081 27.8916C54.3256 27.7285 54.4071 27.647 54.5702 27.4024C54.7332 27.1578 54.8147 27.0763 54.9778 26.8317C55.1409 26.5871 55.2224 26.424 55.3039 26.1794C55.467 25.9348 55.5485 25.6902 55.5485 25.5272L55.63 25.7718ZM85.633 20.6354H89.5464C89.791 20.6354 89.8726 20.88 89.791 21.1246L89.1388 24.8749C89.1388 25.1195 88.8942 25.3641 88.7311 25.3641H84.8177L84.1655 28.9514H88.5681C88.8127 28.9514 88.8942 29.196 88.8127 29.4406L88.1604 33.354C88.1604 33.5986 87.9158 33.8432 87.7528 33.8432H78.3769C78.1323 33.8432 78.0507 33.5986 78.1323 33.354L81.638 13.5423C81.638 13.2977 81.8826 13.0531 82.0457 13.0531H91.177C91.4216 13.0531 91.5031 13.2977 91.4216 13.5423L90.7694 17.4557C90.7694 17.7003 90.5248 17.9449 90.3617 17.9449H86.2037L85.633 20.6354ZM107.646 33.7617H103.651C103.406 33.7617 103.325 33.5171 103.325 33.2725L104.059 27.0763C104.14 26.7501 104.222 26.261 104.222 25.7718L104.303 25.2826L104.385 24.7119L104.303 24.9565L103.977 25.8533L103.896 26.0979C103.733 26.424 103.651 26.7501 103.57 26.9947L101.124 33.0279C101.042 33.2725 100.879 33.354 100.716 33.354H97.3733C97.1287 33.354 97.0472 33.191 97.0472 33.0279L96.8026 26.9947V26.424V25.7718V25.1195V24.4673L96.558 25.3641L96.3134 26.3425L96.0688 27.1578L94.6013 33.354C94.5197 33.5986 94.3567 33.7617 94.1936 33.7617H90.3617H90.2802C90.0356 33.6802 89.9541 33.5171 90.0356 33.191L95.0905 13.3792C95.172 13.1347 95.335 12.9716 95.4981 12.9716H100.227C100.471 12.9716 100.553 13.1347 100.553 13.2977L100.716 19.657C100.716 20.7985 100.798 21.6953 100.798 22.5106V23.2444C100.798 23.5705 100.798 23.9781 100.798 24.3858C100.961 24.0597 101.042 23.652 101.205 23.2444C101.45 22.6736 101.613 22.1029 101.857 21.4507C102.102 20.7985 102.265 20.2278 102.51 19.657L104.956 13.2977C105.037 13.0531 105.2 12.9716 105.363 12.9716H110.092C110.337 12.9716 110.418 13.2162 110.418 13.4608L108.135 33.2725C108.054 33.5171 107.891 33.7617 107.646 33.7617ZM118.245 20.6354H122.158C122.403 20.6354 122.484 20.88 122.403 21.1246L121.751 24.8749C121.751 25.1195 121.506 25.3641 121.343 25.3641H117.43L116.777 28.9514H121.18C121.425 28.9514 121.506 29.196 121.425 29.4406L120.772 33.354C120.772 33.5986 120.528 33.8432 120.365 33.8432H110.989C110.744 33.8432 110.663 33.5986 110.744 33.354L114.25 13.5423C114.25 13.2977 114.495 13.0531 114.658 13.0531H123.789C124.034 13.0531 124.115 13.2977 124.034 13.5423L123.381 17.4557C123.381 17.7003 123.137 17.9449 122.974 17.9449H118.816L118.245 20.6354ZM123.463 33.191L126.969 13.3792C126.969 13.1347 127.213 12.8901 127.376 12.8901H131.942C132.187 12.8901 132.268 13.1347 132.187 13.3792L131.045 20.7169H133.573L134.877 13.4608C134.877 13.2162 135.122 12.9716 135.285 12.9716H139.85C140.095 12.9716 140.176 13.2162 140.095 13.4608L136.589 33.2725C136.589 33.5171 136.345 33.7617 136.181 33.7617H131.616C131.371 33.7617 131.29 33.5171 131.371 33.2725L132.676 25.9348H130.148L128.844 33.354C128.844 33.5986 128.599 33.8432 128.436 33.8432H123.87C123.626 33.6802 123.463 33.5171 123.463 33.191ZM146.943 33.7617H142.378C142.133 33.7617 142.052 33.5171 142.133 33.2725L144.824 18.1895H141.807C141.562 18.1895 141.481 17.9449 141.562 17.7003L142.296 13.4608C142.296 13.2162 142.541 12.9716 142.704 12.9716H154.118C154.363 12.9716 154.444 13.2162 154.363 13.4608L153.629 17.7003C153.629 17.9449 153.384 18.1895 153.221 18.1895H150.123L147.433 33.2725C147.351 33.5171 147.106 33.7617 146.943 33.7617Z" fill="white"/>
<path fill-rule="evenodd" clip-rule="evenodd" d="M19.4308 42.8115C7.77206 42.8115 -0.707043 33.4356 0.434374 21.6953C1.65732 9.95503 11.9301 0.579102 23.6704 0.579102H46.4987L42.7483 21.6953C40.6286 33.2725 31.0896 42.8115 19.4308 42.8115ZM24.5672 13.5422L23.915 15.9881C25.6271 15.9881 27.5838 16.885 28.7253 17.9449C30.1113 19.4939 30.5189 21.6137 30.1113 24.2227C28.9699 30.8266 23.5889 33.8432 17.5557 33.6801H17.3111H17.0665H16.5773H12.9085L13.9684 27.8915H17.6372H18.8602H19.0232C21.143 27.8915 22.529 26.7501 22.8551 24.7934C23.3443 21.4506 20.1646 21.043 17.7187 21.3691C17.5557 21.3691 17.3926 21.3691 17.3111 21.206C17.2296 21.1245 17.148 20.9615 17.2296 20.7984L19.6755 7.6721C19.757 7.42751 20.0831 7.18292 20.3277 7.18292H33.9432L32.8018 13.5422H24.5672Z" fill="white"/>
</svg>
