<svg width="164" height="31" viewBox="0 0 164 31" fill="none" xmlns="http://www.w3.org/2000/svg">
<path d="M4.70217 14.9485L0.418152 30.0207H7.44489L11.7289 14.9485H4.70217Z" fill="white"/>
<path d="M35.1092 24.7556H31.8053V14.9405H35.1092V24.7556ZM37.0852 9.67952H31.8053V2.21997H25.0473V30.0127H37.0892C39.9465 30.0127 41.8672 28.1203 41.8672 25.3014V14.3908C41.8672 11.5719 39.9465 9.67952 37.0892 9.67952H37.0852Z" fill="white"/>
<path d="M54.1027 25.278H51.1624V21.5129H54.0988V25.278H54.1027ZM56.0787 9.67969H45.6612V14.4185H54.0988V17.3512H49.1824C46.3014 17.3512 44.3609 19.2279 44.3609 22.0193V25.3251C44.3609 28.1401 46.2974 30.0364 49.1824 30.0364H60.8607V14.391C60.8607 11.5721 58.94 9.67969 56.0827 9.67969H56.0787Z" fill="white"/>
<path d="M85.5807 9.67969H63.884V30.0168H70.642V14.9406H73.7839V30.0168H80.5024V14.9406H83.6442V30.0168H90.4022V14.391C90.4022 11.5721 88.4657 9.67969 85.5807 9.67969Z" fill="white"/>
<path d="M102.776 18.1875H99.8398V14.4224H102.776V18.1875ZM104.752 9.68361H97.8519C94.9945 9.68361 93.0739 11.576 93.0739 14.3949V25.3172C93.0739 28.1322 94.9945 30.0285 97.8519 30.0285H109.206V25.278H99.8318V21.5953H109.57V14.391C109.57 11.5721 107.633 9.67969 104.748 9.67969L104.752 9.68361Z" fill="white"/>
<path d="M119.07 5.04688H112.312V25.3133C112.312 28.1283 114.233 30.0246 117.09 30.0246H122.228V25.117H119.066V14.9445H122.228V9.67965H119.066V5.04688H119.07Z" fill="white"/>
<path d="M133.997 13.06V30.0207H140.755V14.9446H144.731V9.67969H137.384C135.321 9.67969 133.985 11.0067 133.985 13.0561L133.997 13.06Z" fill="white"/>
<path d="M153.532 9.67969H146.814V25.3094C146.814 27.0683 147.434 30.0207 151.592 30.0207H163.638V9.68361H156.88V24.7597H153.536V9.68361L153.532 9.67969Z" fill="white"/>
<path d="M125.662 30.0207H130.559V25.1562H125.662V30.0207Z" fill="white"/>
<path d="M14.768 0.896973H7.7413L16.0169 30.0206H23.0436L14.768 0.896973Z" fill="white"/>
<path d="M16.9021 27.1036H6.06561V21.9604H16.9021V27.1036Z" fill="white"/>
</svg>
