<svg width="82" height="168" viewBox="0 0 82 168" fill="none" xmlns="http://www.w3.org/2000/svg">
<path d="M0.24763 160.341C-0.116182 160.757 -0.0742636 161.389 0.341259 161.752L7.11258 167.681C7.52811 168.045 8.15988 168.003 8.52369 167.587C8.88751 167.172 8.84559 166.54 8.43007 166.176L2.41111 160.906L7.68104 154.887C8.04485 154.472 8.00294 153.84 7.58741 153.476C7.17189 153.112 6.54011 153.154 6.1763 153.57L0.24763 160.341ZM0.919692 1.99677C53.1161 6.20217 79.125 43.9862 79.125 81.5625C79.125 119.135 53.1226 156.539 0.933795 160.002L1.06621 161.998C54.3774 158.461 81.125 120.115 81.125 81.5625C81.125 43.0138 54.3839 4.29783 1.08031 0.00322992L0.919692 1.99677Z" fill="black"/>
</svg>
