<svg width="82" height="168" viewBox="0 0 82 168" fill="none" xmlns="http://www.w3.org/2000/svg">
<path d="M80.8774 160.341C81.2412 160.757 81.1993 161.389 80.7837 161.752L74.0124 167.681C73.5969 168.045 72.9651 168.003 72.6013 167.587C72.2375 167.172 72.2794 166.54 72.6949 166.176L78.7139 160.906L73.444 154.887C73.0801 154.472 73.1221 153.84 73.5376 153.476C73.9531 153.112 74.5849 153.154 74.9487 153.57L80.8774 160.341ZM80.2053 1.99677C28.0089 6.20217 2 43.9862 2 81.5625C2 119.135 28.0024 156.539 80.1912 160.002L80.0588 161.998C26.7476 158.461 0 120.115 0 81.5625C0 43.0138 26.7411 4.29783 80.0447 0.00322992L80.2053 1.99677Z" fill="black"/>
</svg>
