<svg width="89" height="91" viewBox="0 0 89 91" fill="none" xmlns="http://www.w3.org/2000/svg">
<path fill-rule="evenodd" clip-rule="evenodd" d="M44.4993 0.853699C41.1842 0.853699 37.9599 1.22812 34.8533 1.92061V45.562C34.8533 50.9099 39.1964 55.2715 44.5247 55.2715C49.8504 55.2715 54.1922 50.9099 54.1922 45.5647C54.1922 40.4274 50.1939 36.2107 45.1677 35.8752V28.1035C54.4555 28.4417 61.9293 36.1557 61.9293 45.5647C61.9293 55.187 54.1106 63.0405 44.5247 63.0405C34.9348 63.0405 27.1175 55.187 27.1175 45.562V4.38994C26.0187 4.85831 24.9452 5.37767 23.8932 5.93595V45.562C23.8945 56.9678 33.1636 66.2694 44.5247 66.2694C55.8872 66.2694 65.1522 56.9678 65.1522 45.5647C65.1522 34.3735 56.2361 25.2088 45.1677 24.8639V17.0949C60.495 17.4425 72.8854 30.0978 72.8854 45.5647C72.8854 61.2503 60.1447 74.0384 44.5247 74.0384C28.9007 74.0384 16.1561 61.2503 16.1561 45.562V11.0893C6.29078 19.2797 0 31.6653 0 45.5284C0 70.2016 19.923 90.2085 44.5007 90.2085C69.0823 90.2085 89 70.2016 89 45.5284C89 20.8553 69.0823 0.853699 44.4993 0.853699Z" fill="#E4002B"/>
</svg>
