<svg width="151" height="41" viewBox="0 0 151 41" fill="none" xmlns="http://www.w3.org/2000/svg">
<path d="M14.3824 24.0232L12.8685 11.9117C12.7844 11.3229 12.448 10.8183 11.8592 10.6501C11.2704 10.4819 10.6817 10.566 10.2612 10.9865L1.51394 19.4814C1.34572 19.6496 1.17751 19.9019 1.0934 20.1543C0.841078 20.9953 1.26162 21.8364 2.01859 22.1728C2.1868 22.257 2.35502 22.257 2.52323 22.257H3.95307H5.3829C5.46701 22.257 5.46701 22.257 5.55112 22.257C5.80344 22.3411 5.97166 22.6775 5.88755 22.9298L5.3829 24.2755L0 39.6673H1.0934L6.89684 23.3504C7.14916 22.5093 6.72862 21.6682 5.97165 21.3318C5.80344 21.2477 5.63522 21.2477 5.46701 21.2477H4.12128H3.44842H2.69145C2.60734 21.2477 2.60734 21.2477 2.52323 21.2477C2.27091 21.1636 2.10269 20.8271 2.1868 20.5748C2.1868 20.4907 2.27091 20.4066 2.35502 20.3225L3.36431 19.3132L10.0088 12.921L11.1022 11.8276C11.2704 11.7435 11.4387 11.6594 11.6069 11.7435C11.7751 11.8276 11.9433 11.9958 11.9433 12.164L12.1115 13.7621L13.1208 22.7616L13.289 24.1914C13.289 24.2755 13.289 24.3597 13.289 24.4438C13.2049 24.6961 12.8685 24.8643 12.6162 24.7802C12.5321 24.7802 12.5321 24.6961 12.448 24.6961L11.8592 24.1914L11.3546 23.7709L10.2612 22.9298C10.0929 22.8457 10.0088 22.7616 9.75651 22.6775C8.91543 22.4252 8.07435 22.8457 7.73792 23.6027C7.73792 23.6027 7.73792 23.6027 7.73792 23.6868L2.1027 39.6673H3.1961L8.24257 25.3689L8.74721 24.0232C8.83132 23.7709 9.16775 23.6027 9.42007 23.6868C9.50418 23.6868 9.50418 23.7709 9.58829 23.7709L10.6817 24.6961L11.7751 25.6213C11.9433 25.7054 12.0274 25.7895 12.1956 25.8736C13.0367 26.1259 13.8778 25.7054 14.2142 24.9484C14.3824 24.5279 14.3824 24.2755 14.3824 24.0232Z" fill="white"/>
<path d="M46.5957 39.5833H58.4549L72.3327 0.641357H60.3894L46.5957 39.5833Z" fill="white"/>
<path d="M94.1167 39.5832H105.892L112.032 22.4252C114.471 18.3039 119.433 19.2291 118.508 22.8457L112.62 39.5832H124.9L130.704 23.1822C132.217 19.0609 138.694 18.8085 137.264 23.6868L131.797 39.5832H143.656L150.301 20.743C152.487 14.3508 144.665 5.77183 131.208 15.1919C129.61 10.9024 122.966 8.21096 114.134 14.4349L114.723 11.9117H103.705L94.1167 39.5832Z" fill="white"/>
<path d="M82.0891 11.9116H70.9869L64.4265 30.3312C61.1463 40.6765 71.5757 44.1249 81.5845 36.9757L80.9116 39.5831H91.5092L101.266 11.9116H89.9112L84.1077 27.7239C82.762 31.5928 75.1923 33.7797 76.3698 27.808L82.0891 11.9116Z" fill="white"/>
<path d="M32.7179 13.4257L37.1756 0.641357H25.2323L11.5227 39.5833H22.7091L23.9707 36.4713C24.6436 41.1813 40.1194 45.0503 48.362 28.481C54.8383 16.5377 47.4368 4.67853 32.7179 13.4257ZM36.8392 28.2287C34.6524 30.9202 31.1199 32.35 29.0172 31.0043C26.8304 29.4903 26.9145 26.126 29.1013 22.9299C29.6059 22.173 30.1947 21.416 30.7834 20.9113C32.8861 18.9769 35.2411 18.304 37.1756 19.5656C39.5306 20.9955 39.1101 25.285 36.8392 28.2287Z" fill="white"/>
</svg>
