<svg width="67" height="96" viewBox="0 0 67 96" fill="none" xmlns="http://www.w3.org/2000/svg">
<path d="M49.25 76H63C64.1046 76 65 75.1046 65 74V4C65 2.89543 64.1046 2 63 2H4C2.89543 2 2 2.89543 2 4V74C2 75.1046 2.89543 76 4 76H17.75" stroke="#E4002B" stroke-width="4" stroke-linecap="round"/>
<mask id="path-2-inside-1" fill="white">
<path d="M12 16C12 14.8954 12.8954 14 14 14H53C54.1046 14 55 14.8954 55 16C55 17.1046 54.1046 18 53 18H14C12.8954 18 12 17.1046 12 16Z"/>
</mask>
<path d="M14 18H53V10H14V18ZM53 14H14V22H53V14ZM14 14C15.1046 14 16 14.8954 16 16H8C8 19.3137 10.6863 22 14 22V14ZM51 16C51 14.8954 51.8954 14 53 14V22C56.3137 22 59 19.3137 59 16H51ZM53 18C51.8954 18 51 17.1046 51 16H59C59 12.6863 56.3137 10 53 10V18ZM14 10C10.6863 10 8 12.6863 8 16H16C16 17.1046 15.1046 18 14 18V10Z" fill="#E4002B" mask="url(#path-2-inside-1)"/>
<mask id="path-4-inside-2" fill="white">
<path d="M12 28C12 26.8954 12.8954 26 14 26H53C54.1046 26 55 26.8954 55 28C55 29.1046 54.1046 30 53 30H14C12.8954 30 12 29.1046 12 28Z"/>
</mask>
<path d="M14 30H53V22H14V30ZM53 26H14V34H53V26ZM14 26C15.1046 26 16 26.8954 16 28H8C8 31.3137 10.6863 34 14 34V26ZM51 28C51 26.8954 51.8954 26 53 26V34C56.3137 34 59 31.3137 59 28H51ZM53 30C51.8954 30 51 29.1046 51 28H59C59 24.6863 56.3137 22 53 22V30ZM14 22C10.6863 22 8 24.6863 8 28H16C16 29.1046 15.1046 30 14 30V22Z" fill="#E4002B" mask="url(#path-4-inside-2)"/>
<mask id="path-6-inside-3" fill="white">
<path d="M12 40C12 38.8954 12.8954 38 14 38H53C54.1046 38 55 38.8954 55 40C55 41.1046 54.1046 42 53 42H14C12.8954 42 12 41.1046 12 40Z"/>
</mask>
<path d="M14 42H53V34H14V42ZM53 38H14V46H53V38ZM14 38C15.1046 38 16 38.8954 16 40H8C8 43.3137 10.6863 46 14 46V38ZM51 40C51 38.8954 51.8954 38 53 38V46C56.3137 46 59 43.3137 59 40H51ZM53 42C51.8954 42 51 41.1046 51 40H59C59 36.6863 56.3137 34 53 34V42ZM14 34C10.6863 34 8 36.6863 8 40H16C16 41.1046 15.1046 42 14 42V34Z" fill="#E4002B" mask="url(#path-6-inside-3)"/>
<path d="M33 62L33 92.5M33 92.5L42 83.5M33 92.5L24 83.5" stroke="#E4002B" stroke-width="4" stroke-linecap="round"/>
</svg>
