<svg width="85" height="85" viewBox="0 0 85 85" fill="none" xmlns="http://www.w3.org/2000/svg">
<path d="M8.83737 68.9775L0.491333 52.2854L84.9336 0V30.6839L8.83737 68.9775Z" fill="white"/>
<path d="M16.6925 84.9332L9.57378 70.2049L79.5332 35.1024V59.8951L16.6925 84.9332Z" fill="white"/>
<path d="M11.0362 65.5395L7.36829 58.0085L9.79413 56.8271C10.4596 56.5029 11.1318 56.3633 11.8106 56.4081C12.4878 56.4494 13.109 56.6738 13.6742 57.081C14.2413 57.4832 14.6928 58.0248 15.0288 58.7059L15.1975 59.0524C15.5334 59.7421 15.6883 60.4324 15.6623 61.1235C15.638 61.8094 15.4359 62.4368 15.056 63.0058C14.6779 63.5696 14.1638 64.012 13.5138 64.3328L11.0362 65.5395ZM9.86649 58.526L12.1715 63.2588L12.8026 62.9514C13.3233 62.6978 13.6334 62.3185 13.733 61.8135C13.8309 61.3051 13.7019 60.6853 13.3458 59.9543L13.1871 59.6284C12.8328 58.9009 12.4261 58.4206 11.9671 58.1877C11.5081 57.9548 11.0113 57.9684 10.4768 58.2288L9.86649 58.526Z" fill="#011C26"/>
<path d="M19.3878 58.1827L18.4051 58.6613L19.6999 61.3199L17.8844 62.2041L14.2165 54.6732L17.1803 53.2297C18.0734 52.7947 18.8682 52.6529 19.5648 52.8042C20.2614 52.9556 20.786 53.3933 21.1387 54.1174C21.394 54.6416 21.4987 55.1281 21.4529 55.5771C21.4105 56.0243 21.2155 56.4649 20.8679 56.8987L23.919 59.169L23.9568 59.2466L22.012 60.1938L19.3878 58.1827ZM17.7224 57.2596L18.8707 56.7003C19.2155 56.5324 19.4304 56.3168 19.5155 56.0535C19.6024 55.7851 19.5669 55.4888 19.409 55.1647C19.2511 54.8405 19.0398 54.6299 18.7749 54.5328C18.5083 54.4323 18.2044 54.4651 17.863 54.6314L16.7147 55.1906L17.7224 57.2596Z" fill="#011C26"/>
<path d="M27.9111 53.3723L25.0559 54.7629L25.9301 56.5577L29.3025 54.9152L29.9826 56.3118L24.7947 58.8385L21.1268 51.3075L26.3251 48.7758L27.0078 50.1775L23.625 51.825L24.3984 53.4129L27.2536 52.0223L27.9111 53.3723Z" fill="#011C26"/>
<path d="M34.3146 52.4613L31.8267 53.673L32.0775 55.2915L30.1378 56.2362L29.2319 47.36L30.9388 46.5286L37.3895 52.7043L35.4395 53.654L34.3146 52.4613ZM31.5785 52.0597L33.1975 51.2712L31.1132 49.0546L31.5785 52.0597Z" fill="#011C26"/>
<path d="M36.6595 43.7424L40.8924 48.1633L40.0163 42.1075L42.406 40.9436L46.0739 48.4746L44.2532 49.3614L43.3967 47.6028L41.8192 43.9171L42.6084 50.1625L41.4084 50.7469L36.9702 46.2724L38.9019 49.7919L39.7584 51.5505L37.9429 52.4348L34.275 44.9038L36.6595 43.7424Z" fill="#011C26"/>
<path d="M15.7719 69.2057L20.0049 73.6266L19.1288 67.5708L21.5184 66.4069L25.1863 73.9379L23.3657 74.8247L22.5092 73.0661L20.9317 69.3804L21.7209 75.6258L20.5209 76.2102L16.0826 71.7357L18.0144 75.2552L18.8709 77.0138L17.0554 77.8981L13.3874 70.3671L15.7719 69.2057Z" fill="#011C26"/>
<path d="M30.0304 69.838L27.5425 71.0498L27.7932 72.6683L25.8536 73.6129L24.9477 64.7367L26.6546 63.9054L33.1053 70.0811L31.1553 71.0308L30.0304 69.838ZM27.2943 69.4364L28.9132 68.6479L26.829 66.4314L27.2943 69.4364Z" fill="#011C26"/>
<path d="M34.8536 65.7611L34.5068 66.9411L35.4742 68.9273L33.6587 69.8115L29.9908 62.2805L31.8063 61.3963L33.4236 64.717L33.5886 63.4527L34.0614 60.2979L36.3063 59.2046L35.3838 63.7751L39.9742 66.7356L37.8225 67.7836L34.8536 65.7611Z" fill="#011C26"/>
<path d="M43.5509 61.0452L40.6957 62.4358L41.5699 64.2306L44.9422 62.5881L45.6224 63.9846L40.4345 66.5114L36.7666 58.9804L41.9648 56.4486L42.6475 57.8503L39.2648 59.4979L40.0382 61.0858L42.8933 59.6952L43.5509 61.0452Z" fill="#011C26"/>
<path d="M47.8655 59.6029L46.8827 60.0816L48.1776 62.7402L46.3621 63.6244L42.6941 56.0934L45.6579 54.6499C46.551 54.2149 47.3459 54.0731 48.0424 54.2245C48.739 54.3758 49.2637 54.8136 49.6163 55.5377C49.8716 56.0618 49.9763 56.5484 49.9305 56.9973C49.8881 57.4446 49.6931 57.8851 49.3455 58.3189L52.3967 60.5893L52.4344 60.6669L50.4896 61.6141L47.8655 59.6029ZM46.2 58.6799L47.3483 58.1206C47.6931 57.9526 47.9081 57.737 47.9931 57.4738C48.08 57.2053 48.0445 56.9091 47.8866 56.5849C47.7288 56.2608 47.5174 56.0502 47.2525 55.9531C46.986 55.8525 46.682 55.8854 46.3406 56.0516L45.1923 56.6109L46.2 58.6799Z" fill="#011C26"/>
<path d="M56.1819 56.3652C56.0526 56.0996 55.857 55.9389 55.5951 55.883C55.3367 55.8254 54.9327 55.8324 54.383 55.9039C53.8333 55.9753 53.3724 56.01 53.0002 56.0078C51.7909 56.0038 50.9822 55.5828 50.5741 54.7449C50.3708 54.3276 50.3127 53.9016 50.3995 53.4668C50.4882 53.0269 50.7121 52.6107 51.0713 52.2182C51.4288 51.8222 51.8851 51.489 52.4403 51.2186C52.9816 50.955 53.5131 50.8156 54.0348 50.8004C54.5598 50.7836 55.0287 50.8965 55.4413 51.1393C55.8522 51.3786 56.1693 51.7275 56.3927 52.1861L54.5824 53.0678C54.4329 52.7609 54.2222 52.5692 53.9502 52.4926C53.6817 52.4143 53.3871 52.4533 53.0665 52.6095C52.7423 52.7673 52.5207 52.9649 52.4016 53.2021C52.2842 53.4341 52.2793 53.6605 52.3868 53.8812C52.4808 54.0743 52.6699 54.1998 52.9541 54.2576C53.2365 54.312 53.6793 54.2969 54.2823 54.2123C54.8836 54.1242 55.3985 54.0953 55.827 54.1255C56.8692 54.1981 57.591 54.6465 57.9924 55.4706C58.3131 56.1292 58.3168 56.7674 58.0033 57.3851C57.6898 58.0028 57.1003 58.5224 56.2348 58.9439C55.6245 59.2412 55.0181 59.4021 54.4158 59.4267C53.8152 59.4462 53.2967 59.3276 52.8602 59.0709C52.4255 58.809 52.0872 58.4298 51.8454 57.9333L53.6661 57.0465C53.8626 57.45 54.1113 57.6979 54.4122 57.7902C54.7149 57.8774 55.1008 57.8068 55.5697 57.5784C55.8697 57.4323 56.0749 57.2535 56.1851 57.0419C56.2972 56.8252 56.2961 56.5996 56.1819 56.3652Z" fill="#011C26"/>
</svg>
