<svg width="130" height="63" viewBox="0 0 130 63" fill="none" xmlns="http://www.w3.org/2000/svg">
<path d="M34.9569 11.9275C33.6451 6.2392 30.3656 1.61372 29.9236 0.858398C29.2106 1.91982 26.6013 6.00396 25.261 10.5359C23.8208 15.5865 23.607 20.0689 24.106 24.4832C24.6051 28.8975 26.473 33.4295 26.473 33.4295C27.4711 35.8116 28.9682 38.361 29.9378 39.6138C31.3637 37.7715 34.6432 32.2731 35.6698 25.0968C36.2402 21.109 36.2544 17.6158 34.9569 11.9275ZM29.9236 38.1967C29.2819 36.9935 28.2838 34.702 28.184 31.1621C28.1555 27.7411 29.5386 24.8134 29.9378 24.1998C30.2943 24.8134 31.492 27.3628 31.6346 30.856C31.7202 34.2783 30.5795 36.9694 29.9236 38.1967ZM34.5719 21.5809C34.5291 23.7505 34.2725 26.0406 33.9303 27.4095C34.0586 25.05 33.7734 21.7226 33.2173 19.1251C32.6755 16.5289 31.1356 12.1868 29.895 10.1802C28.7543 12.0919 27.357 15.8459 26.6155 19.101C25.8883 22.3603 25.8598 26.2999 25.8598 27.4818C25.6602 26.4856 25.1754 22.9343 25.318 19.3617C25.4321 16.4155 26.1165 13.39 26.5015 11.9984C27.9559 7.34881 29.5956 4.37568 29.895 3.90379C30.2087 4.37568 32.2763 8.03327 33.3457 11.8807C34.4151 15.7268 34.6289 19.4085 34.5719 21.5809Z" fill="white"/>
<path d="M32.1337 40.9389H22.1954V47.5667C22.2096 47.5582 22.2239 47.5483 22.2239 47.5398C24.5623 45.2129 28.3694 45.2129 30.7078 47.5398C33.0462 49.8681 33.0462 53.6419 30.7078 55.9688C30.6935 55.9787 30.6935 55.9872 30.6793 55.9958C30.6793 55.9972 30.6793 55.9972 30.6793 55.9986C30.665 56.0099 30.6508 56.0184 30.6365 56.0298C28.3123 58.334 25.2467 59.4875 22.1954 59.4875C19.1297 59.4875 16.0641 58.3255 13.7257 56.0014C9.60491 51.9045 9.12011 45.5672 12.257 40.9389C12.6848 40.3139 13.1696 39.7187 13.7257 39.166C16.0641 36.8406 19.1297 35.6785 22.1954 35.6785V19.7388C10.4177 19.7388 0.864319 29.2306 0.864319 40.9389C0.864319 52.6457 10.4177 62.1375 22.1954 62.1375C28.3409 62.1375 33.8732 59.5556 37.7659 55.4275V40.9389H32.1337Z" fill="white"/>
<path d="M50.3706 58.3567C50.3706 59.8404 50.1852 62.1418 47.1909 62.1418H43.6547C40.6747 62.1418 40.4893 59.8404 40.4893 58.3567V44.7297C40.4893 43.2445 40.6747 40.9431 43.6547 40.9431H47.1909C50.1852 40.9431 50.3706 43.2445 50.3706 44.7297V47.7269H46.093V44.2705C46.093 43.9077 45.822 43.5747 45.4228 43.5747C45.1804 43.5747 44.7526 43.7249 44.7526 44.2705V58.7265C44.7526 59.2707 45.1804 59.4223 45.4228 59.4223C45.822 59.4223 46.093 59.0893 46.093 58.7265V54.0869H45.4513V51.7543H50.3706V58.3567Z" fill="white"/>
<path d="M56.787 54.1776L57.5142 43.5832H57.7566L58.498 54.1776H56.787ZM52.0674 62.1418H56.2452L56.6301 56.5102H58.6406L59.0399 62.1418H63.2177L60.9933 40.9431H54.2917L52.0674 62.1418Z" fill="white"/>
<path d="M64.8004 59.4776L68.8926 43.5832H65.2281V40.9431H73.27V43.5775L69.1921 59.4238H73.5267V62.1418H64.8004V59.4776Z" fill="white"/>
<path d="M79.8005 52.2886V43.5719H80.3424C80.8129 43.5719 81.1409 43.9644 81.1409 44.6319V51.2286C81.1409 51.8946 80.8129 52.2886 80.3424 52.2886H79.8005ZM75.5229 62.1418H79.8005V54.9343H82.2388C85.2189 54.9343 85.4042 52.6329 85.4042 51.1492V44.7297C85.4042 43.2445 85.2189 40.9431 82.2388 40.9431H75.5229V62.1418Z" fill="white"/>
<path d="M91.8634 51.6551V43.5733H92.4195C92.8758 43.5733 93.2037 43.9658 93.2037 44.6319V50.5951C93.2037 51.2612 92.8758 51.6551 92.4195 51.6551H91.8634ZM98.0232 62.1418L95.9272 53.8743C97.4386 53.2692 97.4671 51.8748 97.4671 51.3008V44.7297C97.4671 43.2445 97.296 40.9431 94.3017 40.9431H87.6001V62.1418H91.8634V54.298H92.1771L93.6315 62.1418H98.0232Z" fill="white"/>
<path d="M105.923 58.7265C105.923 59.0907 105.652 59.4238 105.252 59.4238C105.01 59.4238 104.582 59.2721 104.582 58.7265V44.2705C104.582 43.7249 105.01 43.5747 105.252 43.5747C105.652 43.5747 105.923 43.9077 105.923 44.2705V58.7265ZM100.319 58.3567C100.319 59.8404 100.504 62.1418 103.499 62.1418H107.02C110.015 62.1418 110.2 59.8404 110.2 58.3567V44.7297C110.2 43.2445 110.015 40.9431 107.02 40.9431H103.499C100.504 40.9431 100.319 43.2445 100.319 44.7297V58.3567Z" fill="white"/>
<path d="M123.589 40.9431H129.136V62.1418H124.872V48.8464H124.715L122.52 62.1418H119.112L116.916 48.8464H116.759V62.1418H112.496V40.9431H118.042L120.809 55.8427L123.589 40.9431Z" fill="white"/>
</svg>
