<svg width="97" height="97" viewBox="0 0 97 97" fill="none" xmlns="http://www.w3.org/2000/svg">
<g clip-path="url(#clip0)">
<path d="M0.00847663 48.5111C0.127184 50.5093 1.45275 52.191 3.37185 52.7647L38.9049 63.5078L40.2106 88.001C40.27 88.9704 40.9229 89.8212 41.8528 90.1377C42.11 90.2367 42.3869 90.2762 42.6441 90.2762C43.3366 90.2762 43.9895 89.9992 44.4643 89.4651L57.0275 75.5565L74.8336 87.8823C75.625 88.4363 76.5548 88.733 77.5243 88.733C79.7599 88.733 81.6988 87.1503 82.1736 84.9344L96.9527 9.61468C97.1307 8.74416 96.7944 7.83407 96.1217 7.28011C95.4293 6.70636 94.4994 6.56786 93.6684 6.9042L2.85745 43.8617C1.01749 44.6927 -0.110231 46.5128 0.00847663 48.5111ZM44.7215 81.9271L43.9104 66.4754L53.0112 72.7669L44.7215 81.9271ZM77.4451 83.8067L45.0381 61.371L90.4831 17.4098L77.4451 83.8067ZM85.4974 15.4709L40.5668 58.9375L5.07332 48.2143L85.4974 15.4709Z" fill="#E4002B"/>
</g>
<defs>
<clipPath id="clip0">
<rect width="97" height="97" fill="white"/>
</clipPath>
</defs>
</svg>
