<svg width="98" height="57" viewBox="0 0 98 57" fill="none" xmlns="http://www.w3.org/2000/svg">
<path d="M97.4913 0.0324707H0.637512V56.9008H97.4913V0.0324707Z" fill="white"/>
<path d="M6.59949 49.6489V51.8273H79.29V7.51358L89.8955 11.6125V51.8273H91.8446V10.0933L79.29 5.13452L59.7702 9.89266V49.5342L6.59949 49.6489Z" fill="#011C26"/>
<path d="M6.97217 24.2817V15.5967H8.72064V19.0363H12.1603V15.5967H13.9087V24.2817H12.1603V20.4981H8.72064V24.2817H6.97217Z" fill="#011C26"/>
<path d="M15.3992 20.0109C15.3992 19.1223 15.5425 18.377 15.8005 17.7751C16.0011 17.3452 16.2591 16.9439 16.603 16.5712C16.947 16.2273 17.3196 15.9693 17.7209 15.7973C18.2655 15.568 18.8961 15.4534 19.584 15.4534C20.8739 15.4534 21.8771 15.8547 22.651 16.6572C23.4249 17.4598 23.7976 18.549 23.7976 19.9822C23.7976 21.3867 23.4249 22.4759 22.651 23.2785C21.8771 24.0811 20.8739 24.4537 19.584 24.4537C18.2942 24.4537 17.2623 24.0524 16.517 23.2785C15.7718 22.5046 15.3992 21.3867 15.3992 20.0109ZM17.205 19.9535C17.205 20.9281 17.4343 21.6733 17.8929 22.1893C18.3515 22.7052 18.9248 22.9632 19.6127 22.9632C20.3006 22.9632 20.8739 22.7052 21.3325 22.2179C21.7911 21.702 21.9918 20.9568 21.9918 19.9535C21.9918 18.9503 21.7625 18.2051 21.3325 17.7178C20.9026 17.2305 20.3293 16.9725 19.584 16.9725C18.8674 16.9725 18.2655 17.2305 17.8356 17.7178C17.4056 18.2051 17.205 18.9503 17.205 19.9535Z" fill="#011C26"/>
<path d="M25.1448 24.2817V15.5967H27.7819L29.3584 21.53L30.9062 15.5967H33.5432V24.2817H31.9094V17.4311L30.1896 24.2817H28.4985L26.7787 17.4311V24.2817H25.1448Z" fill="#011C26"/>
<path d="M35.2917 24.2817V15.5967H41.741V17.0585H37.0688V18.979H41.4257V20.4408H37.0688V22.7912H41.9129V24.253H35.2917V24.2817Z" fill="#011C26"/>
<path d="M12.5329 32.6801L14.224 33.2247C13.9661 34.1705 13.5361 34.8871 12.9342 35.3457C12.3322 35.8044 11.5583 36.0337 10.6411 36.0337C9.49457 36.0337 8.54867 35.6324 7.80342 34.8585C7.05817 34.0846 6.68555 32.9953 6.68555 31.6195C6.68555 30.1863 7.05817 29.0398 7.80342 28.2659C8.54867 27.492 9.52323 27.062 10.7558 27.062C11.8163 27.062 12.6762 27.3773 13.3355 28.0079C13.7368 28.3805 14.0234 28.9251 14.224 29.6131L12.4756 30.0143C12.3609 29.5557 12.1603 29.2118 11.845 28.9538C11.5297 28.6958 11.1284 28.5525 10.6698 28.5525C10.0392 28.5525 9.49456 28.7818 9.09328 29.2404C8.69199 29.6991 8.49135 30.4443 8.49135 31.4762C8.49135 32.5654 8.69199 33.368 9.09328 33.8266C9.49456 34.2852 10.0105 34.5145 10.6411 34.5145C11.0997 34.5145 11.501 34.3712 11.845 34.0559C12.1603 33.7693 12.3896 33.3106 12.5329 32.6801Z" fill="#011C26"/>
<path d="M15.7432 35.8618V27.1768H19.4408C20.358 27.1768 21.0459 27.2628 21.4759 27.4061C21.9058 27.5494 22.2211 27.836 22.4791 28.2373C22.737 28.6386 22.8517 29.0972 22.8517 29.6132C22.8517 30.2724 22.6511 30.817 22.2784 31.2183C21.9058 31.6483 21.3325 31.9062 20.5586 32.0209C20.9313 32.2502 21.2465 32.4795 21.5045 32.7375C21.7625 32.9954 22.0778 33.4827 22.5077 34.142L23.5683 35.8331H21.4759L20.2147 33.9413C19.756 33.2534 19.4694 32.8521 19.2974 32.6515C19.1255 32.4508 18.9535 32.3648 18.7815 32.2789C18.6095 32.2215 18.2942 32.1929 17.8929 32.1929H17.4916V35.8045H15.7432V35.8618ZM17.4916 30.8457H18.7815C19.6127 30.8457 20.1573 30.817 20.358 30.731C20.5586 30.6737 20.7306 30.5304 20.8453 30.3584C20.9599 30.1864 21.0172 29.9571 21.0172 29.6991C21.0172 29.4125 20.9313 29.1832 20.7879 28.9826C20.6446 28.8106 20.4153 28.6959 20.1287 28.6386C19.9854 28.6099 19.5554 28.6099 18.8388 28.6099H17.4916V30.8457Z" fill="#011C26"/>
<path d="M24.5142 35.8618V27.1768H30.9635V28.6386H26.2914V30.5591H30.6482V32.0209H26.2914V34.3713H31.1355V35.8331H24.5142V35.8618Z" fill="#011C26"/>
<path d="M32.5973 27.1768H35.8076C36.5242 27.1768 37.0688 27.2341 37.4701 27.3487C37.986 27.4921 38.416 27.7787 38.7886 28.1513C39.1612 28.5239 39.4192 29.0112 39.6198 29.5558C39.8205 30.1004 39.9065 30.7884 39.9065 31.6196C39.9065 32.3362 39.8205 32.9381 39.6485 33.4541C39.4192 34.0846 39.1326 34.6006 38.7313 35.0019C38.416 35.2885 38.0147 35.5178 37.4987 35.6898C37.0974 35.8045 36.5815 35.8618 35.9509 35.8618H32.6546V27.1768H32.5973ZM34.3458 28.6673V34.4286H35.6643C36.1516 34.4286 36.4955 34.3999 36.7248 34.3426C37.0115 34.2853 37.2408 34.142 37.4414 33.97C37.6421 33.798 37.7854 33.5114 37.9 33.1388C38.0147 32.7375 38.072 32.2215 38.072 31.5623C38.072 30.903 38.0147 30.3871 37.9 30.0144C37.7854 29.6418 37.6134 29.3838 37.4128 29.1832C37.2121 28.9826 36.9255 28.8392 36.6102 28.7819C36.3522 28.7246 35.8936 28.6959 35.177 28.6959H34.3458V28.6673Z" fill="#011C26"/>
<path d="M41.311 35.8618V27.1768H43.0594V35.8618H41.311Z" fill="#011C26"/>
<path d="M46.671 35.8618V28.6386H44.0913V27.1768H50.9992V28.6386H48.4195V35.8618H46.671Z" fill="#011C26"/>
<path d="M6.97217 38.2693H10.4404C11.1284 38.2693 11.6443 38.2979 11.9883 38.3553C12.3322 38.4126 12.6189 38.5273 12.9055 38.7279C13.1635 38.8999 13.3928 39.1579 13.5648 39.4445C13.7367 39.7598 13.8227 40.0751 13.8227 40.4477C13.8227 40.849 13.7081 41.2216 13.5074 41.5656C13.2781 41.9095 12.9915 42.1675 12.6189 42.3395C13.1348 42.4828 13.5648 42.7694 13.8514 43.1134C14.138 43.486 14.2813 43.916 14.2813 44.4319C14.2813 44.8332 14.1954 45.2058 13.9947 45.5785C13.8227 45.9511 13.5648 46.2377 13.2495 46.467C12.9342 46.6963 12.5329 46.8397 12.0743 46.8683C11.7876 46.897 11.071 46.9256 9.95317 46.9256H7.00083V38.2693H6.97217ZM8.7493 39.7025V41.7089H9.89584C10.5838 41.7089 11.0137 41.7089 11.157 41.6802C11.4437 41.6516 11.7016 41.5369 11.8736 41.3649C12.0456 41.193 12.1316 40.9636 12.1316 40.677C12.1316 40.419 12.0456 40.1897 11.9023 40.0178C11.759 39.8458 11.5297 39.7598 11.243 39.7025C11.071 39.6738 10.5838 39.6738 9.75252 39.6738H8.7493V39.7025ZM8.7493 43.1707V45.4925H10.3831C11.0137 45.4925 11.415 45.4638 11.587 45.4352C11.845 45.3778 12.0456 45.2632 12.2176 45.0912C12.3896 44.9192 12.4756 44.6612 12.4756 44.3459C12.4756 44.088 12.4182 43.8587 12.2749 43.6867C12.1603 43.5147 11.9596 43.3714 11.7303 43.2854C11.501 43.1994 10.9851 43.1707 10.1825 43.1707H8.7493Z" fill="#011C26"/>
<path d="M23.5682 46.9543H21.6478L20.9025 44.9765H17.4343L16.7177 46.9543H14.8546L18.2368 38.2693H20.1L23.5682 46.9543ZM20.3579 43.5147L19.1541 40.3044L17.9789 43.5147H20.3579Z" fill="#011C26"/>
<path d="M24.5142 46.9543V38.2693H26.234L29.7883 44.0593V38.2693H31.4221V46.9543H29.6736L26.1767 41.2789V46.9543H24.5142Z" fill="#011C26"/>
<path d="M33.2852 46.9543V38.2693H35.0337V42.1389L38.588 38.2693H40.9384L37.6707 41.6516L41.1103 46.9543H38.8459L36.4669 42.8841L35.0337 44.3459V46.983H33.2852V46.9543Z" fill="#011C26"/>
</svg>
