<svg width="110" height="61" viewBox="0 0 110 61" fill="none" xmlns="http://www.w3.org/2000/svg">
<path d="M11.0135 44.5645V50.5588H4.21953V44.5645H0.474731V60.2935H4.21953V53.9694H11.0135V60.2935H14.7583V44.5645H11.0135Z" fill="white"/>
<path d="M28.4772 44.5645L24.5607 50.7937L20.6488 44.5645H16.2309L22.6951 54.8457V60.2935H26.4354V54.8457L32.8995 44.5645H28.4772Z" fill="white"/>
<path d="M44.938 44.5645V56.0925C44.938 56.5306 44.6083 56.883 44.143 56.883H38.1441V44.5645H34.3993V60.2935H45.462C46.4468 60.2935 47.2373 59.9997 47.8155 59.4261C48.3892 58.8479 48.6783 58.0575 48.6783 57.0772V44.5645H44.938Z" fill="white"/>
<path d="M63.2103 44.5645H52.1476V60.2935H55.8878V47.9704H61.8958C62.3791 47.9704 62.6863 48.3499 62.6863 48.7564V60.2935H66.4266V47.7808C66.4266 46.796 66.1329 46.0055 65.5638 45.4318C64.9811 44.8536 64.1951 44.5645 63.2103 44.5645Z" fill="white"/>
<path d="M80.9585 44.5645H69.8958V60.2935H80.9585C81.9432 60.2935 82.7293 59.9997 83.303 59.4261C83.8812 58.8479 84.1702 58.0575 84.1702 57.0772V47.7808C84.1702 46.796 83.8811 46.0055 83.303 45.4318C82.7293 44.8536 81.9387 44.5645 80.9585 44.5645ZM80.43 48.7835V56.0699C80.43 56.4945 80.1228 56.883 79.6349 56.883H73.6315V47.9704H79.6078C80.1002 47.9704 80.43 48.3138 80.43 48.7835Z" fill="white"/>
<path d="M90.6932 44.5645C89.7129 44.5645 88.9179 44.8536 88.3442 45.4318C87.766 46.01 87.4814 46.8005 87.4814 47.7808V60.2935H91.2126V55.4284H98.0111V60.2935H101.751V44.5645H90.6932ZM98.0111 47.9704V52.0224H91.2126V48.77C91.2126 48.3815 91.5152 47.9704 92.0122 47.9704H98.0111Z" fill="white"/>
<path d="M105.392 60.2935H109.137V44.5645H105.392V60.2935Z" fill="white"/>
<path d="M52.5958 33.6644C70.5591 33.6644 85.1234 26.2861 85.1234 17.1889C85.1234 8.08494 70.5591 0.706543 52.5958 0.706543C34.6394 0.706543 20.0751 8.08494 20.0751 17.1889C20.0751 26.2861 34.6394 33.6644 52.5958 33.6644ZM58.7209 25.5795C58.1784 26.8228 57.2446 29.4792 55.1022 30.5391C54.4498 30.8585 53.6464 31.0081 52.9322 31.0351C52.7673 31.0351 52.6507 31.0351 52.6024 31.0351C46.6009 31.0351 41.0114 30.2061 36.3352 28.7998C36.3003 28.785 36.1912 28.7456 36.1568 28.7318C35.7243 28.5893 35.5044 28.3921 35.5044 28.1475C35.5044 27.937 35.6211 27.7739 35.7721 27.6244C35.8408 27.5632 35.937 27.4819 36.0675 27.366C37.1525 26.476 40.4004 24.1457 46.5255 21.8221C48.6748 21.0136 51.3665 20.0014 54.1819 19.4103C55.8299 19.0706 61.955 18.1397 58.7208 25.5792L58.7209 25.5795ZM75.1529 8.96789C75.2695 8.77068 75.4209 8.60104 75.7021 8.58723C75.8531 8.57244 76.0594 8.60694 76.3751 8.80464C80.193 11.1282 82.459 14.0361 82.459 17.1817C82.459 22.8615 75.0773 27.7463 64.5163 29.8796C63.8434 30.0157 63.3902 30.0088 63.2391 29.8402C63.1295 29.7381 63.1021 29.5548 63.2391 29.3307C63.3009 29.2154 63.3766 29.1132 63.5206 28.9431C69.268 22.2375 73.6489 12.3453 74.8918 9.49179C74.988 9.29458 75.0773 9.09797 75.153 8.96879L75.1529 8.96789ZM46.5737 8.7583C47.1162 7.515 48.0501 4.85842 50.1925 3.80538C50.8449 3.4859 51.6483 3.32968 52.3624 3.30947C52.5273 3.30454 52.6439 3.30947 52.6853 3.30947C58.6936 3.30947 64.2763 4.13153 68.9594 5.54467C68.9942 5.55946 69.1033 5.59887 69.1377 5.61268C69.5703 5.75516 69.79 5.95232 69.79 6.19691C69.79 6.40743 69.6734 6.56375 69.5225 6.71328C69.4537 6.78132 69.3575 6.86266 69.227 6.97161C68.1489 7.86842 64.8941 10.192 58.769 12.5155C56.6129 13.3308 53.928 14.3363 51.1195 14.9274C49.4646 15.274 43.3395 16.1979 46.5737 8.75845V8.7583ZM40.6752 4.485C41.355 4.35582 41.8014 4.3558 41.9662 4.52442C42.0623 4.63288 42.0897 4.80989 41.9611 5.03402C41.8924 5.14938 41.8172 5.25839 41.6797 5.41468C35.9323 12.1272 31.5513 22.0123 30.3016 24.8727C30.2124 25.0699 30.1162 25.2666 30.0405 25.3958C29.9303 25.593 29.7729 25.7627 29.498 25.7765C29.347 25.7913 29.1342 25.7469 28.8181 25.559C25.0002 23.2355 22.7343 20.3276 22.7343 17.182C22.7343 11.5022 30.1159 6.61739 40.6769 4.48409" fill="white"/>
</svg>
