<svg width="31" height="28" viewBox="0 0 31 28" fill="none" xmlns="http://www.w3.org/2000/svg">
<path d="M30.5166 27.8804H23.8825V18.2627C23.8825 15.7448 22.8451 14.027 20.563 14.027C18.8181 14.027 17.8463 15.187 17.3966 16.3043C17.2265 16.7052 17.2518 17.2647 17.2518 17.8225V27.8821H10.68C10.68 27.8821 10.7642 10.8438 10.68 9.29484H17.2518V12.2119C17.6392 10.9359 19.7411 9.11572 23.0926 9.11572C27.2493 9.11572 30.5166 11.7888 30.5166 17.5462V27.8821V27.8804ZM4.03412 6.97143H3.99201C1.87328 6.96972 0.498962 5.54872 0.498962 3.7456C0.498962 1.91178 1.9137 0.521484 4.07286 0.521484C6.23033 0.521484 7.55917 1.90837 7.60128 3.74219C7.60128 5.5436 6.23033 6.96972 4.03075 6.96972L4.03412 6.97143ZM1.25686 9.29484H7.10612V27.8804H1.25854V9.29484H1.25686Z" fill="white"/>
</svg>
