<svg width="39" height="42" viewBox="0 0 39 42" fill="none" xmlns="http://www.w3.org/2000/svg">
<path fill-rule="evenodd" clip-rule="evenodd" d="M4.54133 8.8962C4.89542 6.93751 6.64589 0.00388022 14.0169 1.62628e-06C21.3879 -0.00387697 20.6373 6.93105 20.2857 8.88845L16.0728 32.2699C15.5492 35.1776 13.9845 41.9974 6.45015 42C-1.08418 42.0026 -0.188983 35.1814 0.334667 32.2738L0.798482 29.7023H6.82545C5.82802 35.2383 5.66842 36.7458 7.39646 36.7432C8.90383 36.7432 9.48234 35.3999 10.0459 32.2712L11.4361 24.5541C10.4676 25.1587 9.36965 25.5047 8.24054 25.5612C2.04651 25.5612 2.69235 19.19 3.10628 16.899L4.54133 8.8962ZM14.5755 7.1017C14.6179 6.87368 14.6104 6.63869 14.5536 6.41405C14.4968 6.18941 14.3921 5.98087 14.2472 5.8038C14.1023 5.62673 13.9209 5.48566 13.7164 5.39099C13.5119 5.29631 13.2895 5.25045 13.0656 5.25679C12.5662 5.30221 12.0916 5.50266 11.7037 5.832C11.3158 6.16134 11.0327 6.60428 10.8912 7.103L8.74549 19.0142C8.71483 19.2404 8.73066 19.4707 8.79193 19.6901C8.85319 19.9096 8.95851 20.1131 9.10098 20.2873C9.24344 20.4615 9.41982 20.6025 9.61856 20.7011C9.81729 20.7996 10.0339 20.8535 10.2541 20.8591C10.7351 20.8425 11.1993 20.6721 11.5833 20.3712C11.9672 20.0703 12.252 19.6537 12.3986 19.1784L14.5755 7.1017ZM31.7811 6.42554H22.7394L23.8179 0.442165H39L37.9115 6.48242L25.5684 41.5488H19.317L31.7811 6.42554Z" fill="#E4002B"/>
</svg>
