<svg width="175" height="55" viewBox="0 0 175 55" fill="none" xmlns="http://www.w3.org/2000/svg">
<path d="M126.65 4.27051H122.579V30.9481H126.65V4.27051Z" fill="white"/>
<path d="M133.54 26.1294C132.016 26.1294 130.789 27.3113 130.789 28.779C130.789 30.2466 132.016 31.4286 133.54 31.4286C135.063 31.4286 136.29 30.2466 136.29 28.779C136.29 27.3113 135.063 26.1294 133.54 26.1294Z" fill="white"/>
<path d="M144.244 21.6618C144.244 18.4797 146.226 15.7522 150.068 15.7522H152.495V12.0376H150.068C147.062 12.0376 145.687 12.9598 144.285 14.4923L144.258 14.5313V12.0376H140.227V30.9353H144.244C144.244 30.9223 144.244 22.9476 144.244 21.6618Z" fill="white"/>
<path d="M118.157 12.0376H114.085V30.9353H118.157V12.0376Z" fill="white"/>
<path d="M116.121 8.90731C117.645 8.90731 118.871 7.72539 118.871 6.25773C118.871 4.79007 117.631 3.60815 116.121 3.60815C114.598 3.60815 113.371 4.79007 113.371 6.25773C113.371 7.72539 114.611 8.90731 116.121 8.90731Z" fill="white"/>
<path d="M105.673 13.9467C104.109 12.4141 101.709 11.5569 99.3228 11.5569C93.6335 11.5569 89.0092 16.0118 89.0092 21.4928C89.0092 26.9738 93.6335 31.4287 99.3228 31.4287C101.709 31.4287 104.23 30.4416 105.673 28.883V30.9482H109.677V12.0374H105.673V13.9467ZM99.4576 27.4803C95.9523 27.4803 93.2829 24.8827 93.2829 21.4928C93.2829 18.1029 95.9523 15.5313 99.4576 15.5313C102.963 15.5313 105.727 17.947 105.727 21.4928C105.727 25.0386 102.963 27.4803 99.4576 27.4803Z" fill="white"/>
<path d="M163.766 31.4289C165.586 31.4289 167.905 30.4807 169.361 28.8702C169.374 29.5846 169.361 30.234 169.361 30.9353H173.365V22.6879V12.0376H169.347V22.4151C169.347 25.1037 167.217 27.6104 164.022 27.6104C161.231 27.6104 159.249 25.6621 159.249 22.8697V12.0506H155.232V23.1944C155.245 28.1818 158.036 31.4289 163.766 31.4289Z" fill="white"/>
<path d="M77.2531 11.5569C74.5837 11.5569 71.9682 12.7258 70.3774 14.5701C68.9214 12.7128 66.8047 11.5569 63.9601 11.5569C61.6412 11.5569 59.9829 12.557 59.0931 13.3622V12.0374H55.0891V30.9352H59.0931V19.8823C59.0931 17.4145 61.1828 15.4144 63.7309 15.4144C66.2789 15.4144 68.3686 17.4275 68.3686 19.8823V30.9352H72.3727V19.8823C72.3727 17.4145 74.4624 15.4144 77.0104 15.4144C79.5585 15.4144 81.6482 17.4275 81.6482 19.8823V30.9352H85.6522V19.8823C85.6792 14.8169 82.2683 11.5569 77.2531 11.5569Z" fill="white"/>
<path d="M130.129 39.6761L130.102 39.702V38.2344H128.929H127.742H127.54V49.3262H127.742H130.102C130.102 49.3132 130.102 44.8843 130.102 44.131C130.102 42.2607 131.261 40.6632 133.513 40.6632H134.928V38.2344H133.513C131.76 38.2344 130.951 38.7799 130.129 39.6761Z" fill="white"/>
<path d="M157.672 44.3128C157.672 46.0921 156.189 47.1572 154.746 47.1572C153.223 47.1572 152.144 46.0921 152.144 44.5725V38.2473H149.569V44.7544C149.569 47.8325 151.403 49.6119 154.585 49.6119C155.623 49.6119 156.85 49.1054 157.658 48.3391C157.658 48.5339 157.658 48.7287 157.658 48.9235V49.3392H160.22V38.2473H157.645L157.672 44.3128Z" fill="white"/>
<path d="M141.602 37.9617C138.272 37.9617 135.562 40.5723 135.562 43.7803C135.562 46.9884 138.272 49.599 141.602 49.599C144.932 49.599 147.642 46.9884 147.642 43.7803C147.642 40.5723 144.945 37.9617 141.602 37.9617ZM141.602 47.1313C139.687 47.1313 138.123 45.6247 138.123 43.7803C138.123 41.936 139.687 40.4294 141.602 40.4294C143.516 40.4294 145.08 41.936 145.08 43.7803C145.08 45.6247 143.53 47.1313 141.602 47.1313Z" fill="white"/>
<path d="M168.862 37.9617C167.541 37.9617 166.26 38.4033 165.357 39.1566V38.2344H162.795V53.1448H165.357V48.3392C166.219 49.1184 167.554 49.612 168.862 49.612C172.192 49.612 174.902 47.0014 174.902 43.7933C174.902 40.5723 172.192 37.9617 168.862 37.9617ZM168.781 47.0793C166.772 47.0793 165.316 45.6896 165.316 43.7803C165.316 41.8711 166.772 40.4944 168.781 40.4944C170.722 40.4944 172.192 41.9101 172.192 43.7803C172.192 45.6636 170.722 47.0793 168.781 47.0793Z" fill="white"/>
<path d="M122.431 39.1566C121.527 38.4033 120.247 37.9617 118.925 37.9617C115.595 37.9617 112.885 40.5723 112.885 43.7803C112.885 46.9884 115.595 49.599 118.925 49.599C120.233 49.599 121.568 49.1055 122.431 48.3262V48.547C122.39 50.8199 121.244 51.9758 119.006 51.9758H118.979C117.712 51.9758 116.593 51.5083 115.555 50.5342L115.461 50.4432L113.6 52.1577L113.681 52.2486C114.638 53.3266 116.58 54.5605 118.912 54.5605C118.952 54.5605 118.993 54.5605 119.033 54.5605C121.217 54.5215 124.884 53.7033 124.992 48.6379V38.2214H122.431V39.1566ZM119.006 47.0793C117.065 47.0793 115.595 45.6636 115.595 43.7803C115.595 41.9101 117.065 40.4944 119.006 40.4944C121.015 40.4944 122.471 41.8711 122.471 43.7803C122.458 45.6896 121.015 47.0793 119.006 47.0793Z" fill="white"/>
<path d="M28.1254 21.1552C28.1254 24.5971 25.2268 27.3895 21.6541 27.3895C18.0815 27.3895 15.1829 24.5971 15.1829 21.1552C15.1829 17.7134 18.0815 14.921 21.6541 14.921C25.2268 14.921 28.1254 17.7264 28.1254 21.1552ZM21.6541 0.439209C9.79017 0.439209 0.137207 9.7387 0.137207 21.1682C0.137207 32.5978 9.79017 41.8843 21.6541 41.8843C25.9953 41.8843 30.1881 40.6374 33.7743 38.2736L33.8417 38.2346L30.9431 34.9876L30.8892 35.0136C28.1254 36.715 24.9437 37.6242 21.6541 37.6242C12.2304 37.6242 4.55923 30.2339 4.55923 21.1552C4.55923 12.0766 12.2304 4.68632 21.6541 4.68632C31.0779 4.68632 38.749 12.0766 38.749 21.1552C38.749 22.3372 38.6142 23.5191 38.3446 24.701C37.8053 26.844 36.2549 27.4934 35.082 27.4025C33.9091 27.3116 32.5339 26.5063 32.5205 24.5322V21.1552C32.5205 15.3755 27.6401 10.6738 21.6407 10.6738C15.6413 10.6738 10.7609 15.3755 10.7609 21.1552C10.7609 26.935 15.6413 31.6367 21.6407 31.6367C24.5527 31.6367 27.2895 30.5327 29.3522 28.5455C30.5521 30.3378 32.507 31.4678 34.7315 31.6367C34.9202 31.6496 35.1224 31.6626 35.3112 31.6626C36.8751 31.6626 38.4255 31.1561 39.6793 30.2469C40.9735 29.2988 41.9308 27.935 42.4565 26.2985C42.5374 26.0388 42.6992 25.4283 42.6992 25.4283V25.4024C43.0093 24.0906 43.1576 22.7788 43.1576 21.1552C43.1711 9.7387 33.5181 0.439209 21.6541 0.439209Z" fill="white"/>
</svg>
