<svg width="275" height="30" viewBox="0 0 275 30" fill="none" xmlns="http://www.w3.org/2000/svg">
<g clip-path="url(#clip0)">
<path fill-rule="evenodd" clip-rule="evenodd" d="M0 0.966553H30.9263V6.05025C27.0089 6.26994 18.6718 7.42074 17.7344 14.5243C17.1486 18.9543 20.9303 21.4486 22.2591 22.3251C22.399 22.4173 22.5117 22.4917 22.5892 22.5484C24.7879 23.6888 27.7121 24.3792 30.9263 24.5153V29.9561H10.0416C11.0772 28.723 12.1791 27.1152 13.2477 25.1953C13.9955 23.8457 15.4464 19.9539 15.4241 16.7213C15.413 15.3612 15.3236 13.9908 14.5983 13.206C13.6161 12.139 11.6629 12.2122 10.4687 12.4005C6.6741 12.9968 2.83483 15.6227 0 18.9914V0.966553ZM0 21.2616V29.9561H9.83777L9.89305 29.853C11.0492 27.6963 12.6362 24.7362 13.404 21.8266C14.1406 19.0647 14.4978 16.3446 13.0357 15.0264C11.9766 14.0749 10.0667 14.6877 8.794 15.096L8.75 15.1102C6.52901 15.8111 1.94196 18.552 0 21.2616ZM30.9263 23.1344V9.126C27.1986 9.04231 22.846 9.85833 20.7143 11.8774C19.2857 13.2375 18.9732 15.5704 19.8437 17.4013C21.8192 21.5337 27.2322 22.7263 30.9263 23.1344ZM14.4308 1.65631C14.3974 1.604 14.3638 1.57262 14.3192 1.54123C14.2857 1.52031 14.1518 1.49938 14.1183 1.49938C13.9397 1.56215 13.9397 1.71908 13.9397 1.75047C13.9496 2.0725 13.9632 2.40137 13.9769 2.73333C14.1179 6.14335 14.2723 9.87832 10.5804 9.86879C8.16965 9.85833 5.51339 8.24722 3.1808 5.32839C3.13441 5.27212 3.08485 5.211 3.03264 5.1466C2.65772 4.68421 2.1457 4.05275 1.68527 3.83235C1.28348 3.63359 0.513393 4.14621 0.848214 4.96223C1.77455 7.22197 4.65402 9.31432 5.50224 9.80602C7.32143 10.8836 11.2165 11.731 13.192 10.2245C15.5983 8.38619 15.0344 4.72633 14.7326 2.76797C14.7167 2.6645 14.7015 2.56578 14.6875 2.47233C14.6205 2.06432 14.5424 1.80277 14.4308 1.65631Z" fill="white"/>
<path d="M271.909 13.1023C271.909 12.0561 270.111 10.9263 267.399 10.9263H246.842V15.2783H267.399C270.111 15.2783 271.909 14.138 271.909 13.1023ZM275 13.1023C275 15.906 271.596 18.1763 267.399 18.1763H246.842V23.4595H243.751V8.02835H267.399C271.596 8.02835 275 10.2881 275 13.1023ZM237.199 15.7387C237.199 13.1442 232.209 10.5182 222.678 10.5182C213.147 10.5182 208.158 13.1442 208.158 15.7387C208.158 17.7996 213.951 20.9068 222.678 20.9068C231.407 20.9068 237.199 17.7996 237.199 15.7387ZM222.678 7.62034C234.319 7.62034 240.291 11.2715 240.291 15.7387C240.291 20.2059 232.4 23.8047 222.678 23.8047C212.947 23.8047 205.067 20.2059 205.067 15.7387C205.067 11.2715 211.049 7.62034 222.678 7.62034ZM205.067 8.02835H173.728V10.9263H187.857V23.4595H190.948V10.9263H205.078V8.02835H205.067ZM169.732 17.0987L162.69 11.0518L155.648 17.0987H169.732ZM173.114 19.9966H152.277L148.237 23.4595H143.661L162.69 7.11816L181.719 23.4595H177.144L173.114 19.9966ZM142.924 14.5984H124.442V17.4962H139.833V18.9504C137.311 20.0698 133.214 20.9068 128.125 20.9068C119.398 20.9068 113.605 17.7996 113.605 15.7387C113.605 13.1442 118.594 10.5182 128.125 10.5182C134.208 10.5182 138.438 11.5853 140.704 13.0395L142.422 10.6333C139.52 8.80252 134.743 7.62034 128.125 7.62034C116.485 7.62034 110.514 11.2715 110.514 15.7387C110.514 20.2059 118.404 23.8047 128.125 23.8047C134.331 23.8047 139.788 22.5911 142.924 20.5511V14.5984ZM72.7123 8.02835L59.286 20.028L45.8485 8.02835H42.0315V23.4595H45.123V11.5749L58.4266 23.4595H60.1342L73.4377 11.5749V23.4595H76.5292V8.02835H72.7123ZM84.1967 10.9263V13.9601H106.641V16.8581H84.1967V20.5615H107.623V23.4595H81.1052V8.02835H107.623V10.9263H84.1967Z" fill="white"/>
</g>
<defs>
<clipPath id="clip0">
<rect width="275" height="29" fill="white" transform="translate(0 0.966553)"/>
</clipPath>
</defs>
</svg>
