<svg width="36" height="29" viewBox="0 0 36 29" fill="none" xmlns="http://www.w3.org/2000/svg">
<path d="M35.4441 0.793947C35.0043 0.281909 34.3457 0 33.5893 0C33.1781 0 32.7425 0.082376 32.2948 0.245297L1.82159 11.3211C0.204402 11.9087 -0.0134017 12.7905 0.000605816 13.2638C0.0146133 13.7372 0.284602 14.6059 1.9342 15.1057C1.94408 15.1085 1.95397 15.1114 1.96386 15.114L8.28483 16.8363L11.7032 26.1435C12.1693 27.4124 13.2155 28.2006 14.4339 28.2006C15.2021 28.2006 15.9577 27.8941 16.619 27.3146L20.5288 23.8869L26.1996 28.2346C26.2002 28.2351 26.201 28.2353 26.2016 28.2359L26.2554 28.2772C26.2603 28.2808 26.2656 28.2848 26.2705 28.2884C26.9008 28.7539 27.5889 28.9997 28.2609 29H28.2612C29.5744 29 30.62 28.0745 30.9246 26.6425L35.9176 3.16821C36.1181 2.22598 35.95 1.38287 35.4441 0.793947ZM10.3994 16.5092L22.5945 10.5773L15.001 18.2597C14.8766 18.3855 14.7884 18.5396 14.745 18.7072L13.2808 24.3543L10.3994 16.5092ZM15.19 25.837C15.1395 25.8812 15.0886 25.9207 15.0378 25.9571L16.3963 20.7185L18.8674 22.6131L15.19 25.837ZM33.8502 2.7694L28.8572 26.2439C28.8092 26.4686 28.6556 26.9913 28.2609 26.9913C28.0659 26.9913 27.8209 26.8901 27.5702 26.7063L21.1443 21.7799C21.1435 21.7792 21.1424 21.7784 21.1413 21.7779L17.3178 18.8463L28.2988 7.73654C28.6504 7.38089 28.6823 6.83616 28.3744 6.44546C28.0662 6.05476 27.5078 5.93185 27.0511 6.15414L8.99015 14.9393L2.58321 13.194L33.0471 2.12164C33.3045 2.02802 33.4841 2.0084 33.5893 2.0084C33.6538 2.0084 33.7687 2.01573 33.8112 2.06568C33.8673 2.13079 33.9387 2.35281 33.8502 2.7694Z" fill="#E4002B"/>
</svg>
