<svg width="35" height="35" viewBox="0 0 35 35" fill="none" xmlns="http://www.w3.org/2000/svg">
<path fill-rule="evenodd" clip-rule="evenodd" d="M25.4768 20.8498C25.0615 20.6405 23.0191 19.6299 22.6382 19.4903C22.2578 19.3508 21.9805 19.2814 21.7039 19.6996C21.4268 20.1177 20.6309 21.0591 20.3884 21.3378C20.146 21.6167 19.9039 21.6517 19.4884 21.4425C19.0729 21.2334 17.7345 20.7919 16.1478 19.3683C14.913 18.2603 14.0794 16.8919 13.8369 16.4737C13.5949 16.0551 13.8349 15.8508 14.0191 15.6209C14.4688 15.0591 14.9191 14.4702 15.0575 14.1915C15.1962 13.9126 15.1268 13.6685 15.0227 13.4594C14.9191 13.2503 14.0884 11.1935 13.7423 10.3565C13.4048 9.54202 13.0627 9.65202 12.8075 9.63925C12.5655 9.62709 12.2884 9.62462 12.0113 9.62462C11.7345 9.62462 11.2844 9.72906 10.9035 10.1476C10.5229 10.566 9.44984 11.5768 9.44984 13.6337C9.44984 15.6905 10.9383 17.6775 11.146 17.9564C11.3536 18.2353 14.0753 22.4562 18.2422 24.266C19.2333 24.6969 20.0069 24.9538 20.6104 25.1464C21.6056 25.4645 22.5109 25.4196 23.2268 25.312C24.025 25.1919 25.6842 24.301 26.0307 23.325C26.3768 22.3488 26.3768 21.5123 26.2728 21.3378C26.1691 21.1635 25.8921 21.0591 25.4768 20.8498Z" fill="white"/>
<path d="M6.57103 35C6.05693 35 5.54499 34.8595 5.08903 34.5797C4.25113 34.0662 3.7513 33.1762 3.7513 32.1989V28.0973C0.801024 24.3891 -0.473992 19.7583 0.158268 15.0062C1.17193 7.38201 7.48833 1.133 15.1761 0.148464C20.5911 -0.545544 25.9065 1.21524 29.7652 4.97661C33.6241 8.73798 35.4913 13.9758 34.8889 19.3476C34.016 27.1272 27.6837 33.5273 19.8331 34.5663C16.7033 34.9781 13.538 34.5482 10.634 33.3142L7.83447 34.702C7.43342 34.9007 7.00115 35 6.57103 35ZM15.4959 2.60913C8.91273 3.45214 3.50448 8.80233 2.63589 15.3307C2.07631 19.5414 3.25739 23.6382 5.96246 26.8644C6.14898 27.0871 6.251 27.368 6.251 27.6575V32.1989C6.251 32.3452 6.33417 32.4264 6.40307 32.4702C6.47386 32.5124 6.58556 32.5487 6.71691 32.4833L10.0467 30.8328C10.3875 30.6632 10.7901 30.6573 11.1368 30.8194C13.7565 32.0389 16.6481 32.4846 19.5021 32.1081C26.2305 31.2178 31.6563 25.7357 32.4046 19.0739C32.9216 14.4636 31.3206 9.96952 28.0127 6.74595C24.7052 3.52104 20.1432 2.01206 15.4959 2.60913Z" fill="white"/>
</svg>
