<svg width="35" height="35" viewBox="0 0 35 35" fill="none" xmlns="http://www.w3.org/2000/svg">
<path d="M6.57103 35C6.05693 35 5.54499 34.8595 5.08903 34.5797C4.25113 34.0662 3.7513 33.1762 3.7513 32.1989V28.0973C0.801024 24.3891 -0.473992 19.7583 0.158268 15.0062C1.17193 7.38201 7.48833 1.133 15.1761 0.148464C20.5911 -0.545544 25.9065 1.21524 29.7652 4.97661C33.6241 8.73798 35.4913 13.9758 34.8889 19.3476C34.016 27.1272 27.6837 33.5273 19.8331 34.5663C16.7033 34.9781 13.538 34.5482 10.634 33.3142L7.83447 34.702C7.43342 34.9007 7.00115 35 6.57103 35ZM15.4959 2.60913C8.91273 3.45214 3.50448 8.80233 2.63589 15.3307C2.07631 19.5414 3.25739 23.6382 5.96246 26.8644C6.14898 27.0871 6.251 27.368 6.251 27.6575V32.1989C6.251 32.3452 6.33417 32.4264 6.40307 32.4702C6.47386 32.5124 6.58556 32.5487 6.71691 32.4833L10.0467 30.8328C10.3875 30.6632 10.7901 30.6573 11.1368 30.8194C13.7565 32.0389 16.6481 32.4846 19.5021 32.1081C26.2305 31.2178 31.6563 25.7357 32.4046 19.0739C32.9216 14.4636 31.3206 9.96952 28.0127 6.74595C24.7052 3.52104 20.1432 2.01206 15.4959 2.60913Z" fill="#E4002B"/>
<path d="M8.8129 21.2832L14.5509 13.1812C14.7899 12.7663 15.3411 12.6533 15.7263 12.9398L19.5702 15.7997C19.8307 15.9936 20.1833 16.0115 20.4625 15.8454L25.1432 12.5631C25.8301 12.1542 26.6292 12.8886 26.2712 13.5994L21.6373 21.5534C21.4287 21.9673 20.9093 22.1174 20.5093 21.8792L15.3777 18.8246C15.143 18.685 14.8526 18.6737 14.6077 18.7952L9.86586 22.3873C9.15769 22.739 8.41992 21.9654 8.8129 21.2832Z" fill="#E4002B"/>
</svg>
