<svg width="128" height="34" viewBox="0 0 128 34" fill="none" xmlns="http://www.w3.org/2000/svg">
<path d="M11.3744 0.195312C9.00924 0.195312 6.17101 2.55563 3.87032 6.5192C1.41912 10.6609 0 15.7378 0 20.169C0 26.671 3.50479 33.1953 11.3744 33.1953C19.2441 33.1953 22.7489 26.671 22.7489 20.169C22.7489 15.7378 21.3298 10.6386 18.8785 6.54147C16.5779 2.55564 13.7396 0.195312 11.3744 0.195312ZM72.805 9.90382H80.7606V31.3917H89.2968V9.90382H97.2525V1.95442H72.805V9.90382ZM115.486 9.90382H128V1.95442H115.486C103.983 1.95442 97.8545 7.8775 97.8545 16.6953C97.8545 25.5131 104.004 31.4362 115.486 31.4362H128V23.4645H115.486C110.154 23.4645 106.692 21.4828 106.692 16.6953C106.692 11.9079 110.154 9.90382 115.486 9.90382ZM55.453 1.97669L50.8947 19.5678L46.3363 1.97669H31.2636V31.4585H39.7998V7.45442L46.0138 31.4139H55.7971L62.0111 7.43215V31.4139H70.5473V1.97669H55.453Z" fill="white"/>
</svg>
