<svg width="74" height="63" viewBox="0 0 74 63" fill="none" xmlns="http://www.w3.org/2000/svg">
<path fill-rule="evenodd" clip-rule="evenodd" d="M13.703 23.2032C21.2686 22.9235 30.9438 22.6236 36.7374 22.6236C42.6151 22.6236 52.4882 22.9322 60.1001 23.2154L60.0656 23.2033C60.0656 23.2033 60.0288 23.167 60.0288 23.1308C56.502 14.182 47.4646 7.80554 36.8843 7.80554C26.2672 7.80554 17.2299 14.2182 13.703 23.2032ZM68.1235 23.5519C69.5721 23.7198 70.3065 23.8268 70.9398 24.0003C73.0339 24.4713 73.4747 25.1959 73.4747 26.6813V36.717C73.4747 38.1662 71.895 39.1806 70.7929 39.3618C69.7586 39.5658 69.0802 39.6422 68.0593 39.7406C64.2935 52.8652 51.743 62.5127 36.8476 62.5127C21.9462 62.5127 9.42824 52.8936 5.6315 39.761L5.62082 39.7603C4.48196 39.6516 3.78395 39.5792 2.68183 39.3618C1.57971 39.1806 0 38.1662 0 36.717V26.6813C0 25.1959 0.440848 24.4713 2.53488 24.0003C3.19615 23.8191 3.96763 23.7105 5.54732 23.5293L5.54729 23.5293C9.22102 10.2691 21.8587 0.487061 36.8475 0.487061C51.7996 0.487061 64.4005 10.1967 68.111 23.4568C68.111 23.4911 68.111 23.5092 68.1149 23.5263C68.1167 23.5345 68.1195 23.5425 68.1235 23.5519ZM62.9391 40.0444L62.9456 40.0441C62.8136 40.4139 62.6733 40.78 62.5249 41.1421C62.6712 40.7801 62.8093 40.4141 62.9391 40.0444ZM36.7374 40.8834C44.4892 40.8834 53.2032 40.5399 59.8806 40.2045C59.8762 40.2242 59.8606 40.2549 59.8451 40.2857C59.8267 40.3219 59.8083 40.3581 59.8083 40.3762C56.1346 49.0714 47.2442 55.2305 36.8475 55.2305C26.3773 55.2305 17.4502 48.999 13.8132 40.2313C13.7899 40.2254 13.7663 40.2192 13.7425 40.2128C20.3981 40.5455 29.0491 40.8834 36.7374 40.8834ZM51.0295 27.6992C51.2321 27.8278 51.3287 28.1234 51.6527 28.8189C51.7997 29.157 52.3456 30.3251 52.9392 31.5951C53.6813 33.1828 54.4978 34.9296 54.7019 35.4127C54.7987 35.6354 54.7539 35.6347 54.5426 35.6312C54.5132 35.6307 54.4806 35.6301 54.4448 35.6301H52.4242C52.314 35.6301 52.2038 35.5939 52.167 35.4852C52.167 35.4521 51.9521 34.9647 51.6345 34.2446L51.5425 34.036H46.8034C46.436 34.8693 46.1421 35.4852 46.1421 35.4852C46.1054 35.5577 46.0319 35.6301 45.8849 35.6301H43.9379C43.644 35.6301 43.5338 35.6301 43.7174 35.2678L43.7542 35.1954C44.6726 33.2027 46.8401 28.4204 46.8401 28.4204C47.0493 27.9905 47.1096 27.781 47.2487 27.6795C47.4027 27.5671 47.6533 27.5871 48.3096 27.5871C48.6403 27.5508 48.7137 27.5508 49.1178 27.5508C49.5219 27.5508 49.8158 27.5508 49.9261 27.5871C50.5625 27.6045 50.8416 27.58 51.0295 27.6992ZM48.7505 29.5073C48.7505 29.5435 48.1627 30.9202 47.5381 32.3332H50.8078C50.5417 31.6673 50.2529 31.0013 50.0239 30.4731C49.8417 30.053 49.6973 29.72 49.6322 29.5435C49.5954 29.4348 49.522 29.3986 49.4485 29.3986C49.4117 29.3623 49.3015 29.3623 49.2281 29.3623C49.1178 29.3623 49.0076 29.3623 48.9709 29.3986C48.8607 29.3986 48.7872 29.4348 48.7505 29.5073ZM21.7852 27.6958C21.7852 27.5509 21.7485 27.4784 21.5648 27.4784H19.581C19.434 27.4784 19.3973 27.5509 19.3973 27.6958V35.3041C19.3973 35.5214 19.434 35.5577 19.6545 35.5577H21.5281C21.7485 35.5577 21.7852 35.4852 21.7852 35.3041V27.6958ZM17.8176 27.8045C17.8176 27.6233 17.7809 27.5508 17.5604 27.5508H15.944C15.7236 27.5508 15.6868 27.6233 15.6868 27.8045V33.8549C15.6868 33.8549 12.4172 28.8914 12.0131 28.2392C11.5231 27.5489 11.3332 27.5491 10.1091 27.5507C10.0484 27.5508 9.98508 27.5508 9.91907 27.5508H8.04547C7.82504 27.5508 7.78831 27.6233 7.78831 27.8045V35.3765C7.78831 35.5939 7.82504 35.6301 8.04547 35.6301H9.66191C9.88234 35.6301 9.91907 35.5939 9.91907 35.3765V29.4348C9.91907 29.4348 12.6376 33.5288 13.5193 34.9055C13.9602 35.6301 14.0704 35.6301 15.3562 35.6301H17.5604C17.7809 35.6301 17.8176 35.5939 17.8176 35.3765V27.8045ZM65.9436 27.8045C65.9436 27.6233 65.9068 27.5508 65.6864 27.5508H64.0699C63.8495 27.5508 63.8128 27.6233 63.8128 27.8045V33.8549C63.8128 33.8549 60.5799 28.8914 60.139 28.2392C59.649 27.5489 59.4591 27.5491 58.2351 27.5507C58.1743 27.5508 58.111 27.5508 58.045 27.5508H56.1714C55.951 27.5508 55.9142 27.6233 55.9142 27.8045V35.3765C55.9142 35.5939 55.951 35.6301 56.1714 35.6301H57.7879C58.0083 35.6301 58.045 35.5939 58.045 35.3765V29.4348C58.045 29.4348 60.7268 33.5288 61.6453 34.9055C62.0861 35.6301 62.1963 35.6301 63.4821 35.6301H65.6864C65.9068 35.6301 65.9436 35.5939 65.9436 35.3765V27.8045ZM32.6228 32.3694C32.3289 31.0289 31.2635 30.7753 29.8307 30.6304C29.601 30.6098 29.2644 30.5833 28.8851 30.5535C27.9299 30.4785 26.7038 30.3821 26.2305 30.3043C25.9733 30.2681 25.8631 30.1232 25.8631 29.942V29.7609V29.616C25.8998 29.3623 26.01 29.2537 26.2672 29.2537H32.035C32.2554 29.2899 32.3289 29.2174 32.3289 29.0363V27.732C32.3289 27.5508 32.2554 27.5146 32.035 27.5146H26.157C24.614 27.5146 23.7691 28.0581 23.5119 29.1812C23.4752 29.4348 23.4752 29.7609 23.4752 29.9783C23.4752 30.2319 23.4752 30.5217 23.5119 30.7391C23.5854 31.3912 24.0262 32.1158 25.7896 32.297C27.1489 32.4419 29.1695 32.623 29.8675 32.6593C30.1815 32.6937 30.2304 32.8915 30.266 33.0354C30.2679 33.0431 30.2697 33.0505 30.2716 33.0578V33.2752V33.6013C30.2348 33.7824 30.1614 33.8549 29.9042 33.8549H23.7691C23.5486 33.8549 23.5119 33.8911 23.5119 34.1085V35.3765C23.5119 35.5939 23.5486 35.6301 23.7691 35.6301H29.8307C31.3737 35.6301 32.3289 35.3765 32.586 34.1085C32.6595 33.8186 32.6595 33.4926 32.6595 33.2389C32.6595 32.9771 32.6436 32.731 32.6328 32.5621C32.6271 32.4739 32.6228 32.4067 32.6228 32.3694ZM43.0194 32.3694C42.7255 31.0289 41.6602 30.7753 40.2274 30.6304C39.9905 30.6081 39.6254 30.5791 39.214 30.5463C38.2858 30.4723 37.1221 30.3796 36.6639 30.3043C36.37 30.2681 36.2965 30.1232 36.2965 29.942V29.7609V29.616C36.3332 29.3623 36.4434 29.2537 36.7006 29.2537H42.4684C42.6888 29.2899 42.7623 29.2174 42.7623 29.0363V27.732C42.7623 27.5508 42.6888 27.5146 42.4684 27.5146H36.5904C35.0474 27.5146 34.2025 28.0581 33.9453 29.1812C33.9086 29.4348 33.9086 29.7608 33.9086 29.9782V29.9783V29.9783C33.9086 30.2319 33.9086 30.5217 33.9453 30.7391C34.0555 31.3912 34.4596 32.1158 36.223 32.297C37.5823 32.4419 39.6029 32.623 40.3009 32.6593C40.5948 32.6955 40.6682 32.9129 40.705 33.0578V33.2752V33.6013C40.6682 33.7824 40.5948 33.8549 40.3376 33.8549H34.2025C33.982 33.8549 33.9453 33.8911 33.9453 34.1085V35.3765C33.9453 35.5939 33.982 35.6301 34.2025 35.6301H40.2274C41.7704 35.6301 42.7255 35.3765 42.9827 34.1085C43.0562 33.8186 43.0562 33.4926 43.0562 33.2389C43.0562 32.9771 43.0403 32.731 43.0294 32.5621C43.0238 32.4739 43.0194 32.4067 43.0194 32.3694Z" fill="white"/>
</svg>
