<svg width="85" height="63" viewBox="0 0 85 63" fill="none" xmlns="http://www.w3.org/2000/svg">
<path fill-rule="evenodd" clip-rule="evenodd" d="M72.0572 0.186768C74.8491 1.03831 77.5944 1.57097 80.1051 2.79586C81.6804 3.5642 83.0076 4.60105 83.8542 6.14058C84.6722 7.62776 84.6031 9.08136 83.6285 10.4819C82.8583 11.5887 81.7961 12.3701 80.6196 13.0252C78.1276 14.4127 75.6252 15.7847 73.2798 17.4046C72.3423 18.0522 71.4107 18.7153 70.7157 19.6268C70.5601 19.8309 70.4386 19.8055 70.2415 19.7217C68.1757 18.8433 66.0575 18.1 63.9061 17.4281C63.9542 17.1601 64.2024 17.2071 64.355 17.15C68.4654 15.6141 72.5634 14.0531 76.4002 11.9204C77.1592 11.4986 77.881 11.025 78.548 10.473C80.4992 8.859 79.3117 6.61343 77.7129 5.9222C77.3437 5.76251 76.9997 5.75791 76.6369 6.01473C68.3528 11.8761 59.0312 15.213 48.9643 16.6542C36.9589 18.3728 25.109 17.6107 13.4569 14.2723C9.5891 13.1643 5.8547 11.7319 2.4621 9.56055C1.56327 8.98523 0.721539 8.33914 0 7.54717C1.42034 8.37235 2.86546 9.14318 4.36972 9.80568C8.74354 11.7319 13.34 12.9188 18.0684 13.6164C31.3362 15.5736 44.4241 14.6516 57.3228 11.1235C61.8179 9.89398 66.144 8.22485 70.2064 5.95291C70.7792 5.63267 71.34 5.29539 71.8237 4.85252C73.1485 3.63919 73.3478 2.28869 72.4295 0.766193C72.3332 0.60663 72.2282 0.452291 72.0572 0.186768Z" fill="white"/>
<path fill-rule="evenodd" clip-rule="evenodd" d="M-1.33514e-05 36.3572C22.6773 15.6422 60.4487 15.1975 83.6644 35.4575C83.5395 35.5502 83.4684 35.4304 83.397 35.3792C74.2841 28.8437 64.1159 25.0321 52.9467 23.8542C41.1138 22.6065 29.7537 24.3658 18.9119 29.2698C14.8819 31.0927 11.1015 33.336 7.5735 35.992C7.23537 36.2466 6.90272 36.3698 6.4718 36.3659C4.35085 36.3467 2.22978 36.3572 -1.33514e-05 36.3572Z" fill="white"/>
<path fill-rule="evenodd" clip-rule="evenodd" d="M50.5001 62.7466C48.333 62.2937 46.4831 61.2814 44.7517 60.0685C41.2867 57.6411 38.7069 54.5236 36.7752 50.9214C36.5428 50.4878 36.3013 50.3127 35.7646 50.3296C34.1472 50.3803 34.1362 50.3552 34.1735 51.9005C34.2095 53.3936 34.2552 54.8869 34.3278 56.3786C34.3471 56.7732 34.2407 56.9035 33.8083 56.8863C33.0127 56.8546 32.2135 56.8525 31.4181 56.8864C30.9694 56.9054 30.8891 56.7502 30.9085 56.3681C31.0807 52.98 31.1377 49.5896 31.0459 46.1983C31.0159 45.0887 30.9602 43.9797 30.9159 42.8703C30.9072 42.6544 30.8248 42.4136 31.2223 42.423C33.9549 42.4881 36.698 42.2429 39.4192 42.5724C41.0676 42.7721 42.4608 43.4381 42.9093 45.1086C43.5353 47.4408 42.2639 49.5077 40.2737 49.9669C39.9313 50.0459 40.019 50.1899 40.1261 50.392C41.6929 53.3512 43.5829 56.109 45.9142 58.5951C47.3224 60.0969 48.8657 61.4655 50.5001 62.7466ZM34.2428 44.6805C34.2514 45.2856 34.1513 47.6665 34.1518 48.2518C34.1521 48.4335 34.1254 48.6285 34.4273 48.6196C35.6287 48.5844 36.8453 48.7383 38.0223 48.3936C39.2469 48.035 39.7446 47.2496 39.5897 45.9574C39.4676 44.94 38.731 44.3038 37.5184 44.2536C36.5727 44.2143 35.6232 44.264 34.676 44.2464C34.3152 44.2396 34.2388 44.394 34.2428 44.6805Z" fill="white"/>
<path fill-rule="evenodd" clip-rule="evenodd" d="M27.8881 49.5273C27.8606 50.9165 27.7543 52.2157 27.369 53.4779C26.6595 55.8028 25.1244 57.0376 22.8667 57.3446C21.4883 57.5321 20.1157 57.5234 18.7502 57.2286C16.7901 56.805 15.4875 55.5704 14.8977 53.5713C14.1479 51.0295 14.1444 48.4466 14.7981 45.8819C15.3934 43.5466 16.8549 42.1856 19.1264 41.8134C20.5618 41.5783 21.9988 41.5737 23.4229 41.8712C25.5864 42.3229 26.8836 43.7597 27.4691 45.9666C27.7847 47.1559 27.8688 48.376 27.8881 49.5273ZM24.7411 49.619C24.735 48.3712 24.7059 47.1252 24.3367 45.9225C23.9815 44.7651 23.2774 43.974 22.1118 43.7922C19.3574 43.3623 18.2003 44.4017 17.7942 46.3247C17.3362 48.4947 17.3259 50.6901 17.8168 52.8557C18.2368 54.7072 19.2712 55.4413 21.2229 55.4175C23.0306 55.3954 24.0471 54.5629 24.458 52.7645C24.694 51.7306 24.7411 50.677 24.7411 49.619Z" fill="white"/>
<path fill-rule="evenodd" clip-rule="evenodd" d="M9.88789 52.9472C10.0955 49.641 10.0906 46.3924 9.88549 43.148C9.8482 42.5586 10.0051 42.4251 10.5812 42.4413C12.0748 42.4836 12.077 42.4545 12.0076 43.9217C11.8165 47.9651 11.85 52.0082 12.0566 56.0494C12.0825 56.5557 11.9527 56.6978 11.4514 56.6664C10.6761 56.618 9.79053 56.8645 9.14804 56.5674C8.50158 56.2684 8.2606 55.3496 7.84685 54.7C6.08768 51.9376 4.31305 49.1853 2.4425 46.4955C2.3569 46.3724 2.2659 46.2529 2.03535 46.1609C2.03535 47.458 2.01521 48.7554 2.04003 50.0519C2.07887 52.0735 2.13078 54.0953 2.21747 56.1152C2.23749 56.5807 2.10717 56.7145 1.66644 56.6607C1.13952 56.5964 0.428204 56.8928 0.129194 56.5336C-0.122818 56.231 0.0675702 55.5516 0.0897501 55.0401C0.262154 51.0561 0.268269 47.0723 0.0415537 43.0908C0.0108615 42.554 0.152334 42.3799 0.680815 42.4489C0.994811 42.4898 1.32955 42.5087 1.63635 42.4467C2.75338 42.221 3.32862 42.7658 3.87449 43.6781C5.61663 46.5896 7.46056 49.4407 9.39118 52.2344C9.55591 52.4726 9.72232 52.7096 9.88789 52.9472Z" fill="white"/>
<path fill-rule="evenodd" clip-rule="evenodd" d="M84.0657 44.7057C82.6181 44.0278 81.1794 43.7071 79.68 43.7489C79.267 43.7604 78.8494 43.7982 78.4445 43.8827C77.1808 44.1464 76.276 44.9065 75.8961 46.2529C75.3337 48.2457 75.2362 50.2717 75.7911 52.2831C76.2989 54.1244 77.5457 55.1231 79.3276 55.2094C79.8992 55.2371 80.4721 55.2475 81.0446 55.2441C81.4379 55.2417 81.6277 55.0672 81.6147 54.578C81.5759 53.1321 81.5509 51.6857 81.3378 50.2553C81.2807 49.8713 81.3065 49.7184 81.715 49.7343C82.5038 49.7651 83.2945 49.7465 84.0844 49.7416C84.3139 49.7402 84.4494 49.7702 84.4119 50.0932C84.1609 52.2521 84.2021 54.4223 84.2477 56.5902C84.257 57.0312 84.1551 57.18 83.7309 57.1604C82.6419 57.1097 81.5694 57.3579 80.4859 57.424C79.4196 57.4891 78.3542 57.5143 77.2971 57.3045C75.0004 56.8484 73.5017 55.4051 72.8341 53.0097C72.2249 50.8231 72.2061 48.597 72.7472 46.396C73.463 43.4853 75.267 41.9879 78.3328 41.7081C80.1103 41.5457 81.8839 41.7138 83.6553 41.8812C83.9348 41.9075 84.0824 41.9815 84.0725 42.3307C84.0506 43.094 84.0657 43.8584 84.0657 44.7057Z" fill="white"/>
<path fill-rule="evenodd" clip-rule="evenodd" d="M60.4755 49.5289C60.506 47.3304 60.4223 45.1343 60.307 42.9394C60.2854 42.5293 60.3738 42.3933 60.8405 42.3959C64.0791 42.4146 67.318 42.4141 70.5567 42.3958C71.0086 42.3933 71.1256 42.5145 71.122 42.9297C71.1112 44.2098 71.1304 44.2122 69.7697 44.2021C67.916 44.1886 66.0619 44.188 64.209 44.144C63.7242 44.1324 63.589 44.2646 63.5933 44.7072C63.6016 45.5853 63.5692 46.4653 63.5094 47.3419C63.4808 47.7623 63.6576 47.8298 64.0534 47.828C65.9284 47.8194 67.8043 47.835 69.6755 47.7102C70.1807 47.6765 70.3795 47.7671 70.3628 48.2977C70.3243 49.5087 70.356 49.5176 69.0651 49.4776C67.4037 49.4259 65.7428 49.3963 64.0802 49.413C63.6637 49.4172 63.4782 49.4882 63.4973 49.936C63.5614 51.4526 63.5947 52.9709 63.6062 54.4888C63.6095 54.9165 63.7706 55.0113 64.2023 55.0021C66.4602 54.9534 68.719 54.9505 70.9766 54.8923C71.4961 54.879 71.6132 55.0255 71.6042 55.486C71.5799 56.7046 71.6024 56.7052 70.3106 56.7052C67.1785 56.7053 64.0462 56.694 60.9142 56.7166C60.4031 56.7202 60.2767 56.5907 60.3016 56.1183C60.4174 53.9236 60.4994 51.7272 60.4755 49.5289Z" fill="white"/>
<path fill-rule="evenodd" clip-rule="evenodd" d="M51.0651 53.9907C51.7924 51.8228 52.5295 49.6579 53.2434 47.4859C53.735 45.9905 54.2045 44.488 54.6601 42.9821C54.7671 42.6289 54.906 42.4462 55.3345 42.4798C55.8537 42.5206 56.3798 42.507 56.9015 42.4848C57.2909 42.4683 57.3568 42.5605 57.2155 42.917C56.5022 44.7168 55.8089 46.524 55.1223 48.3335C54.1313 50.9456 53.1751 53.5696 52.3607 56.237C52.2446 56.617 52.0611 56.728 51.6623 56.7112C50.9318 56.6806 50.1969 56.6715 49.4678 56.7138C48.9798 56.7422 48.7874 56.56 48.6395 56.1384C47.1678 51.9439 45.6558 47.7626 43.9946 43.6313C43.5357 42.4901 43.5376 42.4761 44.8302 42.4944C45.5973 42.5052 46.5568 42.1983 47.0771 42.6158C47.5624 43.0052 47.5939 43.9085 47.8169 44.5879C48.8472 47.7284 49.8747 50.8698 50.9031 54.0109C50.9571 54.0041 51.0111 53.9975 51.0651 53.9907Z" fill="white"/>
</svg>
