<svg width="339" height="265" viewBox="0 0 339 265" fill="none" xmlns="http://www.w3.org/2000/svg">
<path d="M242.133 265C240.065 265 238.093 263.936 236.98 262.093L191.575 186.434L106.746 209.488C104.043 210.218 101.18 208.995 99.876 206.517L0.701858 20.1354C-0.220544 18.4036 -0.236448 16.3223 0.670051 14.5747C1.56065 12.827 3.26232 11.6354 5.20254 11.3653L89.4751 0.0530952C91.8447 -0.264663 94.1984 0.863379 95.423 2.91292L197.205 172.485L315.416 140.375L275.943 84.7834C274.783 83.1628 274.512 81.0656 275.228 79.1908C275.928 77.3319 277.518 75.9338 279.458 75.473L334.77 62.4291C337.029 61.8889 339.382 62.715 340.83 64.5104L388.683 124.201C389.94 125.774 390.337 127.887 389.701 129.81C389.081 131.732 387.522 133.21 385.566 133.734L335.152 147.429L379.109 209.329C380.207 210.87 380.509 212.824 379.936 214.619C379.364 216.415 377.98 217.829 376.199 218.464L244.121 264.666C243.469 264.889 242.801 265 242.133 265ZM203.614 183.161L244.773 251.718L364.701 209.758L322.811 150.766L203.614 183.161ZM15.349 22.1214L108.209 196.65L185.15 175.742L87.1532 12.4616L15.349 22.1214ZM290.877 85.0852L327.757 137.007L373.591 124.551L333.832 74.9487L290.877 85.0852Z" fill="#05242F"/>
</svg>
