<svg width="40" height="40" viewBox="0 0 40 40" fill="none" xmlns="http://www.w3.org/2000/svg">
<path d="M14.1768 20.6041C13.6863 21.514 14.2432 21.9489 15.5138 22.6919C16.594 23.3217 18.0862 23.552 19.0447 23.6441C18.6518 24.0005 20.4521 22.3665 15.2674 27.0729C14.168 28.0674 15.9379 29.6629 17.0364 28.6896L20.0104 25.9826C21.149 27.0163 22.2404 28.007 22.9845 28.6934C24.0838 29.6705 25.8529 28.0885 24.7655 27.0767C24.6839 27.0035 20.7353 23.4289 20.9762 23.6479C21.9467 23.5557 23.4165 23.3118 24.4839 22.6957L24.4831 22.6949C25.7537 21.9482 26.3105 21.514 25.8273 20.6041C25.5352 20.0876 24.7479 19.6557 23.6998 20.4025C23.6998 20.4025 22.2844 21.4256 20.0016 21.4256C17.7181 21.4256 16.3035 20.4025 16.3035 20.4025C15.2562 19.6519 14.4656 20.0876 14.1768 20.6041Z" fill="#ED812B"/>
<path d="M20.0004 20C22.7526 20 25 17.7615 25 15.0058C25 12.2385 22.7526 10 20.0004 10C17.2474 10 15 12.2385 15 15.0058C15 17.7615 17.2474 20 20.0004 20ZM20.0004 12.5358C21.3528 12.5358 22.4559 13.6403 22.4559 15.0058C22.4559 16.3597 21.3528 17.4642 20.0004 17.4642C18.648 17.4642 17.5449 16.3597 17.5449 15.0058C17.5441 13.6394 18.6472 12.5358 20.0004 12.5358Z" fill="#ED812B"/>
</svg>
