<svg width="203" height="49" viewBox="0 0 203 49" fill="none" xmlns="http://www.w3.org/2000/svg">
<path fill-rule="evenodd" clip-rule="evenodd" d="M36.1909 0.973633L24.3664 12.8153L18.2053 18.9844L23.9474 24.7347L35.7719 12.8931L47.5965 24.7347L41.932 30.4064L48.0155 36.4987L59.84 24.657L36.1909 0.973633Z" fill="white"/>
<path fill-rule="evenodd" clip-rule="evenodd" d="M36.1909 24.657L24.3664 36.4987L12.5419 24.657L18.2053 18.9844L12.1228 12.8931L0.298279 24.7347L23.9474 48.4172L35.7719 36.5755L41.9321 30.4055L36.1909 24.6561V24.657Z" fill="white"/>
<path fill-rule="evenodd" clip-rule="evenodd" d="M70.3139 27.1974C70.9734 27.1974 71.5168 27.1037 71.9283 26.9023C72.7271 26.537 73.0919 25.7595 73.0919 24.7104C73.0919 23.8412 72.7505 23.0712 71.9975 22.6132C71.5635 22.365 71.0201 22.2713 70.2672 22.2713H69.6087V27.1983H70.3139V27.1974ZM66.4884 19.7385H70.4075C71.7731 19.7385 72.9142 19.9249 73.7981 20.3754C75.4349 21.1529 76.3272 22.6366 76.3272 24.7114C76.3272 26.4677 75.5752 28.3401 73.3398 29.2028C72.4942 29.5213 71.455 29.7227 70.1278 29.7227H69.6003V34.7658H66.4809V19.7385H66.4893H66.4884ZM86.3681 28.5883L85.4823 26.0555C85.1175 24.9596 84.9398 24.3226 84.7995 23.8168H84.7528C84.6368 24.3461 84.4123 24.983 84.0007 26.0789L83.0935 28.5893H86.3671L86.3681 28.5883ZM83.4582 19.6682H85.9874L92.1167 34.7658H88.7644L87.3053 31.0903H82.2086L80.8197 34.7658H77.6077L83.4582 19.6682ZM98.2544 26.5604C98.9372 26.5604 99.3712 26.4443 99.7593 26.2419C100.349 25.8766 100.76 25.2631 100.76 24.4154C100.76 23.6154 100.395 22.9317 99.7359 22.5898C99.3945 22.3799 98.968 22.2713 98.2768 22.2713H97.0899V26.5613H98.2544V26.5604ZM93.9714 19.7385H98.4555C99.7977 19.7385 100.798 19.9408 101.598 20.3052C103.329 21.0592 103.988 22.497 103.988 24.0894C103.988 26.0471 102.762 27.4231 101.071 27.9439V27.9907C101.528 28.239 102.187 29.0623 102.987 30.4542L105.423 34.7658H101.846L99.8678 31.1605C99.1149 29.7461 98.5873 29.1794 98.231 29.0857H97.0899V34.7658H93.9714V19.7385Z" fill="white"/>
<path d="M110.893 19.7385H107.774V34.7659H110.893V19.7385Z" fill="white"/>
<path fill-rule="evenodd" clip-rule="evenodd" d="M117.294 22.3884H112.919V19.7385H125.17L124.347 22.3884H120.414V34.7659H117.294V22.3884ZM126.923 19.7385H135.598L134.775 22.3884H130.042V25.8542H134.798V28.4722H130.042V32.1244H135.574V34.7659H126.923V19.7385ZM141.518 22.3884H137.15V19.7385H149.392L148.577 22.3884H144.636V34.7659H141.518V22.3884ZM155.274 33.3515C157.299 33.3515 158.641 32.5515 158.641 30.547C158.641 28.8609 157.392 27.7884 155.476 27.7884H153.039V33.3524H155.274V33.3515ZM154.677 26.374C156.678 26.374 157.748 25.3952 157.748 23.7241C157.748 22.2254 156.88 21.1445 154.739 21.1445H153.032V26.3665H154.677V26.374ZM151.355 19.7385H154.84C158.028 19.7385 159.44 21.4948 159.44 23.5461C159.44 25.0767 158.688 26.2813 157.462 26.8096V26.8564C159.146 27.2217 160.38 28.6118 160.38 30.5077C160.38 33.0405 158.602 34.7734 155.274 34.7734H151.355V19.7385ZM170.458 29.319L168.906 24.983C168.425 23.6623 168.2 22.9551 168.014 22.3884H167.967C167.781 22.9635 167.533 23.6623 167.06 24.983L165.485 29.319H170.458ZM167.409 19.6917H168.572L174.314 34.7659H172.49L171.009 30.7334H164.972L163.491 34.7659H161.713L167.409 19.6917ZM187.396 34.7659L180.203 25.2322C179.476 24.2814 178.77 23.3151 178.085 22.3341H178.039C178.085 23.0872 178.108 23.7241 178.108 24.9053V34.7584H176.424V19.7385H178.039L184.959 28.9068C185.705 29.9046 186.435 30.9148 187.147 31.937H187.194C187.147 31.1371 187.147 30.4767 187.147 29.2956V19.7385H188.807V34.7659H187.396ZM192.501 19.7385H194.185V26.6232H194.231L199.926 19.7385H201.928L195.69 27.174L202.331 34.7659H200.221L194.231 27.9046H194.185V34.7659H192.501V19.7385Z" fill="white"/>
</svg>
