<svg width="272" height="248" viewBox="0 0 272 248" fill="none" xmlns="http://www.w3.org/2000/svg">
<g opacity="0.6">
<path d="M313.738 0H48.2455C21.6426 0 0 21.6426 0 48.2448V266.076C0 292.678 21.6426 314.321 48.2455 314.321H313.738C340.34 314.321 361.983 292.678 361.983 266.076V48.2448C361.983 21.6426 340.34 0 313.738 0ZM340.773 266.077C340.773 280.984 328.645 293.111 313.738 293.111H48.2455C33.3385 293.111 21.2099 280.984 21.2099 266.077V48.2448C21.2099 33.3378 33.3378 21.2099 48.2455 21.2099H313.738C328.645 21.2099 340.773 33.3378 340.773 48.2448V266.077Z" fill="#F2F2F2"/>
<path d="M191.596 162.104V53.0248C191.596 47.1681 186.848 42.4199 180.991 42.4199C175.134 42.4199 170.386 47.1681 170.386 53.0248V162.104C157.812 166.499 148.764 178.475 148.764 192.53C148.764 206.586 157.812 218.561 170.386 222.957V261.297C170.386 267.153 175.134 271.902 180.991 271.902C186.848 271.902 191.596 267.153 191.596 261.297V222.957C204.171 218.561 213.218 206.586 213.218 192.53C213.218 178.475 204.171 166.5 191.596 162.104ZM181.001 203.548C180.998 203.548 180.994 203.547 180.991 203.547C180.988 203.547 180.984 203.548 180.981 203.548C174.911 203.542 169.974 198.602 169.974 192.53C169.974 186.455 174.917 181.513 180.991 181.513C187.066 181.513 192.008 186.456 192.008 192.53C192.008 198.602 187.072 203.542 181.001 203.548Z" fill="#F2F2F2"/>
<path d="M99.333 91.3583V53.0248C99.333 47.1681 94.5848 42.4199 88.7281 42.4199C82.8713 42.4199 78.1231 47.1681 78.1231 53.0248V91.3583C65.5484 95.7537 56.501 107.729 56.501 121.784C56.501 135.839 65.5491 147.814 78.1231 152.21V261.297C78.1231 267.153 82.8713 271.902 88.7281 271.902C94.5848 271.902 99.333 267.153 99.333 261.297V152.21C111.908 147.815 120.955 135.84 120.955 121.784C120.955 107.728 111.908 95.7537 99.333 91.3583ZM88.7281 132.801C82.6528 132.801 77.7109 127.858 77.7109 121.784C77.7109 115.712 82.65 110.771 88.7217 110.767H88.7288C88.7288 110.767 88.733 110.767 88.7358 110.767C94.8075 110.77 99.7466 115.711 99.7466 121.784C99.7452 127.859 94.8033 132.801 88.7281 132.801Z" fill="#F2F2F2"/>
<path d="M283.86 91.3583V53.0248C283.86 47.1681 279.112 42.4199 273.255 42.4199C267.398 42.4199 262.65 47.1681 262.65 53.0248V91.3583C250.075 95.7537 241.028 107.729 241.028 121.784C241.028 135.839 250.075 147.814 262.65 152.21V261.297C262.65 267.153 267.398 271.902 273.255 271.902C279.112 271.902 283.86 267.153 283.86 261.297V152.21C296.435 147.815 305.482 135.84 305.482 121.784C305.482 107.728 296.435 95.7537 283.86 91.3583ZM273.255 132.801C267.18 132.801 262.238 127.858 262.238 121.784C262.238 115.712 267.176 110.771 273.248 110.767H273.255C273.255 110.767 273.259 110.767 273.262 110.767C279.334 110.77 284.272 115.711 284.272 121.784C284.272 127.859 279.33 132.801 273.255 132.801Z" fill="#F2F2F2"/>
</g>
</svg>
