<svg width="303" height="236" viewBox="0 0 303 236" fill="none" xmlns="http://www.w3.org/2000/svg">
<g opacity="0.6">
<path d="M116.367 66.5115L54.9763 127.902C50.8347 132.044 50.8347 138.758 54.9763 142.9L110.405 198.328C114.546 202.47 121.261 202.471 125.403 198.328C129.544 194.187 129.544 187.473 125.403 183.331L77.473 135.401L131.365 81.5084C135.506 77.3668 135.506 70.6524 131.365 66.5108C127.223 62.3692 120.508 62.3692 116.367 66.5115Z" fill="#F2F2F2"/>
<path d="M251.578 66.5115C247.437 62.3699 240.722 62.3699 236.581 66.5115C232.439 70.6531 232.439 77.3675 236.581 81.5091L284.51 129.439L230.618 183.332C226.477 187.473 226.477 194.188 230.618 198.329C234.759 202.471 241.474 202.471 245.616 198.329L307.007 136.938C311.148 132.797 311.148 126.082 307.007 121.941L251.578 66.5115Z" fill="#F2F2F2"/>
<path d="M212.375 43.0258C206.85 41.0745 200.794 43.9717 198.843 49.4941L142.766 208.284C140.816 213.807 143.711 219.864 149.234 221.815C154.755 223.765 160.815 220.87 162.765 215.347L218.843 56.557C220.793 51.0339 217.897 44.9757 212.375 43.0258Z" fill="#F2F2F2"/>
<path d="M310.751 0H51.2319C22.9824 0 0 22.9824 0 51.2319V213.608C0 241.858 22.9824 264.84 51.2319 264.84H310.751C339.001 264.84 361.983 241.858 361.983 213.608V51.2319C361.983 22.9824 339.001 0 310.751 0ZM340.773 213.608C340.773 230.162 327.305 243.63 310.751 243.63H51.2319C34.6775 243.63 21.2099 230.162 21.2099 213.608V51.2319C21.2099 34.6775 34.6775 21.2099 51.2319 21.2099H310.751C327.305 21.2099 340.773 34.6775 340.773 51.2319V213.608Z" fill="#F2F2F2"/>
</g>
</svg>
