<svg width="289" height="292" viewBox="0 0 289 292" fill="none" xmlns="http://www.w3.org/2000/svg">
<g opacity="0.6">
<path d="M62.9311 310.56C92.8273 318.574 123.665 300.771 131.673 270.872C139.7 240.905 121.946 210.148 91.9763 202.115C62.0804 194.1 31.242 211.904 23.2346 241.803C15.2077 271.77 32.9613 302.527 62.9311 310.56ZM43.7214 247.295C48.704 228.695 67.8881 217.618 86.4885 222.604C105.131 227.601 116.179 246.734 111.185 265.379C106.203 283.981 87.0183 295.057 68.4179 290.071C49.7754 285.074 38.7274 265.941 43.7214 247.295Z" fill="#F2F2F2"/>
<path d="M100.138 45.9084L121.002 55.5074C124.494 57.1136 128.417 57.5259 132.166 56.6807L154.57 51.6294L151.888 74.439L161.323 75.5483L151.888 74.4391C151.44 78.2558 152.26 82.1141 154.222 85.4184L165.949 105.165L143.427 109.663C139.659 110.416 136.243 112.388 133.707 115.276L118.55 132.531L107.313 112.502C105.432 109.15 102.501 106.511 98.971 104.991L77.8764 95.9084L93.4532 79.0313L86.6324 72.7361L93.4532 79.0313C96.0596 76.2073 97.664 72.6038 98.0186 68.7771L100.138 45.9084ZM168.027 104.75L168.025 104.751L168.027 104.75Z" stroke="#F2F2F2" stroke-width="19"/>
<path d="M308.224 77.2644C278.328 69.2495 247.489 87.0532 239.483 116.952C231.456 146.919 249.209 177.676 279.179 185.709C309.075 193.723 339.913 175.92 347.921 146.021C355.948 116.055 338.194 85.2974 308.224 77.2644ZM327.434 140.528C327.434 140.529 327.434 140.529 327.434 140.528C322.452 159.131 303.266 170.206 284.667 165.22C266.024 160.223 254.976 141.09 259.97 122.444C264.953 103.843 284.137 92.7666 302.737 97.7526C321.38 102.75 332.428 121.883 327.434 140.528Z" fill="#F2F2F2"/>
<path d="M193.798 287.526C185.789 317.424 203.597 348.268 233.494 356.283C263.39 364.296 294.228 346.493 302.236 316.595C310.244 286.697 292.436 255.853 262.539 247.839C232.643 239.823 201.805 257.627 193.798 287.526ZM281.748 311.103C276.766 329.704 257.581 340.78 238.982 335.794C220.382 330.807 209.303 311.618 214.285 293.018C219.267 274.418 238.451 263.34 257.051 268.326C275.652 273.312 286.731 292.502 281.748 311.103Z" fill="#F2F2F2"/>
<path d="M70.6076 128.423C65.2983 125.948 58.9891 128.245 56.5152 133.553C49.4334 148.747 45.1012 164.92 43.6396 181.625C43.1286 187.46 47.4449 192.605 53.2788 193.117C59.1142 193.629 64.2573 189.313 64.7677 183.478C66.0134 169.244 69.7043 155.464 75.7386 142.518C78.214 137.209 75.9164 130.899 70.6076 128.423Z" fill="#F2F2F2"/>
<path d="M300.548 259.401C305.861 261.878 312.168 259.575 314.64 254.271C321.722 239.077 326.054 222.904 327.516 206.199C328.027 200.364 323.711 195.219 317.877 194.707C312.042 194.195 306.898 198.51 306.388 204.346C305.142 218.58 301.451 232.36 295.417 245.306C292.941 250.615 295.239 256.925 300.548 259.401Z" fill="#F2F2F2"/>
<path d="M175.167 314.732C160.939 313.485 147.159 309.791 134.21 303.753C128.901 301.278 122.594 303.575 120.118 308.884C117.643 314.192 119.941 320.503 125.25 322.977C140.448 330.064 156.62 334.399 173.32 335.863C179.158 336.374 184.299 332.056 184.808 326.223C185.318 320.388 181.002 315.243 175.167 314.732Z" fill="#F2F2F2"/>
<path d="M236.946 84.0707C242.253 86.5458 248.562 84.2512 251.038 78.9405C253.512 73.6318 251.214 67.3214 245.905 64.8466C230.708 57.7603 214.535 53.4249 197.836 51.9614C192.001 51.4497 186.857 55.765 186.347 61.601C185.837 67.4363 190.153 72.5813 195.988 73.0923C210.217 74.3389 223.997 78.0334 236.946 84.0707Z" fill="#F2F2F2"/>
</g>
</svg>
