<svg width="267" height="263" viewBox="0 0 267 263" fill="none" xmlns="http://www.w3.org/2000/svg">
<g opacity="0.56">
<path d="M351.395 90.2611H238.574V10.6048C238.574 4.74813 233.825 0 227.968 0H10.6055C4.74842 0 0 4.74813 0 10.6048V191.127C0 196.984 4.74842 201.732 10.6055 201.732H123.426V281.395C123.426 287.252 128.175 292 134.032 292H351.395C357.252 292 362 287.252 362 281.395V100.866C362 95.0092 357.252 90.2611 351.395 90.2611ZM21.2109 21.2096H217.363V180.522C211.556 180.522 24.1607 180.522 21.2109 180.522V21.2096ZM340.789 270.79H144.637V201.732H227.968C233.825 201.732 238.574 196.984 238.574 191.127V111.471H340.789V270.79Z" fill="#F2F2F2"/>
<path d="M75.2681 90.2607H56.6265C50.7694 90.2607 46.021 95.0089 46.021 100.866C46.021 106.722 50.7694 111.47 56.6265 111.47H100.872C106.751 111.47 111.477 106.672 111.477 100.866V56.623C111.477 50.7663 106.729 46.0182 100.872 46.0182C95.0147 46.0182 90.2663 50.7663 90.2663 56.623V75.2634L60.5265 45.5254C56.3847 41.3839 49.67 41.3839 45.5282 45.5254C41.3864 49.6662 41.3864 56.3812 45.5282 60.5227L75.2681 90.2607Z" fill="#F2F2F2"/>
</g>
</svg>
