<svg width="291" height="262" viewBox="0 0 291 262" fill="none" xmlns="http://www.w3.org/2000/svg">
<g opacity="0.6">
<path d="M45.385 261.589H316.597C341.623 261.589 361.983 241.23 361.983 216.204C361.983 211.166 361.983 56.7818 361.983 45.3857C361.983 20.3594 341.623 0 316.598 0H45.385C20.3601 0 0 20.3594 0 45.385V216.204C0 241.23 20.3601 261.589 45.385 261.589ZM316.598 240.379H45.385C32.0553 240.379 21.2099 229.535 21.2099 216.204V148.47H340.773V216.204C340.773 229.535 329.928 240.379 316.598 240.379ZM21.2099 106.05H340.773V127.26H21.2099V106.05ZM45.385 21.2099H316.597C329.928 21.2099 340.773 32.0546 340.773 45.385V84.8398H21.2099V45.385C21.2099 32.0546 32.0553 21.2099 45.385 21.2099Z" fill="#F2F2F2"/>
<path d="M53.0249 63.6312H115.809C121.666 63.6312 126.414 58.883 126.414 53.0262C126.414 47.1695 121.666 42.4213 115.809 42.4213H53.0249C47.1681 42.4213 42.4199 47.1695 42.4199 53.0262C42.4199 58.883 47.1681 63.6312 53.0249 63.6312Z" fill="#F2F2F2"/>
<path d="M308.958 183.819H53.0249C47.1681 183.819 42.4199 188.568 42.4199 194.424C42.4199 200.281 47.1681 205.029 53.0249 205.029H308.958C314.815 205.029 319.563 200.281 319.563 194.424C319.563 188.568 314.815 183.819 308.958 183.819Z" fill="#F2F2F2"/>
</g>
</svg>
