<svg width="14" height="14" viewBox="0 0 14 14" fill="none" xmlns="http://www.w3.org/2000/svg">
<path d="M290.663 0.313868C290.881 -0.104623 291.456 -0.104622 291.674 0.313869L293.52 3.85199C293.603 4.01081 293.749 4.12227 293.919 4.15557L297.708 4.89737C298.157 4.98511 298.334 5.55661 298.021 5.90299L295.373 8.83147C295.254 8.96292 295.198 9.14328 295.22 9.32267L295.716 13.3193C295.775 13.792 295.31 14.1452 294.898 13.9408L291.415 12.2125C291.259 12.135 291.078 12.135 290.921 12.2125L287.439 13.9408C287.027 14.1452 286.562 13.792 286.621 13.3193L287.117 9.32267C287.139 9.14328 287.083 8.96292 286.964 8.83147L284.316 5.90299C284.002 5.55661 284.18 4.98511 284.628 4.89737L288.417 4.15557C288.587 4.12227 288.734 4.01081 288.817 3.85199L290.663 0.313868Z" fill="#ffffff"/>
<path d="M306.407 0.313868C306.625 -0.104623 307.2 -0.104622 307.419 0.313869L309.264 3.85199C309.347 4.01081 309.494 4.12227 309.664 4.15557L313.453 4.89737C313.901 4.98511 314.079 5.55661 313.766 5.90299L311.117 8.83147C310.998 8.96292 310.942 9.14328 310.965 9.32267L311.461 13.3193C311.519 13.792 311.054 14.1452 310.642 13.9408L307.16 12.2125C307.004 12.135 306.822 12.135 306.666 12.2125L303.183 13.9408C302.772 14.1452 302.306 13.792 302.365 13.3193L302.861 9.32267C302.883 9.14328 302.827 8.96292 302.709 8.83147L300.06 5.90299C299.747 5.55661 299.925 4.98511 300.373 4.89737L304.162 4.15557C304.332 4.12227 304.479 4.01081 304.561 3.85199L306.407 0.313868Z" fill="#ffffff"/>
<path d="M322.152 0.313868C322.37 -0.104623 322.945 -0.104622 323.163 0.313869L325.009 3.85199C325.092 4.01081 325.238 4.12227 325.408 4.15557L329.197 4.89737C329.646 4.98511 329.823 5.55661 329.51 5.90299L326.862 8.83147C326.743 8.96292 326.687 9.14328 326.709 9.32267L327.205 13.3193C327.264 13.792 326.799 14.1452 326.387 13.9408L322.904 12.2125C322.748 12.135 322.567 12.135 322.41 12.2125L318.928 13.9408C318.516 14.1452 318.051 13.792 318.11 13.3193L318.606 9.32267C318.628 9.14328 318.572 8.96292 318.453 8.83147L315.805 5.90299C315.492 5.55661 315.669 4.98511 316.117 4.89737L319.906 4.15557C320.076 4.12227 320.223 4.01081 320.306 3.85199L322.152 0.313868Z" fill="#ffffff"/>
<path d="M6.50499 0.313868C6.7233 -0.104623 7.29809 -0.104622 7.5164 0.313869L9.36212 3.85199C9.44497 4.01081 9.59172 4.12227 9.7618 4.15557L13.5509 4.89737C13.999 4.98511 14.1767 5.55661 13.8634 5.90299L11.2151 8.83147C11.0962 8.96292 11.0401 9.14328 11.0624 9.32267L11.5585 13.3193C11.6171 13.792 11.1521 14.1452 10.7402 13.9408L7.25771 12.2125C7.10139 12.135 6.92 12.135 6.76368 12.2125L3.28119 13.9408C2.86928 14.1452 2.40427 13.792 2.46294 13.3193L2.959 9.32267C2.98126 9.14328 2.92521 8.96292 2.80633 8.83147L0.157983 5.90299C-0.155265 5.55661 0.0223558 4.98511 0.470529 4.89737L4.25959 4.15557C4.42967 4.12227 4.57642 4.01081 4.65927 3.85199L6.50499 0.313868Z" fill="#ffffff"/>
<path d="M353.641 0.313868C353.859 -0.104623 354.434 -0.104622 354.652 0.313869L356.498 3.85199C356.581 4.01081 356.727 4.12227 356.897 4.15557L360.686 4.89737C361.135 4.98511 361.312 5.55661 360.999 5.90299L358.351 8.83147C358.232 8.96292 358.176 9.14328 358.198 9.32267L358.694 13.3193C358.753 13.792 358.288 14.1452 357.876 13.9408L354.393 12.2125C354.237 12.135 354.056 12.135 353.899 12.2125L350.417 13.9408C350.005 14.1452 349.54 13.792 349.599 13.3193L350.095 9.32267C350.117 9.14328 350.061 8.96292 349.942 8.83147L347.294 5.90299C346.981 5.55661 347.158 4.98511 347.606 4.89737L351.395 4.15557C351.565 4.12227 351.712 4.01081 351.795 3.85199L353.641 0.313868Z" fill="#ffffff"/>
</svg>
