<svg width="64" height="63" viewBox="0 0 64 63" fill="none" xmlns="http://www.w3.org/2000/svg">
<g clip-path="url(#clip0)">
<path d="M63.9016 0H0.901611V63H63.9016V0Z" fill="white"/>
<path d="M46.8101 55.0674C46.6452 55.0674 46.4185 55.0674 46.2327 54.8807C46.0451 54.694 46.0451 54.4682 46.0451 54.3024V48.7217C46.0451 48.4648 46.0496 48.3537 46.138 48.1879C46.2429 47.9976 46.4496 47.8847 46.6936 47.8847C46.9368 47.8847 47.1435 47.9976 47.2484 48.1861C47.3368 48.3537 47.3413 48.4639 47.3413 48.7217V53.8873H49.6238C49.8589 53.8873 49.9789 53.8984 50.1101 53.9699C50.2856 54.0713 50.3888 54.2606 50.3888 54.4776C50.3888 54.6936 50.2856 54.8821 50.1118 54.983C49.9789 55.0559 49.8594 55.067 49.6238 55.067H46.8101V55.0674ZM10.4855 55.1056C10.2419 55.1056 10.0348 54.9927 9.93119 54.8034C9.84229 54.6367 9.83873 54.5256 9.83873 54.2686V49.1031H8.66569C8.439 49.1031 8.31631 49.0951 8.17941 49.0204C8.00383 48.9195 7.90204 48.7306 7.90204 48.5132C7.90204 48.2963 8.00383 48.1079 8.17674 48.0078C8.31098 47.935 8.43099 47.923 8.66569 47.923H12.3066C12.5409 47.923 12.6613 47.935 12.792 48.0065C12.9671 48.1079 13.0703 48.2963 13.0703 48.5137C13.0703 48.7306 12.9671 48.92 12.7947 49.0191C12.6613 49.092 12.5422 49.1031 12.3066 49.1031H11.1336V54.2686C11.1336 54.5256 11.13 54.6376 11.0411 54.8025C10.9362 54.9927 10.7291 55.1056 10.4855 55.1056ZM14.7509 55.1056C14.5073 55.1056 14.2989 54.9927 14.1953 54.8034C14.1064 54.6367 14.1028 54.5256 14.1028 54.2686V48.7217C14.1028 48.4648 14.1064 48.3546 14.1944 48.1879C14.2997 47.9976 14.5073 47.8847 14.7509 47.8847C14.9936 47.8847 15.2007 47.9976 15.3048 48.1861C15.3945 48.3537 15.3981 48.4648 15.3981 48.7217V54.2686C15.3981 54.5256 15.3945 54.6376 15.3056 54.8025C15.2016 54.9927 14.9936 55.1056 14.7509 55.1056ZM21.6727 55.1056C21.3197 55.1056 21.1677 54.8349 21.0455 54.6158L19.4119 51.7377L18.3803 52.9783V54.2682C18.3803 54.5251 18.3767 54.6363 18.2878 54.802C18.1838 54.9923 17.9758 55.1052 17.7322 55.1052C17.4895 55.1052 17.2819 54.9923 17.1774 54.8029C17.0885 54.6362 17.085 54.5251 17.085 54.2682V48.7213C17.085 48.4644 17.0885 48.3532 17.1765 48.1874C17.2819 47.9972 17.4895 47.8843 17.7322 47.8843C17.9758 47.8843 18.1829 47.9972 18.2878 48.1856C18.3767 48.3532 18.3803 48.4644 18.3803 48.7213V51.1416L20.7681 48.2448C20.9379 48.0399 21.0882 47.8843 21.3442 47.8843C21.4927 47.8843 21.6327 47.9363 21.7487 48.0354C21.8989 48.1612 21.982 48.3288 21.982 48.5084C21.982 48.6933 21.9012 48.8208 21.7207 49.0378L20.3089 50.742L22.1532 53.9837C22.275 54.1966 22.3288 54.3069 22.3345 54.4718C22.3412 54.6967 22.2279 54.8887 22.0172 55.0154C21.8949 55.091 21.7625 55.1056 21.6727 55.1056ZM28.0815 55.1056C27.7281 55.1056 27.5761 54.8349 27.4539 54.6158L25.8203 51.7377L24.7886 52.9783V54.2682C24.7886 54.5251 24.786 54.6363 24.6971 54.802C24.5922 54.9923 24.3841 55.1052 24.1414 55.1052C23.8979 55.1052 23.6894 54.9923 23.5858 54.8029C23.4969 54.6362 23.4934 54.5251 23.4934 54.2682V48.7213C23.4934 48.4644 23.4969 48.3532 23.5858 48.1874C23.6903 47.9972 23.8979 47.8843 24.1414 47.8843C24.3841 47.8843 24.5913 47.9972 24.6962 48.1856C24.786 48.3532 24.7886 48.4644 24.7886 48.7213V51.1416L27.1765 48.2448C27.3472 48.0399 27.4974 47.8843 27.7526 47.8843C27.9001 47.8843 28.0402 47.9363 28.1579 48.0345C28.3082 48.1621 28.3895 48.3297 28.3895 48.5084C28.3895 48.6933 28.3095 48.8208 28.1291 49.0378L26.7173 50.742L28.5629 53.9837C28.6833 54.1966 28.7371 54.3069 28.7429 54.4718C28.7496 54.6958 28.6376 54.8887 28.4255 55.0154C28.3046 55.091 28.1713 55.1056 28.0815 55.1056ZM39.2829 51.022C39.9279 51.022 40.3293 50.6584 40.3293 50.0721C40.3293 49.4747 39.9283 49.1031 39.2829 49.1031H37.8583V51.0216H39.2829V51.022ZM40.996 55.1056C40.6435 55.1056 40.4915 54.8349 40.3693 54.6158L38.9682 52.163H37.8587V54.2682C37.8587 54.5251 37.8552 54.6363 37.7667 54.802C37.6618 54.9923 37.4551 55.1052 37.2111 55.1052C36.9671 55.1052 36.7595 54.9923 36.6564 54.8029C36.567 54.6354 36.5626 54.5251 36.5626 54.2682V48.6875C36.5626 48.5226 36.5626 48.2959 36.7502 48.1101C36.9368 47.9225 37.1626 47.9225 37.3276 47.9225H39.3607C40.7151 47.9225 41.625 48.7822 41.625 50.0619C41.625 50.97 41.1405 51.6705 40.3199 51.9639L41.4774 53.9842C41.5988 54.1971 41.653 54.3073 41.6588 54.4722C41.665 54.6963 41.5521 54.8892 41.341 55.0159C41.2192 55.091 41.0863 55.1056 40.996 55.1056ZM43.7115 55.1056C43.4683 55.1056 43.2599 54.9927 43.1559 54.8034C43.0674 54.6376 43.0638 54.5256 43.0638 54.2686V48.7217C43.0638 48.4648 43.0674 48.3537 43.1559 48.1879C43.2608 47.9976 43.4683 47.8847 43.7115 47.8847C43.9546 47.8847 44.1622 47.9976 44.2662 48.1861C44.3556 48.3546 44.3591 48.4648 44.3591 48.7217V54.2686C44.3591 54.5256 44.3556 54.6367 44.2671 54.8025C44.1631 54.9927 43.9555 55.1056 43.7115 55.1056ZM54.9031 52.5422L53.9795 50.0157L53.054 52.5422H54.9031ZM56.2633 55.1056C56.1286 55.1056 56.0028 55.0612 55.8979 54.9754C55.7739 54.8754 55.721 54.762 55.633 54.5256L55.3196 53.6823H52.6371L52.3228 54.5256C52.2361 54.7616 52.1837 54.8754 52.057 54.9772C51.9548 55.0612 51.8276 55.1056 51.6925 55.1056C51.5129 55.1056 51.3356 55.0336 51.2204 54.9118C50.9546 54.6385 51.0684 54.3335 51.1604 54.0895L53.2709 48.4697C53.3456 48.2639 53.4065 48.1625 53.5105 48.0643C53.6381 47.9421 53.7874 47.8847 53.9795 47.8847C54.1688 47.8847 54.3182 47.9421 54.4475 48.0643C54.5515 48.1625 54.6115 48.2648 54.6862 48.4706L56.7976 54.0895C56.8887 54.3335 57.0034 54.638 56.7349 54.9136C56.6202 55.0336 56.4442 55.1056 56.2633 55.1056ZM32.3896 55.1256C30.8863 55.1256 29.7955 54.0708 29.7955 52.6182V48.7217C29.7955 48.4648 29.799 48.3537 29.8879 48.1879C29.9928 47.9976 30.2 47.8847 30.4436 47.8847C30.6863 47.8847 30.8943 47.9976 30.9983 48.1861C31.0881 48.3537 31.0917 48.4648 31.0917 48.7217V52.5702C31.0917 53.4174 31.5886 53.9455 32.3896 53.9455C33.1893 53.9455 33.6875 53.4174 33.6875 52.5702V48.7217C33.6875 48.4648 33.6911 48.3546 33.7796 48.1879C33.8845 47.9976 34.0929 47.8847 34.3352 47.8847C34.5783 47.8847 34.7868 47.9976 34.8899 48.1861C34.9793 48.3537 34.9828 48.4648 34.9828 48.7217V52.6182C34.9828 54.0708 33.8925 55.1256 32.3896 55.1256Z" fill="#011C26"/>
<path d="M45.145 37.0888L44.532 40.2567C44.4107 40.8888 43.7835 41.4053 43.1412 41.4053H21.6624C21.0197 41.4053 20.3925 40.8888 20.2712 40.2567L19.5635 36.5976L45.145 37.0888ZM19.5635 36.5976L16.1649 19.251C17.8037 18.5371 19.6969 19.671 19.92 21.5081C19.9893 22.0802 19.9107 22.6332 19.7173 23.1368C21.4953 22.9919 23.092 24.2792 23.3107 26.0705C23.5329 27.9058 22.2296 29.5772 20.3934 29.8034C19.7995 29.8745 19.4568 29.7914 18.9452 29.5767C18.9488 29.7545 18.9657 29.931 18.9861 30.1088C19.4159 33.5941 21.7091 35.0832 25.2224 35.0832C28.2984 35.0832 31.5539 33.1447 31.5539 29.6349C31.5539 29.3962 31.5495 29.1611 31.521 28.9255C30.9796 29.3042 30.3035 29.5314 29.5892 29.5314C27.7419 29.5314 26.2395 28.0303 26.2395 26.1767C26.2395 24.3743 27.6628 22.9021 29.4488 22.8274C29.1941 22.3527 29.0496 21.8126 29.0496 21.2388C29.0496 19.387 30.5502 17.885 32.3994 17.885C34.2525 17.885 35.7531 19.387 35.7531 21.2388C35.7531 21.8126 35.6047 22.3527 35.3486 22.8274C37.1355 22.9021 38.5628 24.3743 38.5628 26.1767C38.5628 28.0303 37.0599 29.5314 35.209 29.5314C34.4956 29.5314 33.8302 29.3038 33.2861 28.9211C33.2608 29.1553 33.2488 29.3958 33.2488 29.6349C33.2488 33.1447 36.3603 35.0832 39.6021 35.0832C43.1136 35.0832 45.3868 33.5612 45.8162 30.0803C45.8362 29.9065 45.858 29.7332 45.8664 29.5638C45.3534 29.767 45.0112 29.8496 44.4329 29.775C42.5931 29.5518 41.2903 27.8769 41.5125 26.0416C41.7357 24.2507 43.3287 22.963 45.1059 23.1079C44.9112 22.6087 44.8334 22.0522 44.9036 21.4819C45.1303 19.6421 46.8221 18.6353 48.6374 19.2247L45.1441 37.0888" fill="#011C26"/>
</g>
<defs>
<clipPath id="clip0">
<rect width="63" height="63" fill="white" transform="translate(0.901611)"/>
</clipPath>
</defs>
</svg>
