<svg width="71" height="125" viewBox="0 0 71 125" fill="none" xmlns="http://www.w3.org/2000/svg">
<path opacity="0.5" d="M2.712 105.264L3.744 97.2H11.04V98.448H4.824L4.104 103.92C4.6 103.776 5.152 103.704 5.76 103.704C7.328 103.704 8.6 104.168 9.576 105.096C10.568 106.04 11.064 107.272 11.064 108.792C11.064 110.44 10.56 111.752 9.552 112.728C8.528 113.72 7.296 114.216 5.856 114.216C4.864 114.216 3.936 113.984 3.072 113.52C2.224 113.056 1.56 112.4 1.08 111.552L1.824 110.664C2.24 111.384 2.816 111.952 3.552 112.368C4.304 112.768 5.08 112.968 5.88 112.968C6.984 112.968 7.904 112.584 8.64 111.816C9.376 111.032 9.744 110.04 9.744 108.84C9.744 107.672 9.328 106.72 8.496 105.984C7.68 105.216 6.6 104.832 5.256 104.832C4.312 104.832 3.464 104.976 2.712 105.264ZM27.8623 103.2H29.2783L24.9103 114C24.1263 115.904 23.4463 117.168 22.8703 117.792C22.2943 118.464 21.6223 118.8 20.8543 118.8C20.2623 118.8 19.6463 118.616 19.0063 118.248L19.4143 117.288C19.9103 117.528 20.3343 117.648 20.6863 117.648C21.2303 117.648 21.7183 117.408 22.1503 116.928C22.5823 116.464 23.0303 115.68 23.4943 114.576L23.7343 114L18.4063 103.2H19.8943L23.5903 110.832L24.3583 112.512C24.3743 112.448 24.5743 111.872 24.9583 110.784L27.8623 103.2ZM39.6431 111.72L40.0511 112.68C39.0751 113.704 37.7471 114.216 36.0671 114.216C34.3391 114.216 32.9551 113.704 31.9151 112.68C30.8591 111.656 30.3311 110.296 30.3311 108.6C30.3311 106.968 30.8111 105.624 31.7711 104.568C32.7471 103.512 34.0911 102.984 35.8031 102.984C37.1951 102.984 38.3631 103.432 39.3071 104.328C40.2351 105.208 40.6991 106.384 40.6991 107.856C40.6991 108.24 40.6751 108.576 40.6271 108.864H31.7231C31.7711 110.16 32.1951 111.184 32.9951 111.936C33.7951 112.672 34.8431 113.04 36.1391 113.04C37.6431 113.04 38.8111 112.6 39.6431 111.72ZM35.6831 104.16C34.5311 104.16 33.5951 104.496 32.8751 105.168C32.1711 105.84 31.7631 106.728 31.6511 107.832H39.4271C39.4111 106.696 39.0671 105.8 38.3951 105.144C37.7231 104.488 36.8191 104.16 35.6831 104.16ZM44.0211 105L43.6851 103.968C44.7571 103.312 45.9011 102.984 47.1171 102.984C48.5251 102.984 49.5411 103.336 50.1651 104.04C50.8051 104.744 51.1251 105.832 51.1251 107.304V114H49.8771V112.344C48.9971 113.544 47.7651 114.144 46.1811 114.144C45.1731 114.144 44.3651 113.856 43.7571 113.28C43.1491 112.688 42.8451 111.904 42.8451 110.928C42.8451 109.872 43.2291 109.048 43.9971 108.456C44.7491 107.864 45.7331 107.568 46.9491 107.568C48.1651 107.568 49.1411 107.84 49.8771 108.384C49.8771 107.264 49.7971 106.408 49.6371 105.816C49.5091 105.24 49.2451 104.832 48.8451 104.592C48.4611 104.352 47.8611 104.208 47.0451 104.16C46.0691 104.16 45.0611 104.44 44.0211 105ZM46.5651 112.968C47.9091 112.968 49.0131 112.4 49.8771 111.264V109.464C49.0931 108.888 48.1571 108.6 47.0691 108.6C46.2531 108.6 45.5651 108.8 45.0051 109.2C44.4451 109.6 44.1651 110.152 44.1651 110.856C44.1651 111.496 44.3891 112.008 44.8371 112.392C45.2851 112.776 45.8611 112.968 46.5651 112.968ZM55.9487 114H54.7007V103.2H55.9487V104.64C56.6687 103.552 57.6367 103.008 58.8527 103.008C59.6047 103.008 60.1647 103.144 60.5327 103.416L60.1007 104.592C59.6367 104.32 59.1327 104.184 58.5887 104.184C57.5167 104.184 56.6367 104.768 55.9487 105.936V114ZM68.1911 111.168C68.1911 110.672 67.9831 110.272 67.5671 109.968C67.1671 109.664 66.6711 109.424 66.0791 109.248C65.5031 109.072 64.9191 108.88 64.3271 108.672C63.7351 108.448 63.2311 108.104 62.8151 107.64C62.4151 107.16 62.2151 106.56 62.2151 105.84C62.2151 104.976 62.5351 104.288 63.1751 103.776C63.8151 103.248 64.6551 102.984 65.6951 102.984C67.1831 102.984 68.3111 103.384 69.0791 104.184L68.5511 105.12C67.8151 104.432 66.8711 104.088 65.7191 104.088C65.0791 104.088 64.5511 104.256 64.1351 104.592C63.7351 104.912 63.5351 105.32 63.5351 105.816C63.5351 106.328 63.7351 106.752 64.1351 107.088C64.5511 107.408 65.0471 107.664 65.6231 107.856C66.2151 108.032 66.8071 108.224 67.3991 108.432C67.9911 108.64 68.4871 108.968 68.8871 109.416C69.3031 109.864 69.5111 110.432 69.5111 111.12C69.5111 112.096 69.1431 112.856 68.4071 113.4C67.6871 113.944 66.7591 114.216 65.6231 114.216C64.9191 114.216 64.1831 114.056 63.4151 113.736C62.6951 113.432 62.1991 113.072 61.9271 112.656L62.6231 111.84C62.9271 112.208 63.3831 112.512 63.9911 112.752C64.6151 112.992 65.2071 113.112 65.7671 113.112C66.4711 113.112 67.0471 112.944 67.4951 112.608C67.9591 112.256 68.1911 111.776 68.1911 111.168Z" fill="white"/>
<path d="M37.5 63.0518C21.3482 63.0518 8.06786 49.6518 8.06786 33.5C8.06786 30.15 8.66607 26.9196 9.74286 23.8089L26.9714 57.3089C27.2107 57.7875 27.45 58.1464 28.0482 58.1464C28.6464 58.1464 28.8857 57.7875 29.125 57.3089L37.1411 39.4821C37.2607 39.2429 37.3804 39.1232 37.5 39.1232C37.7393 39.1232 37.7393 39.3625 37.8589 39.4821L45.9946 57.3089C46.2339 57.7875 46.4732 58.1464 47.0714 58.1464C47.6696 58.1464 47.9089 57.7875 48.1482 57.3089L65.3768 23.8089C66.4536 26.8 67.0518 30.0304 67.0518 33.5C66.9321 49.6518 53.6518 63.0518 37.5 63.0518ZM37.5 25.8429C37.2607 25.8429 37.2607 25.6036 37.1411 25.4839L27.9286 5.62321C30.9196 4.54643 34.15 3.94821 37.5 3.94821C40.85 3.94821 44.0804 4.54643 47.0714 5.62321L37.8589 25.4839C37.7393 25.6036 37.7393 25.8429 37.5 25.8429ZM27.8089 47.3786C27.5696 47.3786 27.5696 47.1393 27.45 47.0196L12.375 18.0661C15.0071 13.7589 18.8357 10.1696 23.2625 7.65714L33.9107 30.6286C34.15 31.1071 34.3893 31.2268 34.7482 31.2268H40.2518C40.6107 31.2268 40.85 31.1071 41.0893 30.6286L51.6179 7.65714C56.0446 10.1696 59.8732 13.7589 62.5054 18.0661L47.55 47.0196C47.4304 47.2589 47.3107 47.3786 47.1911 47.3786C46.9518 47.3786 46.9518 47.1393 46.8321 47.0196L41.0893 34.3375C40.85 33.8589 40.6107 33.7393 40.2518 33.7393H34.7482C34.3893 33.7393 34.15 33.8589 33.9107 34.3375L28.1679 47.0196C28.0482 47.1393 28.0482 47.3786 27.8089 47.3786ZM37.5 67C56.0446 67 71 52.0446 71 33.5C71 14.9554 56.0446 0 37.5 0C18.9554 0 4 14.9554 4 33.5C4 52.0446 18.9554 67 37.5 67Z" fill="white"/>
</svg>
